<svg fill="none" xmlns="http://www.w3.org/2000/svg" viewBox="0 0 21.64 29.52"> <path fill-rule="evenodd" clip-rule="evenodd" d="M6.07754 29.0033C6.15262 28.8863 6.21625 28.7624 6.26754 28.6333L6.66754 28.5233C6.66754 28.5233 6.73754 28.4133 6.73754 28.3733C6.67927 28.2416 6.60541 28.1174 6.51754 28.0033C6.33809 27.7698 6.17758 27.5223 6.03754 27.2633C6.03754 27.1933 5.92754 27.1233 5.89754 27.0433C5.67754 26.7533 5.41754 26.4533 5.19754 26.1233L4.85754 25.6433C4.41754 25.0533 3.93754 24.4633 3.49754 23.8433C3.23754 23.5833 3.08754 23.2533 2.86754 22.9933C2.77097 22.8772 2.68401 22.7535 2.60754 22.6233C2.5075 22.4345 2.3831 22.2597 2.23754 22.1033C2.15832 22.0199 2.09706 21.9212 2.05754 21.8133C1.90594 21.523 1.72139 21.2512 1.50754 21.0033C1.39875 20.8971 1.31059 20.7716 1.24754 20.6333C1.1708 20.4599 1.06979 20.2982 0.947536 20.1533L0.877536 20.0033C0.584243 19.5746 0.313864 19.1306 0.0675364 18.6733C0.022974 18.569 0 18.4567 0 18.3433C0 18.2298 0.022974 18.1176 0.0675364 18.0133C0.103424 17.9313 0.154293 17.8566 0.217536 17.7933C0.343596 17.6845 0.494839 17.6088 0.657536 17.5733C0.748875 17.5652 0.837482 17.538 0.917536 17.4933H1.09754C1.38529 17.5648 1.66903 17.6516 1.94754 17.7533C2.03227 17.8021 2.10693 17.8666 2.16754 17.9433C2.31754 18.2733 2.64754 18.4533 2.83754 18.7533C3.13795 18.9658 3.38731 19.2425 3.56754 19.5633L4.23754 20.4433C4.37754 20.6333 4.48754 20.8133 4.63754 20.9933C4.78754 21.1733 4.89754 21.3633 5.04754 21.5533C5.19754 21.7433 5.22754 21.8133 5.37754 21.8433C5.48728 21.8839 5.57929 21.9618 5.63754 22.0633L5.70754 22.1433C5.85754 22.3233 6.00754 22.5433 6.14754 22.7333C6.28754 22.9233 6.48754 23.0633 6.62754 23.2433C6.72565 23.3593 6.8402 23.4604 6.96754 23.5433C7.0465 23.3965 7.07128 23.2265 7.03754 23.0633C7.03754 22.9933 7.03754 22.8833 7.03754 22.8033C7.05753 22.5604 7.05753 22.3162 7.03754 22.0733V22.0033C7.10065 21.6032 7.1241 21.1979 7.10754 20.7933C7.12288 20.7073 7.12288 20.6193 7.10754 20.5333C7.10754 20.4533 7.10754 20.3833 7.10754 20.3133C7.14213 20.1181 7.14213 19.9184 7.10754 19.7233V19.3533C7.16194 19.0457 7.16194 18.7309 7.10754 18.4233C7.08753 18.2773 7.08753 18.1293 7.10754 17.9833C7.10754 17.5833 7.10754 17.1733 7.10754 16.8033V16.6533C7.0713 16.4852 7.0713 16.3113 7.10754 16.1433C7.12256 16.007 7.12256 15.8695 7.10754 15.7333V15.5833C7.1368 15.1721 7.09278 14.759 6.97754 14.3633C6.94269 14.1816 6.94269 13.995 6.97754 13.8133C6.99254 13.7004 6.99254 13.5861 6.97754 13.4733C6.9544 13.3175 6.9544 13.1591 6.97754 13.0033C6.95911 12.9447 6.95911 12.8819 6.97754 12.8233C7.05242 12.5925 7.05242 12.344 6.97754 12.1133C6.96261 11.9436 6.96261 11.773 6.97754 11.6033C7.00553 11.3537 6.97821 11.1011 6.89754 10.8633C6.86324 10.795 6.84537 10.7197 6.84537 10.6433C6.84537 10.5669 6.86324 10.4915 6.89754 10.4233C6.93793 10.3033 6.93793 10.1733 6.89754 10.0533C6.83953 9.7874 6.81601 9.51516 6.82754 9.24328C6.82754 8.80328 6.82754 8.39328 6.82754 7.95328C6.82754 7.80328 6.82754 7.69328 6.82754 7.54328C6.82754 7.39328 6.82754 7.28328 6.82754 7.17328V6.32328C6.84776 6.1405 6.84776 5.95605 6.82754 5.77328C6.79541 5.44072 6.79541 5.10584 6.82754 4.77328C6.84752 4.57712 6.84752 4.37944 6.82754 4.18328C6.80781 3.87693 6.80781 3.56963 6.82754 3.26328C6.82754 3.04328 6.82754 2.82328 6.82754 2.56328C6.84716 2.44073 6.84716 2.31583 6.82754 2.19328C6.82297 2.13271 6.80431 2.07405 6.77306 2.02196C6.74181 1.96988 6.69883 1.92581 6.64754 1.89328C6.56754 1.89328 6.49754 1.82328 6.49754 1.75328C6.49754 1.68328 6.67754 1.64328 6.67754 1.53328C6.79181 1.37912 6.94802 1.26109 7.12754 1.19328L7.40754 1.00328C7.51754 1.00328 7.66754 1.00328 7.77754 1.00328C7.87888 0.938388 7.99045 0.891057 8.10754 0.863279C8.16412 0.858462 8.21829 0.838194 8.26414 0.804688C8.30999 0.771182 8.34576 0.725726 8.36754 0.673279C8.36754 0.673279 8.43754 0.563279 8.47754 0.563279C8.76754 0.383279 9.02754 0.203279 9.32754 0.0532792C9.43754 -0.0267208 9.43754 -0.0267208 9.58754 0.123279C9.64915 0.129868 9.71139 0.119495 9.76754 0.0932792C9.83754 0.0932792 9.87754 0.0932792 9.95754 0.0932792C10.0375 0.0932792 10.0675 0.0932792 10.1375 0.0932792C10.1931 0.0587124 10.2571 0.0403903 10.3225 0.0403903C10.3879 0.0403903 10.452 0.0587124 10.5075 0.0932792C10.6119 0.148494 10.6961 0.235283 10.7482 0.341245C10.8003 0.447208 10.8176 0.566921 10.7975 0.683279C10.7975 0.753279 10.7975 0.873279 10.7975 0.943279C10.7117 1.26922 10.6847 1.60784 10.7175 1.94328V2.12328C10.7175 2.75328 10.7175 3.38328 10.7175 4.00328C10.6976 4.31296 10.6976 4.6236 10.7175 4.93328C10.7175 5.22328 10.7175 5.52328 10.7175 5.81328C10.7175 6.10328 10.7175 6.44328 10.7175 6.73328C10.7175 7.29328 10.7175 7.88328 10.6375 8.43328C10.6375 8.72328 10.6375 9.02328 10.6375 9.35328C10.6175 9.64961 10.6175 9.94695 10.6375 10.2433V10.4933C10.5827 10.9349 10.5827 11.3816 10.6375 11.8233C10.6575 12.1196 10.6575 12.417 10.6375 12.7133V12.8933C10.6718 13.5595 10.6718 14.2271 10.6375 14.8933C10.6375 15.3733 10.6375 15.8933 10.6375 16.3733C10.6375 16.4433 10.6375 16.4833 10.6375 16.5533C10.6026 16.8221 10.6026 17.0944 10.6375 17.3633C10.6375 17.8433 10.6375 18.3633 10.6375 18.8433C10.6375 19.3233 10.6375 19.6533 10.6375 20.0933V20.5433C10.6226 20.7263 10.6226 20.9103 10.6375 21.0933C10.6375 21.3833 10.6375 21.6833 10.6375 21.9733C10.6375 22.2633 10.6375 22.4233 10.6375 22.6033C10.6375 22.7833 10.6375 22.8633 10.6375 22.9733C10.6375 23.0833 10.6375 23.0433 10.7075 23.0833C10.7366 23.0876 10.7664 23.0833 10.7931 23.0708C10.8197 23.0584 10.8422 23.0384 10.8575 23.0133C10.9275 22.9333 10.9675 22.8233 11.0375 22.7533C11.1115 22.6339 11.1987 22.5232 11.2975 22.4233C11.4999 22.2163 11.6839 21.9921 11.8475 21.7533C11.9637 21.6004 12.1018 21.4656 12.2575 21.3533C12.5475 21.1233 12.8475 20.8333 13.1375 20.6433L13.3575 20.4233L14.3575 19.4233C14.4465 19.3284 14.5436 19.2414 14.6475 19.1633C14.7752 19.0887 14.8872 18.9903 14.9775 18.8733C15.0929 18.7757 15.2167 18.6887 15.3475 18.6133C15.4323 18.5645 15.5069 18.5 15.5675 18.4233C15.7549 18.1447 16.0094 17.9177 16.3075 17.7633L16.5275 17.6133C16.7175 17.4733 16.8575 17.3233 17.0475 17.1733C17.2601 16.9515 17.5248 16.7865 17.8175 16.6933C17.8975 16.6933 17.9275 16.6233 17.9675 16.5833C18.0075 16.5433 17.9675 16.5833 18.0375 16.5133C18.1433 16.3595 18.2837 16.2328 18.4475 16.1433C18.6179 16.0753 18.7958 16.0283 18.9775 16.0033C19.0868 15.9293 19.2156 15.8898 19.3475 15.8898C19.4794 15.8898 19.6083 15.9293 19.7175 16.0033C19.761 16.0386 19.8125 16.0627 19.8675 16.0733C20.0075 16.0733 20.1275 16.2233 20.2675 16.2533C20.5968 16.3171 20.9323 16.344 21.2675 16.3333C21.3165 16.3297 21.3656 16.3378 21.4108 16.357C21.456 16.3761 21.496 16.4057 21.5275 16.4433C21.5606 16.4785 21.579 16.525 21.579 16.5733C21.579 16.6216 21.5606 16.6681 21.5275 16.7033C21.5275 16.5033 21.4475 16.5033 21.4175 16.5433C21.3875 16.5833 21.2675 16.6533 21.3075 16.7333C21.3475 16.8133 21.4175 16.7333 21.4475 16.7333C21.4971 16.7357 21.5441 16.7565 21.5792 16.7916C21.6143 16.8267 21.6351 16.8737 21.6375 16.9233C21.6313 17.0169 21.5924 17.1054 21.5275 17.1733C21.3775 17.3233 21.2675 17.4733 21.1275 17.6133C20.9849 17.7574 20.8606 17.9186 20.7575 18.0933C20.6287 18.3046 20.4666 18.4936 20.2775 18.6533C20.1975 18.6533 20.1675 18.7233 20.1275 18.7633C19.9565 18.9723 19.7581 19.1573 19.5375 19.3133C19.515 19.3048 19.4901 19.3048 19.4675 19.3133L18.7575 19.9733C18.4675 20.2733 18.1375 20.5633 17.8375 20.8633C17.6398 21.0188 17.4677 21.2043 17.3275 21.4133C17.2475 21.5233 17.1775 21.5933 17.1075 21.7033C16.7851 21.9932 16.5086 22.3303 16.2875 22.7033C15.9575 23.0333 15.7375 23.4333 15.4075 23.7033C15.264 23.8202 15.1392 23.9585 15.0375 24.1133C15.0375 24.1133 14.9675 24.2233 14.9275 24.2533C14.7246 24.4196 14.5401 24.6073 14.3775 24.8133C14.1945 24.9731 14.0209 25.1434 13.8575 25.3233C13.6416 25.5641 13.4076 25.7881 13.1575 25.9933C13.0272 26.0969 12.9156 26.222 12.8275 26.3633C12.5998 26.6716 12.3382 26.9534 12.0475 27.2033C12.0475 27.2033 11.9775 27.2833 11.9375 27.2833L11.6075 27.6133C11.4975 27.7233 11.3875 27.7933 11.2775 27.9133C11.1675 28.0333 11.2775 28.1333 11.1975 28.2433C11.1347 28.4582 11.0094 28.6497 10.8375 28.7933C10.6875 28.9033 10.5775 29.0133 10.4275 29.1233C10.2274 29.2321 10.0162 29.3192 9.79754 29.3833C9.72754 29.3833 9.61754 29.3833 9.53754 29.3833C9.46533 29.3651 9.38974 29.3651 9.31754 29.3833C9.15574 29.4907 8.9582 29.5302 8.76754 29.4933C8.58754 29.4933 8.43754 29.5633 8.28754 29.4933C8.14269 29.4606 7.99238 29.4606 7.84754 29.4933C7.73787 29.4811 7.6272 29.4811 7.51754 29.4933C7.22642 29.4542 6.94104 29.3804 6.66754 29.2733C6.49459 29.2181 6.34842 29.1004 6.25754 28.9433C6.20054 28.9714 6.13998 28.9915 6.07754 29.0033ZM8.58754 7.00328C8.54221 6.92408 8.5181 6.83453 8.51754 6.74328C8.49786 6.63416 8.49786 6.5224 8.51754 6.41328V6.33328C8.43578 6.24068 8.38355 6.12577 8.36754 6.00328V5.47328L8.43754 5.39328C8.43754 5.39328 8.43754 5.28328 8.43754 5.24328C8.29754 5.24328 8.29754 5.16328 8.29754 5.05328C8.29754 4.94328 8.29754 4.91328 8.29754 4.83328C8.30218 4.79374 8.29834 4.75367 8.28627 4.71573C8.2742 4.67779 8.25417 4.64287 8.22754 4.61328C8.15754 4.61328 8.15754 4.50328 8.04754 4.46328C7.93754 4.42328 8.04754 4.46328 8.04754 4.54328C8.04754 4.62328 8.04754 4.94328 8.15754 5.09328V5.20328C8.10615 5.24488 8.06371 5.29644 8.03277 5.35488C8.00184 5.41331 7.98305 5.47739 7.97754 5.54328V6.24328C7.9801 6.49942 7.94986 6.75483 7.88754 7.00328C7.88754 7.07328 7.88754 7.11328 7.88754 7.18328C7.86734 7.43955 7.86734 7.69701 7.88754 7.95328C7.88754 8.21328 7.88754 8.43328 7.88754 8.69328C7.88754 8.95328 7.88754 9.39328 7.80754 9.69328C7.72754 9.99328 7.80754 10.2833 7.80754 10.6233C7.80754 10.7333 7.87754 10.8033 8.02754 10.8033C8.17754 10.8033 8.02754 10.9133 8.09754 10.9933C8.09754 10.8833 8.20754 10.8133 8.24754 10.7033C8.17295 10.4878 8.13575 10.2612 8.13754 10.0333C8.13478 9.98588 8.14331 9.9385 8.16244 9.89504C8.18156 9.85157 8.21073 9.81327 8.24754 9.78328C8.24754 9.78328 8.24754 9.70328 8.31754 9.67328C8.38754 9.64328 8.24754 9.48328 8.20754 9.41328C8.26655 9.35762 8.31709 9.2936 8.35754 9.22328C8.26915 9.05419 8.23098 8.86335 8.24754 8.67328C8.23233 8.47691 8.23233 8.27965 8.24754 8.08328C8.2624 7.94702 8.2624 7.80954 8.24754 7.67328V7.60328V7.61328C8.24754 7.50328 8.24754 7.50328 8.09754 7.61328C8.07496 7.60485 8.05011 7.60485 8.02754 7.61328C8.02754 7.61328 8.02754 7.61328 8.02754 7.53328V7.05328C8.06457 7.12585 8.11554 7.19042 8.17754 7.24328H8.24754C8.24754 7.24328 8.39754 7.09328 8.46754 6.98328L8.58754 7.00328ZM7.33754 9.52328V11.7033C7.35256 11.9364 7.35256 12.1702 7.33754 12.4033C7.32312 12.4624 7.32312 12.5241 7.33754 12.5833C7.36011 12.5917 7.38496 12.5917 7.40754 12.5833C7.40754 12.5133 7.40754 12.4733 7.40754 12.4033C7.40754 12.0333 7.47754 11.6333 7.51754 11.2633V9.49328C7.49762 9.24701 7.49762 8.99954 7.51754 8.75328C7.53773 8.55713 7.53773 8.35943 7.51754 8.16328C7.4829 7.89439 7.4829 7.62217 7.51754 7.35328C7.51932 7.12531 7.48212 6.89871 7.40754 6.68328C7.40754 6.68328 7.40754 6.68328 7.33754 6.68328C7.33754 6.76328 7.33754 6.87328 7.33754 6.94328V9.52328ZM8.10754 14.5833C8.13614 14.4805 8.17293 14.3802 8.21754 14.2833C8.23687 14.1977 8.23687 14.1089 8.21754 14.0233C8.25309 13.5573 8.25309 13.0893 8.21754 12.6233V12.5533C8.21754 12.5533 8.14754 12.4733 8.10754 12.4733C8.06754 12.4733 8.03754 12.4733 7.99754 12.5533C7.95754 12.6333 7.99754 12.6633 7.99754 12.7333C7.99754 13.2933 7.99754 13.8833 7.99754 14.4333C8.03754 14.4633 8.03754 14.5033 8.10754 14.5833ZM8.10754 11.5833C8.10754 11.5833 8.10754 11.6533 8.10754 11.6933C8.11942 11.7125 8.13549 11.7287 8.15453 11.7409C8.17358 11.753 8.19512 11.7606 8.21754 11.7633C8.23537 11.7612 8.25197 11.7531 8.26466 11.7404C8.27736 11.7277 8.28542 11.7111 8.28754 11.6933C8.30636 11.6525 8.31611 11.6082 8.31611 11.5633C8.31611 11.5184 8.30636 11.474 8.28754 11.4333C8.28754 11.4333 8.28754 11.4333 8.21754 11.4333C8.14754 11.4333 8.14754 11.4333 8.10754 11.5133V11.6233V11.5833ZM8.21754 3.83328V3.69328C8.19453 3.68776 8.17054 3.68776 8.14754 3.69328C8.13922 3.69983 8.13249 3.70818 8.12786 3.71771C8.12324 3.72724 8.12084 3.73769 8.12084 3.74828C8.12084 3.75887 8.12324 3.76932 8.12786 3.77885C8.13249 3.78838 8.13922 3.79673 8.14754 3.80328C8.16938 3.81906 8.19285 3.83247 8.21754 3.84328V3.83328ZM8.27754 12.1833C8.26654 12.1734 8.2523 12.168 8.23754 12.168C8.22278 12.168 8.20854 12.1734 8.19754 12.1833V12.2533C8.19754 12.2533 8.25754 12.2133 8.25754 12.1833H8.27754Z" fill="white"/> </svg>