<svg fill="none" xmlns="http://www.w3.org/2000/svg" viewBox="1 1 29.71 21.61"> <path fill-rule="evenodd" clip-rule="evenodd" d="M30 16.5299C29.883 16.4548 29.7591 16.3911 29.63 16.3399L29.52 15.9399C29.52 15.9399 29.41 15.8699 29.37 15.8699C29.2383 15.9281 29.114 16.002 29 16.0899C28.7665 16.2693 28.519 16.4298 28.26 16.5699C28.19 16.5699 28.12 16.6799 28.04 16.7099C27.75 16.9299 27.45 17.1899 27.12 17.4099C26.97 17.5199 26.79 17.6299 26.64 17.7499C26.05 18.1899 25.46 18.6699 24.84 19.1099C24.58 19.3699 24.25 19.5199 23.99 19.7399C23.8739 19.8364 23.7502 19.9234 23.62 19.9999C23.4337 20.1 23.2592 20.2207 23.1 20.3599C23.02 20.4456 22.9205 20.5107 22.81 20.5499C22.5058 20.6988 22.2204 20.8834 21.96 21.0999C21.8538 21.2087 21.7283 21.2968 21.59 21.3599C21.4165 21.4366 21.2549 21.5376 21.11 21.6599C21.11 21.6599 21.04 21.7299 21 21.7299C20.5712 22.0232 20.1273 22.2935 19.67 22.5399C19.5656 22.5844 19.4534 22.6074 19.34 22.6074C19.2265 22.6074 19.1143 22.5844 19.01 22.5399C18.9279 22.504 18.8533 22.4531 18.79 22.3899C18.6811 22.2638 18.6055 22.1126 18.57 21.9499C18.5632 21.8583 18.5359 21.7694 18.49 21.6899V21.5099C18.5615 21.2221 18.6482 20.9384 18.75 20.6599C18.7988 20.5751 18.8632 20.5005 18.94 20.4399C19.27 20.2899 19.45 19.9599 19.75 19.7699C19.9692 19.4503 20.2604 19.1866 20.6 18.9999L21.48 18.3299C21.67 18.1899 21.85 18.0799 22.03 17.9299C22.21 17.7799 22.4 17.6699 22.59 17.5199C22.78 17.3699 22.85 17.3399 22.88 17.1899C22.9329 17.1061 23.0094 17.04 23.1 16.9999L23.18 16.9299C23.36 16.7799 23.58 16.6299 23.77 16.4799C23.96 16.3299 24.1 16.1499 24.28 16.0099C24.3937 15.9094 24.4944 15.7952 24.58 15.6699C24.4331 15.5909 24.2632 15.5661 24.1 15.5999C24.03 15.5999 23.92 15.5999 23.84 15.5999C23.597 15.5799 23.3529 15.5799 23.11 15.5999H23C22.5999 15.5367 22.1946 15.5133 21.79 15.5299C21.704 15.5145 21.6159 15.5145 21.53 15.5299C21.45 15.5299 21.38 15.5299 21.31 15.5299C21.1148 15.4953 20.9151 15.4953 20.72 15.5299H20.35C20.0423 15.4755 19.7276 15.4755 19.42 15.5299C19.274 15.5499 19.1259 15.5499 18.98 15.5299C18.58 15.5299 18.17 15.5299 17.8 15.5299H17.65C17.4819 15.5661 17.308 15.5661 17.14 15.5299C17.0037 15.5148 16.8662 15.5148 16.73 15.5299H16.58C16.1619 15.4807 15.7384 15.5078 15.33 15.6099C15.1483 15.6447 14.9616 15.6447 14.78 15.6099C14.6671 15.5949 14.5528 15.5949 14.44 15.6099C14.294 15.6301 14.1459 15.6301 14 15.6099C13.9414 15.6283 13.8785 15.6283 13.82 15.6099C13.5892 15.535 13.3407 15.535 13.11 15.6099C12.9403 15.6248 12.7696 15.6248 12.6 15.6099C12.3504 15.5819 12.0978 15.6092 11.86 15.6899C11.7917 15.7242 11.7164 15.742 11.64 15.742C11.5636 15.742 11.4882 15.7242 11.42 15.6899C11.2999 15.6495 11.17 15.6495 11.05 15.6899C10.7841 15.7479 10.5118 15.7714 10.24 15.7599C9.79996 15.7599 9.38996 15.7599 8.94996 15.7599C8.79996 15.7599 8.68996 15.7599 8.53996 15.7599C8.38996 15.7599 8.27996 15.7599 8.16996 15.7599H7.31996C7.13718 15.7396 6.95273 15.7396 6.76996 15.7599C6.4374 15.792 6.10252 15.792 5.76996 15.7599C5.5738 15.7399 5.37612 15.7399 5.17996 15.7599C4.87361 15.7796 4.56631 15.7796 4.25996 15.7599C4.03996 15.7599 3.81996 15.7599 3.55996 15.7599C3.43741 15.7402 3.31251 15.7402 3.18996 15.7599C3.12939 15.7644 3.07073 15.7831 3.01864 15.8143C2.96656 15.8456 2.92249 15.8886 2.88996 15.9399C2.88996 16.0199 2.81996 16.0899 2.74996 16.0899C2.67996 16.0899 2.59996 15.9999 2.48996 15.9999C2.3358 15.8856 2.21777 15.7294 2.14996 15.5499C2.14996 15.4399 2.07996 15.3299 2.03996 15.2199C1.99996 15.1099 2.03996 14.9599 1.96996 14.8499C1.91554 14.7466 1.87838 14.6351 1.85996 14.5199C1.85514 14.4633 1.83487 14.4091 1.80137 14.3633C1.76786 14.3174 1.72241 14.2816 1.66996 14.2599C1.66996 14.2599 1.55996 14.1899 1.55996 14.1499C1.37996 13.8599 1.19996 13.5999 1.04996 13.2999C0.999959 13.1699 0.999959 13.1699 1.11996 12.9999C1.10934 12.9449 1.08529 12.8933 1.04996 12.8499C1.04996 12.7799 1.04996 12.7399 1.04996 12.6599C1.04996 12.5799 1.04996 12.5499 1.04996 12.4799C1.01539 12.4243 0.99707 12.3603 0.99707 12.2949C0.99707 12.2295 1.01539 12.1654 1.04996 12.1099C1.10517 12.0055 1.19196 11.9213 1.29793 11.8692C1.40389 11.8171 1.5236 11.7998 1.63996 11.8199H1.89996C2.2259 11.9057 2.56452 11.9327 2.89996 11.8999H3.07996C3.70996 11.8999 4.33996 11.8999 4.95996 11.8999C5.30376 11.9582 5.65133 11.9917 5.99996 11.9999H6.87996H7.79996C8.35996 11.9999 8.94996 11.9999 9.49996 12.0799C9.78996 12.0799 10.09 12.0799 10.42 12.0799C10.7163 12.0999 11.0136 12.0999 11.31 12.0799H11.56C12.0016 12.1347 12.4483 12.1347 12.89 12.0799C13.1863 12.0599 13.4836 12.0599 13.78 12.0799H13.96C14.6262 12.0456 15.2937 12.0456 15.96 12.0799C16.44 12.0799 16.96 12.0799 17.44 12.0799C17.51 12.0799 17.55 12.0799 17.62 12.0799C17.8888 12.1148 18.1611 12.1148 18.43 12.0799C18.91 12.0799 19.43 12.0799 19.91 12.0799C20.39 12.0799 20.72 12.0799 21.16 12.0799H21.61C21.793 12.0948 21.9769 12.0948 22.16 12.0799C22.45 12.0799 22.75 12.0799 23.04 12.0799C23.33 12.0799 23.49 12.0799 23.67 12.0799C23.85 12.0799 23.93 12.0799 24.04 12.0799C24.15 12.0799 24.11 12.0799 24.15 12.0099C24.1543 11.9808 24.15 11.951 24.1375 11.9243C24.1251 11.8977 24.1051 11.8752 24.08 11.8599C24 11.7899 23.89 11.7499 23.82 11.6799C23.7005 11.6059 23.5898 11.5187 23.49 11.4199C23.283 11.2175 23.0588 11.0335 22.82 10.8699C22.6671 10.7537 22.5323 10.6156 22.42 10.4599C22.19 10.1699 21.9 9.86986 21.71 9.57986L21.49 9.35986L20.49 8.35986C20.3951 8.27086 20.3081 8.17383 20.23 8.06986C20.1554 7.94225 20.0569 7.83021 19.94 7.73986C19.8424 7.62454 19.7554 7.50071 19.68 7.36986C19.6312 7.28513 19.5667 7.21047 19.49 7.14986C19.2113 6.96251 18.9844 6.70802 18.83 6.40986C18.83 6.33986 18.72 6.25986 18.68 6.18986C18.64 6.11986 18.39 5.85986 18.24 5.66986C18.0182 5.45729 17.8532 5.19258 17.76 4.89986C17.76 4.81986 17.69 4.78986 17.65 4.74986C17.61 4.70986 17.65 4.74986 17.58 4.67986C17.4262 4.5741 17.2994 4.43365 17.21 4.26986C17.1115 4.06346 17.0408 3.84488 17 3.61986C16.926 3.51064 16.8865 3.38176 16.8865 3.24986C16.8865 3.11796 16.926 2.98909 17 2.87986C17.0353 2.83639 17.0593 2.78487 17.07 2.72986C17.07 2.57986 17.22 2.46986 17.25 2.32986C17.3138 2.00055 17.3406 1.66514 17.33 1.32986C17.3264 1.28091 17.3345 1.23182 17.3536 1.18662C17.3728 1.14141 17.4024 1.1014 17.44 1.06986C17.4752 1.03682 17.5217 1.01843 17.57 1.01843C17.6183 1.01843 17.6647 1.03682 17.7 1.06986C17.5 1.06986 17.5 1.13986 17.54 1.17986C17.58 1.21986 17.65 1.32986 17.73 1.28986C17.81 1.24986 17.73 1.17986 17.73 1.13986C17.7418 1.09487 17.7696 1.05576 17.8084 1.02996C17.8471 1.00415 17.8939 0.993447 17.94 0.999864C18.0336 1.00606 18.1221 1.045 18.19 1.10986C18.34 1.25986 18.49 1.36986 18.63 1.50986C18.7741 1.65251 18.9353 1.77679 19.11 1.87986C19.3212 2.0087 19.5103 2.17078 19.67 2.35986C19.67 2.43986 19.74 2.46986 19.78 2.50986C19.991 2.67875 20.1763 2.87751 20.33 3.09986C20.3215 3.12244 20.3215 3.14729 20.33 3.16986C20.55 3.38986 20.77 3.64986 20.99 3.86986C21.21 4.08986 21.58 4.49986 21.88 4.79986C22.0354 4.99764 22.221 5.16974 22.43 5.30986C22.54 5.38986 22.61 5.45986 22.72 5.52986C23.0124 5.84962 23.3491 6.12576 23.72 6.34986C24.05 6.67986 24.45 6.89986 24.72 7.22986C24.8369 7.37344 24.9752 7.49823 25.13 7.59986C25.13 7.59986 25.24 7.66986 25.27 7.70986C25.4868 7.93721 25.7322 8.13553 26 8.29986C26.1598 8.48287 26.3301 8.6565 26.51 8.81986C26.7508 9.03579 26.9748 9.26981 27.18 9.51986C27.2836 9.65015 27.4087 9.76176 27.55 9.84986C27.8583 10.0776 28.14 10.3392 28.39 10.6299C28.39 10.6299 28.47 10.6999 28.47 10.7399L28.8 11.0699C28.91 11.1799 28.98 11.2899 29.1 11.3999C29.22 11.5099 29.32 11.3999 29.43 11.4799C29.6449 11.5427 29.8364 11.668 29.98 11.8399C30.09 11.9899 30.2 12.0999 30.31 12.2499C30.4187 12.45 30.5059 12.6612 30.57 12.8799C30.57 12.9499 30.57 13.0599 30.57 13.1399C30.5518 13.2121 30.5518 13.2877 30.57 13.3599C30.6774 13.5217 30.7169 13.7192 30.68 13.9099C30.68 14.0899 30.75 14.2399 30.68 14.3899C30.6473 14.5347 30.6473 14.685 30.68 14.8299C30.6678 14.9395 30.6678 15.0502 30.68 15.1599C30.6397 15.4507 30.5659 15.736 30.46 16.0099C30.4023 16.1815 30.2853 16.3269 30.13 16.4199C30.061 16.4552 29.9867 16.4789 29.91 16.4899L30 16.5299ZM7.99996 13.9999C7.92076 14.0452 7.83121 14.0693 7.73996 14.0699C7.63084 14.0895 7.51908 14.0895 7.40996 14.0699H7.32996C7.21976 14.129 7.09427 14.1534 6.96996 14.1399H6.46996L6.38996 14.0699C6.38996 14.0699 6.27996 14.0699 6.23996 14.0699C6.23996 14.2199 6.15996 14.2199 6.04996 14.2199C5.93996 14.2199 5.90996 14.2199 5.82996 14.2199C5.79042 14.2152 5.75035 14.2191 5.71241 14.2311C5.67447 14.2432 5.63955 14.2632 5.60996 14.2899C5.60996 14.3599 5.49996 14.3599 5.45996 14.4699C5.41996 14.5799 5.45996 14.4699 5.53996 14.4699C5.61996 14.4699 5.93996 14.4699 6.08996 14.3599H6.19996C6.25097 14.4023 6.31007 14.4339 6.37367 14.4528C6.43727 14.4717 6.50405 14.4775 6.56996 14.4699H7.26996C7.5319 14.459 7.79413 14.4825 8.04996 14.5399C8.11996 14.5399 8.15996 14.5399 8.22996 14.5399C8.48623 14.5601 8.74369 14.5601 8.99996 14.5399C9.25996 14.5399 9.47996 14.5399 9.73996 14.5399C9.99996 14.5399 10.44 14.5399 10.74 14.6199C11.04 14.6999 11.33 14.6199 11.67 14.6199C11.78 14.6199 11.85 14.5499 11.85 14.3999C11.85 14.2499 11.96 14.3999 12.04 14.3299C11.93 14.3299 11.86 14.2199 11.75 14.1799C11.5345 14.2544 11.3079 14.2917 11.08 14.2899C11.0326 14.2926 10.9852 14.2841 10.9417 14.265C10.8983 14.2458 10.86 14.2167 10.83 14.1799C10.83 14.1799 10.75 14.1799 10.72 14.1099C10.69 14.0399 10.53 14.1799 10.46 14.2199C10.4043 14.1608 10.3403 14.1103 10.27 14.0699C10.1009 14.1582 9.91003 14.1964 9.71996 14.1799C9.52359 14.1951 9.32633 14.1951 9.12996 14.1799C8.9937 14.165 8.85622 14.165 8.71996 14.1799H8.64996H8.60996C8.49996 14.1799 8.49996 14.1799 8.60996 14.3299C8.60153 14.3524 8.60153 14.3773 8.60996 14.3999C8.60996 14.3999 8.60996 14.3999 8.52996 14.3999H8.04996C8.12253 14.3628 8.1871 14.3119 8.23996 14.2499V14.1799C8.23996 14.1799 8.08996 14.0899 7.99996 13.9999ZM10.54 15.2499H12.7C12.9331 15.2348 13.1669 15.2348 13.4 15.2499C13.4591 15.2643 13.5208 15.2643 13.58 15.2499C13.5884 15.2273 13.5884 15.2024 13.58 15.1799C13.51 15.1799 13.47 15.1799 13.4 15.1799L12.26 14.9999H10.49C10.2437 15.0198 9.99622 15.0198 9.74996 14.9999C9.55381 14.9797 9.35611 14.9797 9.15996 14.9999C8.89107 15.0345 8.61885 15.0345 8.34996 14.9999C8.12199 14.9981 7.89539 15.0353 7.67996 15.1099C7.67996 15.1099 7.67996 15.1099 7.67996 15.1799H7.93996H10.52L10.54 15.2499ZM15.6 14.4799C15.4972 14.4513 15.3969 14.4145 15.3 14.3699C15.2144 14.3505 15.1255 14.3505 15.04 14.3699C14.574 14.3343 14.1059 14.3343 13.64 14.3699H13.57C13.57 14.3699 13.49 14.4399 13.49 14.4799C13.49 14.5199 13.49 14.5499 13.57 14.5899C13.65 14.6299 13.68 14.5899 13.75 14.5899C14.31 14.5899 14.9 14.5899 15.45 14.5899C15.46 14.5699 15.5 14.5699 15.58 14.4999L15.6 14.4799ZM12.6 14.4799C12.6 14.4799 12.67 14.4799 12.71 14.4799C12.7292 14.468 12.7454 14.4519 12.7575 14.4329C12.7697 14.4138 12.7773 14.3923 12.78 14.3699C12.7778 14.352 12.7698 14.3354 12.7571 14.3227C12.7444 14.31 12.7278 14.302 12.71 14.2999C12.6692 14.281 12.6249 14.2713 12.58 14.2713C12.5351 14.2713 12.4907 14.281 12.45 14.2999C12.45 14.2999 12.45 14.2999 12.45 14.3699C12.45 14.4399 12.45 14.4399 12.53 14.4799H12.6ZM4.84996 14.3699H4.68996C4.68444 14.3929 4.68444 14.4169 4.68996 14.4399C4.69651 14.4482 4.70486 14.4549 4.71439 14.4595C4.72392 14.4642 4.73437 14.4666 4.74496 14.4666C4.75555 14.4666 4.766 14.4642 4.77553 14.4595C4.78506 14.4549 4.79341 14.4482 4.79996 14.4399C4.81468 14.4244 4.82806 14.4076 4.83996 14.3899L4.84996 14.3699ZM4.25996 14.6299C4.25996 14.6299 4.33996 14.6299 4.25996 14.6299V14.6299ZM13.19 14.3299C13.1801 14.3409 13.1747 14.3551 13.1747 14.3699C13.1747 14.3846 13.1801 14.3989 13.19 14.4099H13.26C13.26 14.4099 13.21 14.3499 13.18 14.3499L13.19 14.3299Z" fill="#1C8A70"/> </svg>