<svg xmlns="http://www.w3.org/2000/svg" fill="none" viewBox="0.53 0.69 46.09 46.09">
<path d="M23.581 45.4866C35.592 45.4866 45.3289 35.7497 45.3289 23.7387C45.3289 11.7276 35.592 1.99072 23.581 1.99072C11.5699 1.99072 1.83301 11.7276 1.83301 23.7387C1.83301 35.7497 11.5699 45.4866 23.581 45.4866Z" fill="#BED73B"/>
<path d="M23.581 46.7855C19.0227 46.7855 14.5669 45.4338 10.7769 42.9014C6.98684 40.369 4.03288 36.7696 2.28852 32.5583C0.544165 28.3471 0.0877624 23.7131 0.977027 19.2425C1.86629 14.7718 4.06129 10.6653 7.28444 7.44215C10.5076 4.219 14.6141 2.02401 19.0848 1.13474C23.5554 0.245477 28.1893 0.70188 32.4006 2.44624C36.6118 4.19059 40.2113 7.14456 42.7437 10.9346C45.2761 14.7246 46.6278 19.1805 46.6278 23.7387C46.6198 29.8486 44.1891 35.706 39.8687 40.0264C35.5483 44.3468 29.6909 46.7775 23.581 46.7855ZM23.581 1.11478C19.104 1.11478 14.7275 2.4425 11.0052 4.92999C7.28281 7.41749 4.38176 10.953 2.66895 15.0894C0.95613 19.2258 0.50849 23.7773 1.38264 28.1681C2.2568 32.559 4.41347 36.5919 7.5799 39.757C10.7463 42.922 14.7803 45.0769 19.1715 45.949C23.5627 46.8212 28.114 46.3716 32.2496 44.6569C36.3852 42.9423 39.9195 40.0396 42.4053 36.3162C44.8912 32.5927 46.2169 28.2157 46.2149 23.7387C46.2069 17.7392 43.8194 11.9878 39.5762 7.74644C35.3329 3.50508 29.5805 1.12011 23.581 1.11478Z" fill="#BED73B"/>
<path d="M26.964 12.5828C24.8496 13.4184 22.5943 14.5965 20.057 15.7443C18.7683 17.3452 18.4561 20.8691 18.134 23.4265L21.6781 18.946L24.8798 22.1478C23.279 24.0709 21.6781 25.3496 22.3224 26.3162C22.9568 26.9505 23.9233 26.6384 24.8798 25.6718C27.7594 23.1144 29.6926 22.1478 29.6926 18.946L34.1831 16.6907V11.2437C31.7207 11.2445 29.2798 11.7019 26.9842 12.5928L26.964 12.5828ZM21.6781 19.9126L18.6575 23.8494C18.5443 23.9806 18.385 24.0632 18.2125 24.08C18.04 24.0969 17.8677 24.0468 17.7312 23.94L12.999 29.8905L18.2749 34.6932H22.0607L29.3503 26.3665L27.397 24.4132C26.7727 24.9469 26.078 25.5107 25.3128 26.1853C24.8584 26.6738 24.2864 27.0377 23.6515 27.2425C23.3417 27.332 23.0138 27.3381 22.7009 27.2603C22.388 27.1825 22.1012 27.0236 21.8694 26.7995C21.8372 26.7706 21.8099 26.7366 21.7888 26.6988C21.667 26.5043 21.5878 26.2861 21.5565 26.0588C21.5253 25.8314 21.5427 25.6 21.6076 25.3798C21.7507 24.9612 21.9691 24.5722 22.252 24.232C22.7151 23.6279 23.3696 22.9332 24.0039 22.2183L21.6781 19.9126ZM12.999 34.9247V36.2034H31.5955V34.9247H12.999Z" fill="white"/>
</svg>