<svg xmlns="http://www.w3.org/2000/svg" fill="none" viewBox="0.29 0.2 46.56 47.57">
<path d="M23.5875 45.5017C29.2239 45.4274 34.6006 43.1202 38.5381 39.0865C42.4756 35.0528 44.6522 29.6219 44.5903 23.9853C44.6495 18.3505 42.4717 12.9222 38.5345 8.89061C34.5973 4.85906 29.2221 2.55333 23.5875 2.479C17.9511 2.55069 12.5733 4.85525 8.63391 8.88709C4.69457 12.9189 2.5154 18.3488 2.57452 23.9853C2.51272 29.6236 4.69069 35.056 8.63033 39.09C12.57 43.124 17.9493 45.43 23.5875 45.5017Z" fill="#BDD63B"/>
<path d="M31.6528 20.0687C31.3784 22.2897 30.3473 24.3484 28.733 25.8983C27.1719 27.2787 25.1476 28.0193 23.0644 27.9724C23.0644 27.8718 23.0644 27.7711 23.0644 27.6704C23.0602 27.1977 22.9959 26.7274 22.8731 26.2709C23.1517 25.8329 23.4907 25.4363 23.8799 25.0928C24.6955 24.3579 25.652 23.8242 26.528 23.1597C25.5211 23.7235 24.5143 24.1665 23.598 24.8613C23.2639 25.0919 22.9506 25.3513 22.6617 25.6365C22.4833 25.2366 22.2494 24.8637 21.9669 24.529C21.895 24.4404 21.8177 24.3563 21.7354 24.2773C21.836 24.0457 21.9367 23.8242 22.0575 23.5926C22.7196 22.4505 23.6942 21.5212 24.8667 20.9144C26.095 20.1996 27.4341 19.7062 28.7229 19.1021C30.0117 18.498 31.0688 17.7831 31.1796 16.3735C31.7227 17.5246 31.8883 18.8179 31.6528 20.0687Z" fill="white"/>
<path d="M22.8828 31.2247C22.1075 29.5634 20.0133 29.6238 16.7813 28.043C13.5493 26.4623 14.4857 20.1795 14.4655 20.391C14.4051 20.9145 16.6907 22.2637 19.5904 23.2907C20.4223 23.5643 21.1684 24.0501 21.7551 24.7003C22.0449 25.0575 22.276 25.4585 22.4398 25.8884C22.5621 26.2139 22.6498 26.5513 22.7016 26.8952C22.7402 27.1586 22.7604 27.4244 22.762 27.6906C22.7656 28.0284 22.7353 28.3657 22.6714 28.6975C22.3998 28.3417 22.1037 28.0052 21.7853 27.6906C21.0621 26.9136 20.1794 26.3022 19.1977 25.8984C19.0933 25.8559 18.9856 25.8222 18.8755 25.7977L19.238 26.0293C19.9728 26.4856 20.649 27.03 21.2517 27.6503C21.4329 27.8517 21.6041 28.0531 21.7551 28.2444C22.4893 29.0625 22.8915 30.1254 22.8828 31.2247Z" fill="white"/>
<path d="M20.7281 10.4435L19.5198 12.5478L18.1102 12.9304L18.9459 11.4704C15.7983 12.5113 13.1688 14.718 11.5978 17.6374C10.0267 20.5567 9.63331 23.9669 10.4985 27.1672L9.49162 27.429C8.55581 23.9618 8.99069 20.2674 10.706 17.1123C12.4214 13.9572 15.2855 11.5835 18.7043 10.4837L17.1839 9.60777L18.6237 9.25537L20.7281 10.4435Z" fill="white"/>
<path d="M38.258 25.8583L37.8854 27.2679L35.7811 28.4761L34.5226 26.3718L34.9052 24.9622L35.7409 26.4221C36.4016 23.1916 35.8118 19.8307 34.0906 17.0181C32.3695 14.2055 29.6451 12.1509 26.4678 11.2691L26.7296 10.2622C30.1936 11.1963 33.168 13.4225 35.0408 16.4827C36.9136 19.5429 37.5425 23.2044 36.798 26.7141L38.258 25.8583Z" fill="white"/>
<path d="M32.9521 33.7115C30.3133 36.334 26.7448 37.807 23.0245 37.8093C21.8074 37.8119 20.5953 37.6528 19.42 37.3361C17.2819 36.7644 15.311 35.6909 13.6709 34.2048V35.9467L12.6641 34.9398V32.4932H15.1006L16.1075 33.5H14.3858C16.8622 35.7032 20.0872 36.8762 23.4004 36.7789C26.7136 36.6816 29.8642 35.3212 32.207 32.9765L32.9521 33.7115Z" fill="white"/>
<path d="M23.5878 47.5155C36.2942 47.5155 46.6044 36.9637 46.6044 23.9854C46.6044 11.0072 36.2942 0.445312 23.5878 0.445312C10.8814 0.445312 0.541016 11.0072 0.541016 23.9854C0.541016 36.9637 10.8814 47.5155 23.5878 47.5155Z" stroke="#BDD63B" stroke-width="0.5"/>
<path d="M23.5872 45.4916C35.1923 45.4916 44.6001 35.8629 44.6001 23.9853C44.6001 12.1077 35.1923 2.479 23.5872 2.479C11.982 2.479 2.57422 12.1077 2.57422 23.9853C2.57422 35.8629 11.982 45.4916 23.5872 45.4916Z" stroke="#BDD63B" stroke-width="1.5"/>
</svg>