<svg xmlns="http://www.w3.org/2000/svg" fill="none" viewBox="0.35 0.08 46.09 46.09">
<path d="M23.3954 44.8772C35.4065 44.8772 45.1434 35.1404 45.1434 23.1293C45.1434 11.1182 35.4065 1.38135 23.3954 1.38135C11.3843 1.38135 1.64746 11.1182 1.64746 23.1293C1.64746 35.1404 11.3843 44.8772 23.3954 44.8772Z" fill="#BED73B"/>
<path d="M23.3954 46.1761C18.8372 46.1761 14.3813 44.8244 10.5913 42.292C6.8013 39.7596 3.84733 36.1602 2.10297 31.9489C0.358619 27.7377 -0.0977845 23.1037 0.791481 18.6331C1.68075 14.1625 3.87574 10.0559 7.09889 6.83278C10.322 3.60963 14.4286 1.41463 18.8992 0.525367C23.3699 -0.363898 28.0038 0.0925053 32.215 1.83686C36.4263 3.58122 40.0257 6.53518 42.5581 10.3252C45.0905 14.1152 46.4422 18.5711 46.4422 23.1293C46.4342 29.2392 44.0035 35.0966 39.6831 39.417C35.3628 43.7374 29.5054 46.1681 23.3954 46.1761ZM23.3954 0.505407C18.9184 0.505407 14.542 1.83312 10.8196 4.32062C7.09726 6.80812 4.19621 10.3437 2.4834 14.4801C0.770583 18.6165 0.322943 23.1679 1.1971 27.5588C2.07125 31.9496 4.22793 35.9826 7.39435 39.1476C10.5608 42.3126 14.5947 44.4675 18.9859 45.3397C23.3772 46.2119 27.9284 45.7622 32.064 44.0476C36.1997 42.3329 39.7339 39.4303 42.2198 35.7068C44.7056 31.9834 46.0314 27.6063 46.0294 23.1293C46.0214 17.1298 43.6339 11.3784 39.3906 7.13707C35.1474 2.89571 29.3949 0.510734 23.3954 0.505407Z" fill="#BED73B"/>
<path d="M15.4502 26.3613C15.7422 26.5123 16.0543 26.6532 16.3665 26.7841L20.2227 24.3375L22.0652 26.9956L28.2372 22.7366C27.3008 22.4345 26.1732 22.3238 25.2167 22.062C24.9146 21.9714 24.4414 21.7801 24.3508 21.5183C24.2602 21.2565 24.3508 20.9545 24.2904 20.6524C24.8044 19.9597 25.1492 19.1563 25.2972 18.3065C25.5005 18.1362 25.6682 17.9275 25.7906 17.6923C25.8711 17.5211 26.1732 16.8566 26.0725 16.6854C26.0065 16.5934 25.9204 16.5177 25.8208 16.4639C26.3745 13.8562 24.4213 12.0942 21.9142 12.2654C21.4067 12.2771 20.9084 12.4039 20.457 12.6362C20.0057 12.8686 19.6129 13.2004 19.3085 13.6066C19.0041 14.0129 18.7958 14.483 18.6996 14.9814C18.6033 15.4799 18.6214 15.9937 18.7527 16.4841C18.6825 16.4822 18.6135 16.5026 18.5556 16.5424C18.4977 16.5822 18.4539 16.6393 18.4305 16.7056C18.3298 16.9069 18.6117 17.4406 18.7124 17.652C18.7829 17.7983 18.8783 17.9311 18.9943 18.0447C19.0913 18.1463 19.1727 18.2617 19.236 18.387C19.3117 18.6204 19.3689 18.8595 19.4071 19.1019C19.5438 19.533 19.7332 19.9455 19.971 20.3302C20.1007 20.5047 20.2152 20.69 20.3133 20.884C20.372 21.0982 20.372 21.3242 20.3133 21.5385C20.122 22.0217 18.9843 22.2231 18.2996 22.3842C16.4168 22.8574 14.4132 22.9883 14.5239 25.4048C14.5239 25.8176 14.5239 25.7169 14.6951 25.9787C14.927 26.1421 15.1813 26.271 15.4502 26.3613Z" fill="white"/>
<path d="M28.6306 20.562L29.869 22.3542L21.8847 27.8717L20.0321 25.1835L11.8867 30.3587L13.5984 32.8456L19.277 29.4021L21.1195 32.0602L31.5807 24.8311L32.8191 26.6232L34.9838 20.6526L28.6306 20.562Z" fill="white"/>
</svg>