<svg xmlns="http://www.w3.org/2000/svg" fill="none" viewBox="0.35 0.47 46.09 46.09">
<path d="M23.3954 45.2605C35.4065 45.2605 45.1434 35.5237 45.1434 23.5126C45.1434 11.5015 35.4065 1.76465 23.3954 1.76465C11.3843 1.76465 1.64746 11.5015 1.64746 23.5126C1.64746 35.5237 11.3843 45.2605 23.3954 45.2605Z" fill="#BED73B"/>
<path d="M23.3954 46.5594C18.8372 46.5594 14.3813 45.2077 10.5913 42.6753C6.8013 40.1429 3.84733 36.5435 2.10297 32.3322C0.358619 28.121 -0.0977845 23.487 0.791481 19.0164C1.68075 14.5458 3.87574 10.4392 7.09889 7.21608C10.322 3.99293 14.4286 1.79793 18.8992 0.908668C23.3699 0.019403 28.0038 0.475806 32.215 2.22016C36.4263 3.96452 40.0257 6.91848 42.5581 10.7085C45.0905 14.4985 46.4422 18.9544 46.4422 23.5126C46.4342 29.6225 44.0035 35.4799 39.6831 39.8003C35.3628 44.1207 29.5054 46.5514 23.3954 46.5594ZM23.3954 0.888707C18.9184 0.888708 14.542 2.21642 10.8196 4.70392C7.09726 7.19142 4.19621 10.727 2.4834 14.8634C0.770583 18.9998 0.322943 23.5512 1.1971 27.9421C2.07125 32.3329 4.22793 36.3659 7.39435 39.5309C10.5608 42.6959 14.5947 44.8508 18.9859 45.723C23.3772 46.5952 27.9284 46.1455 32.064 44.4309C36.1997 42.7162 39.7339 39.8136 42.2198 36.0901C44.7056 32.3667 46.0314 27.9896 46.0294 23.5126C46.0214 17.5131 43.6339 11.7617 39.3906 7.52037C35.1474 3.27901 29.3949 0.894035 23.3954 0.888707Z" fill="#BED73B"/>
<path d="M13.1654 25.8386C12.9962 25.8386 12.8307 25.8887 12.69 25.9828C12.5492 26.0768 12.4395 26.2105 12.3748 26.3669C12.31 26.5232 12.293 26.6953 12.3261 26.8613C12.3591 27.0274 12.4406 27.1798 12.5603 27.2995C12.68 27.4192 12.8325 27.5007 12.9985 27.5338C13.1645 27.5668 13.3366 27.5498 13.4929 27.4851C13.6493 27.4203 13.783 27.3106 13.877 27.1698C13.9711 27.0291 14.0213 26.8636 14.0213 26.6944C14.0213 26.4674 13.9311 26.2497 13.7706 26.0892C13.6101 25.9287 13.3924 25.8386 13.1654 25.8386ZM16.0148 24.288V28.406C16.0148 29.5941 19.569 31.2554 23.979 31.2554C28.389 31.2554 31.9532 29.5941 31.9532 28.406V24.288L24.1904 27.2179C24.0574 27.2682 23.9106 27.2682 23.7776 27.2179L16.0148 24.288ZM12.5915 22.9992V25.3955C12.7723 25.3156 12.9678 25.2744 13.1654 25.2744C13.3631 25.2744 13.5586 25.3156 13.7393 25.3955V23.3818L12.5915 22.9992ZM23.979 17.0186L11.1719 21.8615L23.979 26.6944L36.7861 21.8615L23.979 17.0186Z" fill="white"/>
</svg>