<svg xmlns="http://www.w3.org/2000/svg" fill="none" viewBox="0.35 0.7 46.09 46.09">
<path d="M23.3954 45.493C35.4065 45.493 45.1434 35.7561 45.1434 23.745C45.1434 11.734 35.4065 1.99707 23.3954 1.99707C11.3843 1.99707 1.64746 11.734 1.64746 23.745C1.64746 35.7561 11.3843 45.493 23.3954 45.493Z" fill="#BED73B"/>
<path d="M23.3954 46.7918C18.8372 46.7918 14.3813 45.4401 10.5913 42.9077C6.8013 40.3753 3.84733 36.7759 2.10297 32.5647C0.358619 28.3534 -0.0977845 23.7195 0.791481 19.2488C1.68075 14.7782 3.87574 10.6716 7.09889 7.4485C10.322 4.22535 14.4286 2.03036 18.8992 1.14109C23.3699 0.251825 28.0038 0.708228 32.215 2.45258C36.4263 4.19694 40.0257 7.1509 42.5581 10.9409C45.0905 14.731 46.4422 19.1868 46.4422 23.745C46.4342 29.855 44.0035 35.7124 39.6831 40.0327C35.3628 44.3531 29.5054 46.7838 23.3954 46.7918ZM23.3954 1.12113C18.9184 1.12113 14.542 2.44884 10.8196 4.93634C7.09726 7.42384 4.19621 10.9594 2.4834 15.0958C0.770583 19.2322 0.322943 23.7836 1.1971 28.1745C2.07125 32.5653 4.22793 36.5983 7.39435 39.7633C10.5608 42.9283 14.5947 45.0832 18.9859 45.9554C23.3772 46.8276 27.9284 46.3779 32.064 44.6633C36.1997 42.9486 39.7339 40.046 42.2198 36.3225C44.7056 32.5991 46.0314 28.222 46.0294 23.745C46.0214 17.7455 43.6339 11.9942 39.3906 7.75279C35.1474 3.51143 29.3949 1.12646 23.3954 1.12113Z" fill="#BED73B"/>
<path d="M29.5465 13.5054C20.2533 15.2271 20.8876 22.1542 11.6045 23.8759L17.5852 34.2465C26.8683 32.5248 26.234 25.5976 35.5272 23.8759L29.5465 13.5054ZM28.2678 16.4353C29.4157 18.3987 30.6944 20.6339 31.7113 22.3455C29.0575 23.4617 26.6871 25.1578 24.7741 27.3093C23.1916 29.1633 21.1501 30.5694 18.8538 31.387C17.9678 29.8969 16.6287 27.5006 15.4507 25.4667C18.105 24.3514 20.4755 22.6552 22.3878 20.503C24.0995 18.7813 25.5695 17.2609 28.2981 16.4756" fill="white"/>
<path d="M25.9526 22.5368C27.1507 24.5505 27.0803 26.8763 25.8016 27.5711C24.5229 28.2658 22.5192 27.2287 21.3211 25.1546C20.1229 23.0805 20.2035 20.8352 21.4922 20.1204C22.781 19.4055 24.7746 20.4627 25.9627 22.5368" fill="white"/>
</svg>