<svg xmlns="http://www.w3.org/2000/svg" fill="none" viewBox="0.35 0.32 46.09 46.09">
<path d="M23.3954 45.1101C35.4065 45.1101 45.1434 35.3733 45.1434 23.3622C45.1434 11.3511 35.4065 1.61426 23.3954 1.61426C11.3843 1.61426 1.64746 11.3511 1.64746 23.3622C1.64746 35.3733 11.3843 45.1101 23.3954 45.1101Z" fill="#BED73B"/>
<path d="M23.3954 46.409C18.8372 46.409 14.3813 45.0573 10.5913 42.5249C6.8013 39.9925 3.84733 36.3931 2.10297 32.1818C0.358619 27.9706 -0.0977845 23.3367 0.791481 18.866C1.68075 14.3954 3.87574 10.2888 7.09889 7.06569C10.322 3.84254 14.4286 1.64754 18.8992 0.758277C23.3699 -0.130988 28.0038 0.325415 32.215 2.06977C36.4263 3.81413 40.0257 6.76809 42.5581 10.5581C45.0905 14.3481 46.4422 18.804 46.4422 23.3622C46.4342 29.4722 44.0035 35.3295 39.6831 39.6499C35.3628 43.9703 29.5054 46.401 23.3954 46.409ZM23.3954 0.738317C18.9184 0.738317 14.542 2.06603 10.8196 4.55353C7.09726 7.04103 4.19621 10.5766 2.4834 14.713C0.770583 18.8494 0.322943 23.4008 1.1971 27.7917C2.07125 32.1825 4.22793 36.2155 7.39435 39.3805C10.5608 42.5455 14.5947 44.7004 18.9859 45.5726C23.3772 46.4448 27.9284 45.9951 32.064 44.2805C36.1997 42.5658 39.7339 39.6632 42.2198 35.9397C44.7056 32.2163 46.0314 27.8392 46.0294 23.3622C46.0214 17.3627 43.6339 11.6113 39.3906 7.36998C35.1474 3.12862 29.3949 0.743644 23.3954 0.738317Z" fill="#BED73B"/>
<path d="M18.4725 27.6513C18.4725 27.8703 18.3855 28.0803 18.2307 28.2351C18.0759 28.3899 17.8659 28.4769 17.6469 28.4769C17.4279 28.4769 17.2179 28.3899 17.0631 28.2351C16.9083 28.0803 16.8213 27.8703 16.8213 27.6513C16.8213 27.4323 16.9083 27.2223 17.0631 27.0675C17.2179 26.9127 17.4279 26.8257 17.6469 26.8257C17.8659 26.8257 18.0759 26.9127 18.2307 27.0675C18.3855 27.2223 18.4725 27.4323 18.4725 27.6513Z" fill="white"/>
<path d="M31.4301 27.9834C31.128 28.1948 30.8461 28.3962 30.5742 28.5674C29.9198 29.0104 29.8594 29.242 29.8594 29.252C29.8726 29.2969 29.8895 29.3407 29.9097 29.3829C30.2508 29.4318 30.5678 29.5868 30.8159 29.8259C30.9646 29.9754 31.0822 30.153 31.1617 30.3483C31.2412 30.5436 31.2811 30.7528 31.279 30.9637C31.2777 31.1379 31.2506 31.3109 31.1985 31.4772C31.3634 31.4196 31.5374 31.3923 31.712 31.3966C31.8981 31.394 32.0829 31.4282 32.2557 31.4973C33.6553 29.973 34.6399 28.1147 35.1151 26.1006C34.1083 26.1006 32.749 27.047 31.4301 27.9834Z" fill="white"/>
<path d="M30.202 32.4744C30.034 32.5345 29.8568 32.5651 29.6784 32.565C29.4668 32.5657 29.2572 32.5243 29.0619 32.443C28.8665 32.3618 28.6893 32.2423 28.5407 32.0918C28.4269 31.9763 28.3318 31.8438 28.2587 31.6991C28.1405 31.9937 28.079 32.308 28.0775 32.6254C26.6244 33.3661 25.0166 33.7525 23.3856 33.7531C22.4032 33.7492 21.4265 33.6033 20.4859 33.3201C21.2813 32.122 22.8922 30.8836 24.0199 29.2927C24.6368 28.5532 25.0252 27.6502 25.1378 26.6937C25.2505 25.7373 25.0824 24.7687 24.6542 23.9061C24.3234 23.1299 23.8133 22.4433 23.1657 21.9024C22.5182 21.3616 21.7516 20.9821 20.9289 20.7949C19.3079 20.2915 19.5394 23.6242 18.6232 22.8992C18.1351 22.2325 17.8359 21.4464 17.7573 20.6238C17.8501 20.5477 17.9285 20.4556 17.9889 20.3519C18.6232 19.1739 19.7207 17.9657 20.6369 16.3245C20.8454 15.8608 20.9404 15.3541 20.9141 14.8463C20.8879 14.3386 20.7411 13.8444 20.4859 13.4046C21.4427 13.1166 22.4367 12.9707 23.4359 12.9717C23.7581 12.9717 24.0803 12.9717 24.3924 12.9717C23.1943 14.4216 22.56 16.2742 25.9933 16.8078C27.0107 17.0746 27.9234 17.6432 28.6111 18.4389C29.1548 19.4457 28.7622 20.9258 33.3735 20.4526C33.6445 21.3886 33.7834 22.3578 33.7863 23.3322C33.7863 23.4631 33.7863 23.5839 33.7863 23.7047C32.3466 23.2114 29.5274 22.4562 29.3864 24.0068C29.2757 25.3157 29.1246 26.0205 29.1347 26.6246L29.2555 26.544L29.9905 26.0305H30.0509C31.5209 25.0237 33.3534 23.6946 35.2161 23.6946H35.4376C35.4376 23.5839 35.4376 23.4731 35.4376 23.3624C35.5071 21.6545 35.2135 19.9513 34.5761 18.3653C33.9387 16.7793 32.9721 15.3466 31.74 14.1619C30.508 12.9771 29.0385 12.0672 27.4288 11.4924C25.8191 10.9175 24.1057 10.6907 22.4019 10.8271C20.6981 10.9634 19.0425 11.4596 17.5447 12.2831C16.0468 13.1066 14.7407 14.2385 13.7127 15.604C12.6847 16.9696 11.9581 18.5378 11.581 20.2049C11.2038 21.8721 11.1847 23.6003 11.5249 25.2754C12.105 25.5836 12.7203 25.8203 13.3574 25.9802C13.1303 25.1261 13.0153 24.2461 13.015 23.3624C13.0135 22.6689 13.0844 21.9771 13.2265 21.2983C14.2333 21.2178 15.2402 21.248 16.1262 21.1675C16.6819 22.2312 16.8763 23.447 16.68 24.631C17.1568 24.4726 17.6644 24.4301 18.1609 24.507C18.6574 24.584 19.1284 24.7781 19.5349 25.0734C19.9413 25.3686 20.2716 25.7565 20.4983 26.2049C20.7249 26.6532 20.8415 27.1492 20.8383 27.6516C20.8383 27.7825 20.8383 27.9033 20.8383 28.0241C20.6671 29.4639 19.036 31.0446 18.2708 32.3737C16.6928 31.4818 15.3743 30.1944 14.4448 28.6383C13.7642 28.5413 13.0913 28.3966 12.4311 28.2053C13.1492 29.8072 14.2078 31.2334 15.5332 32.3846C16.8585 33.5358 18.4188 34.3843 20.1055 34.8711C21.7922 35.358 23.5647 35.4714 25.2996 35.2035C27.0346 34.9357 28.6903 34.293 30.1516 33.3201C30.0711 33.044 30.0711 32.7505 30.1516 32.4744H30.202Z" fill="white"/>
<path d="M38.2767 22.6171C38.0327 22.18 37.6863 21.8087 37.2671 21.5351C36.8479 21.2615 36.3686 21.0938 35.8703 21.0464C35.9451 21.4257 35.9989 21.8089 36.0314 22.1942C36.29 22.2426 36.5352 22.3458 36.7505 22.4969C36.9659 22.648 37.1464 22.8435 37.2799 23.0702C37.3655 23.3785 37.3763 23.7029 37.3115 24.0163C37.2468 24.3298 37.1082 24.6232 36.9073 24.8724C34.8332 23.4326 32.306 25.2147 30.4132 26.5539L29.5976 27.1177C29.2195 27.3131 28.8902 27.591 28.634 27.9308C28.3778 28.2707 28.2013 28.6638 28.1175 29.081C28.1035 29.3921 28.1535 29.7027 28.2643 29.9936C28.3751 30.2846 28.5445 30.5497 28.7619 30.7726C28.7193 30.9705 28.7421 31.177 28.8267 31.361C28.9114 31.5449 29.0535 31.6965 29.2315 31.7929C29.4096 31.8893 29.6142 31.9254 29.8145 31.8958C30.0149 31.8661 30.2002 31.7723 30.3427 31.6284C30.4316 31.542 30.5023 31.4387 30.5505 31.3246C30.5988 31.2104 30.6237 31.0878 30.6237 30.9639C30.6237 30.8399 30.5988 30.7173 30.5505 30.6031C30.5023 30.489 30.4316 30.3857 30.3427 30.2993C30.2425 30.1958 30.1188 30.1179 29.9821 30.0723C29.8453 30.0267 29.6996 30.0148 29.5573 30.0376C29.3411 29.8037 29.2161 29.5 29.2049 29.1817C29.2049 28.8394 29.5775 28.4467 30.2118 28.0239L31.0475 27.4499C33.3532 25.8189 35.236 24.671 36.6154 26.0605C37.9947 27.4499 36.857 29.3126 35.2259 31.6284C35.0145 31.9204 34.8232 32.2023 34.6419 32.4641C34.2191 33.0984 33.8364 33.4709 33.4841 33.4709C33.3268 33.4711 33.171 33.44 33.0258 33.3795C32.8807 33.319 32.7489 33.2303 32.6383 33.1185C32.6642 32.9244 32.6286 32.727 32.5364 32.5542C32.4443 32.3814 32.3003 32.2418 32.1246 32.1551C31.949 32.0684 31.7507 32.0389 31.5574 32.0709C31.3642 32.1028 31.1858 32.1946 31.0475 32.3332C30.9586 32.4195 30.8879 32.5228 30.8396 32.6369C30.7914 32.7511 30.7665 32.8738 30.7665 32.9977C30.7665 33.1216 30.7914 33.2443 30.8396 33.3584C30.8879 33.4726 30.9586 33.5759 31.0475 33.6622C31.1575 33.7731 31.2932 33.855 31.4425 33.9006C31.5918 33.9463 31.7501 33.9543 31.9033 33.924C32.357 34.3431 32.9573 34.5673 33.5747 34.5482C34.0007 34.4708 34.4035 34.2972 34.7524 34.0407C35.1014 33.7843 35.3872 33.4517 35.5884 33.0682L36.1522 32.2627C37.5115 30.3295 39.3439 27.7319 37.743 25.6477C38.0931 25.2376 38.3294 24.7428 38.4284 24.2127C38.5273 23.6827 38.4854 23.1359 38.3069 22.6271L38.2767 22.6171Z" fill="white"/>
<path d="M8.72584 22.2544C8.50834 22.5781 8.3735 22.9502 8.33313 23.3381C8.29276 23.726 8.34809 24.1179 8.49426 24.4795C8.75605 25.2346 9.9844 27.5 15.1596 28.0236C15.2539 28.6473 15.5753 29.2142 16.0622 29.6154C16.5491 30.0165 17.167 30.2235 17.7973 30.1966C18.4275 30.1697 19.0256 29.9108 19.4766 29.4697C19.9275 29.0286 20.1995 28.4364 20.2403 27.8069C20.2811 27.1774 20.0878 26.555 19.6976 26.0594C19.3073 25.5638 18.7477 25.2299 18.1262 25.1219C17.5047 25.0139 16.8652 25.1394 16.3306 25.4743C15.796 25.8092 15.4041 26.3298 15.2301 26.9362C10.5986 26.4328 9.68235 24.5399 9.53132 24.117C9.43826 23.9151 9.39777 23.6929 9.41361 23.4711C9.42946 23.2493 9.50112 23.0351 9.62194 22.8484C9.91131 22.4944 10.3126 22.2494 10.7597 22.1537C10.7597 21.761 10.8503 21.3784 10.9208 21.0059C10.4932 21.0521 10.079 21.1827 9.70228 21.3901C9.32552 21.5975 8.99364 21.8776 8.72584 22.2141V22.2544ZM17.6465 26.3321C17.9074 26.3321 18.1624 26.4095 18.3793 26.5544C18.5962 26.6993 18.7653 26.9053 18.8651 27.1463C18.9649 27.3873 18.991 27.6525 18.9402 27.9084C18.8893 28.1642 18.7636 28.3993 18.5792 28.5837C18.3947 28.7682 18.1597 28.8938 17.9038 28.9447C17.648 28.9956 17.3828 28.9695 17.1418 28.8696C16.9008 28.7698 16.6948 28.6008 16.5498 28.3838C16.4049 28.1669 16.3276 27.9119 16.3276 27.6511C16.3276 27.3013 16.4665 26.9658 16.7139 26.7184C16.9612 26.4711 17.2967 26.3321 17.6465 26.3321Z" fill="white"/>
</svg>