<svg width="50" height="60" viewBox="0 0 50 60" fill="none" xmlns="http://www.w3.org/2000/svg">
<path d="M15.2698 18.9345L15.7279 17.1239L16.186 14.3645C16.1969 14.2919 16.2254 14.223 16.2692 14.1641C16.3129 14.1051 16.3705 14.0578 16.4369 14.0264L18.2801 13.0884C18.3821 13.0498 18.4945 13.0498 18.5964 13.0884L20.2761 13.5028L22.2503 12.314L22.6538 9.93628L21.5086 8.3875H19.6326L18.3456 9.64179C18.2933 9.69705 18.2279 9.73807 18.1553 9.76098C18.0828 9.78388 18.0056 9.78791 17.9311 9.77268L15.6407 9.31459H12.8921C12.7891 9.31551 12.689 9.28083 12.6086 9.21642L11.5179 8.34387C11.4415 8.52929 11.3652 8.7038 11.2997 8.88922V8.95466C11.2452 9.11826 11.1907 9.28187 11.147 9.44547C11.1034 9.60907 11.147 9.54363 11.147 9.59817L11.038 10.0017L10.9071 10.2526C10.9071 10.3617 10.8525 10.4707 10.8307 10.5798C10.8089 10.6889 10.8307 10.7979 10.7762 10.907C10.7217 11.0161 10.7762 11.0924 10.7762 11.1797C10.7762 11.2669 10.7762 11.4305 10.7762 11.5614V11.7905V12.2267C10.7762 12.2922 10.7762 12.3576 10.7762 12.4231C10.7762 12.4885 10.7762 12.8266 10.7762 13.0448C10.7762 13.2629 10.7762 13.7101 10.7762 14.0373C10.7762 14.0918 10.7762 14.1464 10.7762 14.2009C10.7762 14.5208 10.8198 14.8371 10.9071 15.1498V15.3025C10.9725 15.6297 11.0489 15.9569 11.1361 16.2732C11.1361 16.2732 11.1361 16.2732 11.1361 16.3277C11.2343 16.6549 11.3324 16.9821 11.4524 17.2984C11.4524 17.2984 11.4524 17.2984 11.4524 17.353C11.5724 17.6802 11.7142 17.9965 11.856 18.3019V18.4C12.0087 18.7163 12.1723 19.0217 12.3468 19.3271V19.3817C12.7279 20.0308 13.162 20.6473 13.6447 21.2249L14.4082 20.6578L15.2698 18.9345Z" fill="#BED73B"/>
<path d="M18.8477 4.19915H18.9458C19.0034 4.18769 19.0627 4.18769 19.1203 4.19915L21.3017 5.06079L22.7087 4.50454L21.04 3.19571L18.7822 2.30134C18.7222 2.27406 18.6669 2.23723 18.6186 2.19227L17.866 1.4397C16.5204 2.14309 15.3005 3.06446 14.2559 4.16643L14.9757 5.06079L18.8477 4.19915Z" fill="#BED73B"/>
<path d="M27.8021 20.025H29.2964L29.6781 18.5417C29.6977 18.4595 29.7392 18.3841 29.7981 18.3235L30.8888 17.2328L30.1689 16.1421L30.1144 16.0222L29.7326 14.866L28.4129 14.5388L27.2677 16.1094C27.1995 16.2061 27.0959 16.2719 26.9794 16.2924C26.8628 16.3128 26.743 16.2862 26.646 16.2185L25.4462 15.4332L23.7229 16.1203L24.0938 17.5818C24.1105 17.6447 24.1133 17.7104 24.102 17.7745C24.0907 17.8385 24.0655 17.8993 24.0283 17.9527C23.9934 18.0077 23.9471 18.0547 23.8926 18.0905C23.838 18.1262 23.7765 18.1499 23.712 18.1599L21.3125 18.5635V19.0979H23.1776C23.2496 19.0975 23.3207 19.114 23.3852 19.1463C23.4496 19.1785 23.5055 19.2254 23.5484 19.2833L24.9445 21.1484C25.0004 21.2263 25.0305 21.3197 25.0305 21.4156C25.0305 21.5115 25.0004 21.605 24.9445 21.6828L24.2246 22.7735L25.8171 24.3659C25.8812 24.4329 25.9263 24.5157 25.9479 24.6059L26.177 25.8057C26.7288 25.6913 27.2718 25.5382 27.8021 25.3476L27.4749 25.0313C27.4317 24.9864 27.3979 24.9334 27.3755 24.8754C27.353 24.8173 27.3423 24.7554 27.344 24.6932V20.494C27.344 20.3696 27.3934 20.2503 27.4814 20.1624C27.5693 20.0744 27.6886 20.025 27.813 20.025H27.8021Z" fill="#BED73B"/>
<path d="M36.6253 12.3466C36.6253 12.2812 36.6253 12.2157 36.6253 12.1394C36.6253 12.063 36.6253 11.8122 36.6253 11.6486C36.6199 11.5723 36.6199 11.4958 36.6253 11.4195C36.6253 11.2668 36.6253 11.1141 36.5489 10.9505C36.4726 10.7869 36.5489 10.7978 36.5489 10.7215L36.4508 10.2634C36.4508 10.187 36.4508 10.1107 36.4508 10.0343L36.3199 9.58716L36.2544 9.35811C36.2544 9.20542 36.1563 9.05272 36.1017 8.90002L35.84 8.72551C35.7636 8.51828 35.6873 8.31105 35.6 8.11472C35.568 8.05964 35.5424 8.00109 35.5237 7.94021L35.2946 7.47122C35.2946 7.37305 35.1965 7.2858 35.1419 7.18764L34.9783 6.87134L34.7929 6.54413L34.6184 6.26055L34.4221 5.96606C34.3618 5.86807 34.2963 5.77341 34.2258 5.68248L34.0294 5.45344L33.8113 5.0717L33.6477 4.86446C33.495 4.68268 33.3423 4.50817 33.1896 4.34093C33.1633 4.30916 33.1341 4.27995 33.1023 4.25368L32.677 3.8174L32.5679 3.70833L32.0771 3.27206H31.9898C31.8153 3.10845 31.6299 2.95575 31.4445 2.81396L30.3538 3.27206C30.2968 3.28842 30.2363 3.28842 30.1793 3.27206H26.9727L27.2671 4.84265L28.4996 5.67158C28.5875 5.72752 28.6531 5.81239 28.685 5.91153L29.1322 7.24217L29.8848 8.3874H31.0409C31.1305 8.38579 31.2183 8.41251 31.2918 8.46375L34.0949 10.3288C34.1622 10.3703 34.2154 10.4311 34.2476 10.5033L34.7166 11.4304C34.7409 11.4873 34.7534 11.5485 34.7534 11.6104C34.7534 11.6722 34.7409 11.7335 34.7166 11.7904L34.2476 13.1864C34.2247 13.2616 34.1824 13.3294 34.1249 13.383C34.0675 13.4366 33.9969 13.4742 33.9204 13.4918L32.2625 13.9063V13.9717H36.2981C36.3939 13.8798 36.5 13.7993 36.6144 13.7318C36.6144 13.6554 36.6144 13.59 36.6144 13.5136C36.6144 13.4373 36.6144 13.1973 36.6144 13.0446C36.6144 12.892 36.6144 12.5757 36.6144 12.3466H36.6253Z" fill="#BED73B"/>
<path d="M31.1289 14.6807C31.0886 14.6131 31.0673 14.5358 31.0673 14.4571C31.0673 14.3784 31.0886 14.3011 31.1289 14.2335L31.5979 13.2955C31.6282 13.2356 31.6712 13.183 31.724 13.1416C31.7767 13.1001 31.838 13.0708 31.9033 13.0556L33.5176 12.652L33.8448 11.6813L33.5176 11.0269L30.9217 9.3145H29.6565C29.5807 9.31425 29.5061 9.29518 29.4395 9.25901C29.3729 9.22284 29.3163 9.1707 29.2748 9.10727L28.3586 7.71119C28.3509 7.67523 28.3509 7.63807 28.3586 7.60212L27.9441 6.34782L26.6135 5.50799C26.5088 5.44045 26.4345 5.33484 26.4063 5.2135L25.9482 2.89033C25.9306 2.82188 25.9304 2.75014 25.9476 2.68158C25.9647 2.61303 25.9986 2.54983 26.0463 2.49768C26.0898 2.44465 26.1448 2.40231 26.2072 2.37394C26.2696 2.34558 26.3377 2.33194 26.4063 2.33408H30.0383L30.54 2.18138C28.4882 0.796898 26.0781 0.0389945 23.6032 0C21.937 0.00699228 20.2895 0.352071 18.7605 1.01434L19.2077 1.46153L21.4545 2.3668L21.5745 2.44315L23.8977 4.30823C23.9617 4.35746 24.0115 4.42274 24.0422 4.49744C24.0728 4.57214 24.0832 4.65361 24.0722 4.7336C24.0565 4.81454 24.0216 4.8905 23.9703 4.95506C23.9191 5.01962 23.853 5.07086 23.7777 5.10444L21.4545 6.03152C21.3423 6.07533 21.2177 6.07533 21.1055 6.03152L18.9241 5.15897L14.8667 6.05334H14.7686C14.6993 6.05336 14.6309 6.03767 14.5686 6.00744C14.5062 5.97722 14.4515 5.93324 14.4087 5.87883L13.6124 4.8863C12.9521 5.68056 12.3848 6.54786 11.9219 7.47124L13.0889 8.38742H15.8156L17.8989 8.81279L19.0877 7.63484C19.1739 7.54634 19.2914 7.49539 19.4149 7.49305H21.749C21.8206 7.49503 21.8909 7.51265 21.955 7.54468C22.019 7.57671 22.0753 7.62237 22.1198 7.67847L23.5159 9.54355C23.5547 9.59416 23.5825 9.65232 23.5975 9.7143C23.6126 9.77628 23.6145 9.84071 23.6032 9.90348L23.1342 12.6956C23.123 12.7625 23.0978 12.8262 23.0602 12.8826C23.0226 12.939 22.9734 12.9868 22.916 13.0229L20.582 14.4189C20.4697 14.4627 20.3452 14.4627 20.2329 14.4189L18.5424 14.0045L17.0372 14.7461L16.6118 17.3093L16.1428 19.2071V19.3052L15.2049 21.1703C15.1738 21.2338 15.1291 21.2897 15.074 21.3339L14.2778 21.9229C15.4783 23.2089 16.9257 24.2398 18.5336 24.9538C20.1415 25.6678 21.8768 26.0503 23.6359 26.0784C24.1872 26.0823 24.7379 26.0422 25.2828 25.9585L25.0756 24.8678L23.3087 23.1008C23.2315 23.025 23.1836 22.9242 23.1736 22.8163C23.1636 22.7085 23.1922 22.6007 23.2542 22.5119L23.9958 21.4212L22.9051 20.0033H20.811C20.6866 20.0033 20.5673 19.9539 20.4794 19.8659C20.3914 19.778 20.342 19.6587 20.342 19.5343V18.16C20.3452 18.0503 20.3859 17.9449 20.4573 17.8615C20.5288 17.7782 20.6267 17.7218 20.7347 17.7019L23.036 17.3202L22.687 15.9459C22.6607 15.8361 22.6749 15.7205 22.727 15.6203C22.7791 15.5201 22.8656 15.4421 22.9706 15.4006L25.2937 14.4735C25.3613 14.439 25.4361 14.421 25.5119 14.421C25.5877 14.421 25.6625 14.439 25.73 14.4735L26.7553 15.1606L27.846 13.6445C27.9096 13.5756 27.9925 13.5272 28.0839 13.5058C28.1752 13.4845 28.271 13.491 28.3586 13.5246L30.2237 13.9827C30.2989 14.0031 30.368 14.0417 30.4251 14.0949C30.4821 14.1481 30.5253 14.2144 30.5509 14.2881L30.9981 15.6296L31.8924 16.9712C31.951 17.0619 31.9764 17.17 31.9645 17.2773C31.9526 17.3846 31.904 17.4845 31.827 17.5601L30.54 18.869L30.1037 20.6032C30.0774 20.7051 30.0183 20.7955 29.9355 20.8606C29.8527 20.9256 29.7509 20.9616 29.6456 20.9631H28.2604V24.486L28.7294 24.955C30.7457 24.0391 32.5074 22.644 33.861 20.8912C35.2145 19.1384 36.1189 17.0812 36.4951 14.8988H31.5216C31.4427 14.9003 31.3649 14.881 31.2959 14.8427C31.2269 14.8043 31.1693 14.7485 31.1289 14.6807Z" fill="#004357"/>
<path d="M37.0836 33.8114C37.0776 34.2032 36.9749 34.5874 36.7847 34.9299C36.5944 35.2724 36.3224 35.5626 35.9929 35.7747L33.8115 33.8987L36.8764 32.808C36.9846 33.1332 37.0542 33.47 37.0836 33.8114Z" fill="#004357"/>
<path d="M49.4195 46.3652L44.4787 47.9903L40.6504 36.1454L45.8094 34.5203L49.4195 46.3652Z" fill="#004357"/>
<path d="M22.4139 57.1085V59.0609C22.4202 59.1857 22.4002 59.3105 22.3553 59.4271C22.3103 59.5437 22.2415 59.6497 22.1531 59.738C22.0647 59.8264 21.9588 59.8953 21.8422 59.9402C21.7255 59.9852 21.6008 60.0051 21.4759 59.9989H21.3014C21.0526 59.9989 20.8141 59.9001 20.6382 59.7241C20.4622 59.5482 20.3634 59.3097 20.3634 59.0609V57.1085C20.3572 56.9837 20.3772 56.859 20.4221 56.7423C20.467 56.6257 20.5359 56.5198 20.6243 56.4314C20.7126 56.343 20.8186 56.2741 20.9352 56.2292C21.0518 56.1843 21.1766 56.1643 21.3014 56.1706H21.4759C21.6008 56.1643 21.7255 56.1843 21.8422 56.2292C21.9588 56.2741 22.0647 56.343 22.1531 56.4314C22.2415 56.5198 22.3103 56.6257 22.3553 56.7423C22.4002 56.859 22.4202 56.9837 22.4139 57.1085Z" fill="#004357"/>
<path d="M18.7486 55.2325V57.1848C18.7549 57.3096 18.7349 57.4344 18.69 57.551C18.645 57.6677 18.5762 57.7736 18.4878 57.862C18.3994 57.9504 18.2935 58.0192 18.1768 58.0642C18.0602 58.1091 17.9354 58.1291 17.8106 58.1228H17.6361C17.3598 58.1332 17.0889 58.0442 16.8726 57.872C16.7996 57.7919 16.746 57.6963 16.7157 57.5923C16.6855 57.4883 16.6794 57.3787 16.6981 57.2721V55.3197C16.6919 55.1949 16.7118 55.0701 16.7568 54.9535C16.8017 54.8369 16.8706 54.731 16.9589 54.6426C17.0473 54.5542 17.1532 54.4853 17.2699 54.4404C17.3865 54.3955 17.5113 54.3755 17.6361 54.3817H17.8979C18.0112 54.3754 18.1247 54.3931 18.2308 54.4336C18.3368 54.4741 18.4332 54.5366 18.5135 54.6169C18.5937 54.6972 18.6562 54.7935 18.6967 54.8996C18.7372 55.0057 18.7549 55.1191 18.7486 55.2325Z" fill="#004357"/>
<path d="M15.0843 53.8692V55.8215C15.0843 55.9399 15.0608 56.0571 15.0152 56.1663C14.9696 56.2755 14.9027 56.3746 14.8185 56.4578C14.7343 56.541 14.6344 56.6067 14.5247 56.651C14.4149 56.6953 14.2974 56.7173 14.1791 56.7159H14.0045C13.8797 56.7221 13.755 56.7021 13.6383 56.6572C13.5217 56.6123 13.4158 56.5434 13.3274 56.455C13.239 56.3667 13.1701 56.2607 13.1252 56.1441C13.0803 56.0275 13.0603 55.9027 13.0665 55.7779V53.8692C13.0603 53.7443 13.0803 53.6196 13.1252 53.5029C13.1701 53.3863 13.239 53.2804 13.3274 53.192C13.4158 53.1036 13.5217 53.0348 13.6383 52.9898C13.755 52.9449 13.8797 52.9249 14.0045 52.9312H14.1791C14.4212 52.9423 14.6499 53.0457 14.8183 53.2201C14.9866 53.3945 15.0818 53.6268 15.0843 53.8692Z" fill="#004357"/>
<path d="M10.5684 53.6074L8.72518 54.3817C8.58048 54.4295 8.42581 54.4385 8.27655 54.4079C8.1273 54.3772 7.98866 54.3081 7.87444 54.2072C7.76134 54.1331 7.66961 54.0307 7.60837 53.9102C7.54714 53.7896 7.51854 53.6551 7.52542 53.5201C7.5568 53.2601 7.68068 53.0201 7.87444 52.8439L8.72518 52.1567L10.5684 53.6074Z" fill="#004357"/>
<path d="M8.43104 35.9928L4.94083 47.9031L0 46.5398L3.1521 34.4331L8.43104 35.9928Z" fill="#004357"/>
<path d="M41.1517 50.6299C41.4287 50.925 41.5811 51.3158 41.577 51.7206C41.5633 52.1219 41.4133 52.5066 41.1517 52.8113C41.0134 52.9534 40.8481 53.0664 40.6654 53.1436C40.4828 53.2207 40.2865 53.2605 40.0882 53.2605C39.89 53.2605 39.6937 53.2207 39.511 53.1436C39.3284 53.0664 39.163 52.9534 39.0248 52.8113L31.39 45.1764L30.2011 46.2671L36.5053 52.5822C36.6486 52.7254 36.7622 52.8955 36.8397 53.0826C36.9172 53.2698 36.9571 53.4703 36.9571 53.6729C36.9571 53.8755 36.9172 54.076 36.8397 54.2632C36.7622 54.4503 36.6486 54.6204 36.5053 54.7636C36.3621 54.9068 36.192 55.0205 36.0049 55.098C35.8178 55.1755 35.6172 55.2154 35.4146 55.2154C35.2121 55.2154 35.0115 55.1755 34.8244 55.098C34.6372 55.0205 34.4672 54.9068 34.3239 54.7636L26.6891 47.1288L25.5984 48.2195L31.9571 54.5346C32.2464 54.8238 32.4089 55.2162 32.4089 55.6252C32.4089 56.0343 32.2464 56.4267 31.9571 56.7159C31.6679 57.0052 31.2755 57.1677 30.8664 57.1677C30.4574 57.1677 30.065 57.0052 29.7758 56.7159L28.4996 55.2653L24.6713 51.4261L23.4716 52.6258L27.2672 56.3342C27.5249 56.6154 27.6755 56.9784 27.6925 57.3594C27.6923 57.7441 27.5393 58.1129 27.2672 58.3847C26.9808 58.6863 26.5915 58.8693 26.1765 58.8973C25.7725 58.897 25.3833 58.7452 25.0858 58.472L23.9951 57.3813V56.9341C24.0025 56.5969 23.9416 56.2617 23.816 55.9486C23.6904 55.6356 23.5026 55.3513 23.2641 55.1128C23.0256 54.8743 22.7413 54.6866 22.4283 54.561C22.1153 54.4353 21.7801 54.3744 21.4429 54.3819H21.3556C21.0363 54.3872 20.7199 54.4424 20.4176 54.5455C20.2984 53.9839 19.9869 53.4816 19.5369 53.1252C19.0869 52.7688 18.5266 52.5806 17.9527 52.5931H17.7781C17.3677 52.5832 16.9607 52.6691 16.5893 52.844C16.4203 52.3412 16.0955 51.9052 15.6622 51.5993C15.2288 51.2934 14.7093 51.1334 14.1789 51.1425H14.0044C13.5657 51.1152 13.1283 51.2123 12.7424 51.4226C12.3565 51.6329 12.0378 51.9479 11.823 52.3314L9.29257 50.5426L6.99121 46.8997L9.71794 37.5307L18.4435 36.5054L17.0038 38.6868C16.9095 38.8448 16.8662 39.028 16.8799 39.2115C16.8936 39.395 16.9635 39.5698 17.0801 39.7121L17.2546 39.8866C18.1203 40.5919 19.2028 40.9771 20.3195 40.9773C21.4815 40.9871 22.6055 40.5632 23.4716 39.7884L25.4348 38.076H28.925V36.4836H25.1403C24.9555 36.4874 24.7764 36.5484 24.6277 36.6581L22.5008 38.6105C21.8988 39.1369 21.1187 39.4138 20.3195 39.3849C19.7814 39.3836 19.2537 39.2366 18.7925 38.9595L22.2827 33.2443H30.2884L35.2292 37.3344L36.3199 38.2723C36.4252 38.3582 36.5488 38.4186 36.6812 38.4488C36.8137 38.4791 36.9513 38.4784 37.0834 38.4469L39.2648 37.6725L42.5368 47.3905L40.8354 48.0668L36.4726 43.704L35.2728 44.8928L41.1517 50.6299Z" fill="#004357"/>
</svg>
