<svg width="57" height="60" viewBox="0 0 57 60" fill="none" xmlns="http://www.w3.org/2000/svg">
<path d="M4.22399 51.5995C3.66862 51.5995 3.12573 51.7642 2.66396 52.0727C2.20219 52.3813 1.84229 52.8198 1.62976 53.3329C1.41723 53.846 1.36163 54.4106 1.46997 54.9553C1.57832 55.5 1.84575 56.0003 2.23845 56.393C2.63115 56.7857 3.13149 57.0531 3.67618 57.1615C4.22087 57.2698 4.78546 57.2142 5.29855 57.0017C5.81164 56.7892 6.25018 56.4292 6.55873 55.9675C6.86727 55.5057 7.03196 54.9628 7.03196 54.4075C7.03196 53.6627 6.73612 52.9485 6.20952 52.4219C5.68292 51.8953 4.96871 51.5995 4.22399 51.5995Z" fill="#BDD63B"/>
<path d="M52.0312 51.5995C51.4724 51.5971 50.9255 51.7608 50.46 52.0698C49.9944 52.3787 49.6311 52.819 49.4162 53.3348C49.2013 53.8505 49.1444 54.4185 49.2528 54.9667C49.3612 55.5148 49.6301 56.0184 50.0252 56.4135C50.4203 56.8086 50.9238 57.0774 51.472 57.1858C52.0201 57.2942 52.5881 57.2374 53.1039 57.0225C53.6196 56.8075 54.0599 56.4442 54.3689 55.9787C54.6778 55.5131 54.8415 54.9662 54.8391 54.4075C54.836 53.6637 54.5391 52.9514 54.0132 52.4254C53.4873 51.8995 52.7749 51.6027 52.0312 51.5995Z" fill="#BDD63B"/>
<path d="M25.7522 47.8074C21.6003 40.8955 21.6003 40.8715 21.1203 40.7995L15.8643 38.9755C15.3063 38.8164 14.7094 38.8648 14.1843 39.1119C13.6592 39.359 13.2415 39.788 13.0084 40.3195L12.8644 40.6675C12.7487 40.9324 12.6891 41.2184 12.6891 41.5075C12.6891 41.7966 12.7487 42.0825 12.8644 42.3475C12.9742 42.6174 13.137 42.8627 13.343 43.0688C13.5491 43.2749 13.7944 43.4376 14.0644 43.5475L18.1803 45.1914C18.298 45.2535 18.4274 45.29 18.5602 45.2987C18.6929 45.3074 18.826 45.2881 18.9508 45.242C19.0755 45.196 19.1892 45.1241 19.2844 45.0312C19.3796 44.9383 19.4542 44.8264 19.5033 44.7028C19.5524 44.5791 19.575 44.4466 19.5695 44.3137C19.564 44.1808 19.5306 44.0505 19.4714 43.9313C19.4123 43.8122 19.3288 43.7068 19.2262 43.6221C19.1237 43.5373 19.0045 43.4751 18.8763 43.4395L14.7364 41.7955C14.6619 41.7678 14.6015 41.7117 14.5684 41.6395C14.5384 41.5664 14.5384 41.4845 14.5684 41.4115L14.7124 41.0635C14.7608 40.9628 14.8413 40.8811 14.9412 40.8311C15.0411 40.7812 15.1548 40.7658 15.2644 40.7875L20.2203 42.5035C20.7363 43.2715 22.5243 46.1874 24.0963 48.8034C24.316 49.2793 24.3952 49.808 24.3243 50.3274L23.3523 53.5073H18.0003L18.6723 51.5754L10.9684 43.4875L10.8604 43.4035C10.6943 43.2501 10.5608 43.0647 10.468 42.8585C10.3752 42.6523 10.325 42.4295 10.3204 42.2035L11.4244 27.5996C11.4527 27.4785 11.5194 27.3699 11.6146 27.2898C11.7097 27.2098 11.8282 27.1627 11.9524 27.1556H12.7084C12.836 27.1501 12.9619 27.1872 13.0662 27.2611C13.1705 27.3349 13.2472 27.4414 13.2844 27.5636L14.1844 35.8195C14.2114 36.0678 14.336 36.2951 14.5306 36.4515C14.7253 36.6079 14.9741 36.6806 15.2224 36.6535C15.4706 36.6265 15.6979 36.5019 15.8543 36.3073C16.0107 36.1126 16.0834 35.8638 16.0563 35.6155L15.1444 27.3236C15.0317 26.751 14.721 26.2364 14.2668 25.8699C13.8126 25.5035 13.2439 25.3087 12.6604 25.3197H11.9044C11.3222 25.3404 10.7673 25.5721 10.3434 25.9718C9.91947 26.3714 9.65539 26.9116 9.60041 27.4916L8.40043 41.9995C8.37885 42.5308 8.47527 43.0604 8.68275 43.5501C8.89024 44.0397 9.20363 44.4773 9.60041 44.8314L16.4283 52.0314L15.9123 53.4954H15.4203C14.9239 53.4954 14.4477 53.6926 14.0967 54.0436C13.7456 54.3947 13.5484 54.8708 13.5484 55.3673V58.1873C13.5641 58.6817 13.7748 59.1498 14.1346 59.4894C14.4943 59.8289 14.9738 60.0122 15.4683 59.9993H23.4363C23.6821 59.9993 23.9255 59.9509 24.1526 59.8568C24.3798 59.7627 24.5861 59.6248 24.76 59.451C24.9338 59.2772 25.0717 59.0708 25.1657 58.8437C25.2598 58.6166 25.3082 58.3731 25.3082 58.1273V55.3073C25.3117 54.9765 25.22 54.6516 25.0442 54.3713L26.1602 50.7714V50.6394C26.3028 49.711 26.1606 48.7612 25.7522 47.9154V47.8074Z" fill="#004357"/>
<path d="M46.7037 27.4797C46.6412 26.8878 46.361 26.3402 45.9175 25.9433C45.474 25.5464 44.8988 25.3284 44.3037 25.3317H43.5477C42.9656 25.3212 42.3986 25.5164 41.9464 25.883C41.4942 26.2496 41.1858 26.7641 41.0757 27.3357L40.1637 35.7356C40.1445 35.9782 40.2205 36.2188 40.3756 36.4063C40.5308 36.5938 40.7528 36.7135 40.9947 36.74C41.2367 36.7666 41.4794 36.6978 41.6715 36.5484C41.8636 36.399 41.9899 36.1806 42.0237 35.9396L42.9717 27.5997C43.0167 27.4824 43.0954 27.381 43.1979 27.3084C43.3004 27.2358 43.4221 27.1952 43.5477 27.1917H44.3037C44.4262 27.1981 44.5435 27.2434 44.6385 27.3211C44.7335 27.3988 44.8012 27.5048 44.8317 27.6237L45.9357 42.1555C45.9288 42.3823 45.8764 42.6055 45.7816 42.8116C45.6868 43.0178 45.5514 43.2027 45.3837 43.3555L37.6318 51.4554L38.3037 53.3874H32.8798L31.8958 50.2074C31.8293 49.687 31.9126 49.1583 32.1358 48.6834C33.7078 46.1155 35.4838 43.1995 35.9998 42.4315L40.9197 40.7275C41.0331 40.6983 41.1531 40.7085 41.26 40.7564C41.3669 40.8044 41.4542 40.8873 41.5077 40.9915L41.6637 41.3395C41.6818 41.377 41.6912 41.418 41.6912 41.4595C41.6912 41.5011 41.6818 41.5421 41.6637 41.5795C41.644 41.6172 41.6169 41.6505 41.5838 41.6774C41.5508 41.7042 41.5127 41.724 41.4717 41.7355L37.3678 43.3675C37.2396 43.4031 37.1204 43.4654 37.0178 43.5501C36.9153 43.6349 36.8318 43.7402 36.7726 43.8594C36.7135 43.9785 36.6801 44.1088 36.6746 44.2417C36.6691 44.3746 36.6917 44.5072 36.7408 44.6308C36.7899 44.7544 36.8645 44.8663 36.9597 44.9593C37.0549 45.0522 37.1685 45.124 37.2933 45.1701C37.4181 45.2162 37.5512 45.2355 37.6839 45.2268C37.8167 45.2181 37.9461 45.1815 38.0637 45.1195L42.1557 43.4755C42.4257 43.3657 42.6709 43.2029 42.877 42.9968C43.0831 42.7907 43.2459 42.5455 43.3557 42.2755C43.4686 42.0099 43.5267 41.7242 43.5267 41.4355C43.5267 41.1469 43.4686 40.8612 43.3557 40.5955L43.1997 40.2715C42.9616 39.7366 42.5362 39.3072 42.0036 39.0641C41.471 38.821 40.8678 38.7809 40.3077 38.9516L35.1718 40.7995C34.7158 40.9315 34.6438 40.9555 30.4918 47.8675V47.9395C30.0876 48.7866 29.9495 49.7363 30.0958 50.6634L31.1998 54.3594C31.0294 54.6464 30.9383 54.9736 30.9358 55.3074V58.1273C30.9358 58.3732 30.9842 58.6166 31.0783 58.8437C31.1724 59.0708 31.3103 59.2772 31.4841 59.451C31.6579 59.6249 31.8643 59.7628 32.0914 59.8568C32.3185 59.9509 32.562 59.9993 32.8078 59.9993H40.7997C41.2973 59.9993 41.7747 59.8025 42.1277 59.4518C42.4806 59.101 42.6805 58.6249 42.6837 58.1273V55.3074C42.6805 54.8098 42.4806 54.3337 42.1277 53.983C41.7747 53.6322 41.2973 53.4354 40.7997 53.4354H40.3077L39.8037 51.9714L46.6197 44.7715C47.0133 44.42 47.3248 43.9863 47.5321 43.501C47.7395 43.0158 47.8377 42.4909 47.8196 41.9635L46.7037 27.4797Z" fill="#004357"/>
<path d="M10.2477 49.1994C10.1598 49.1063 10.0537 49.0321 9.936 48.9816C9.81832 48.9311 9.69151 48.9053 9.56344 48.9058C9.43537 48.9062 9.30876 48.933 9.19145 48.9843C9.07413 49.0357 8.9686 49.1106 8.88139 49.2044C8.79418 49.2982 8.72715 49.4089 8.68444 49.5296C8.64173 49.6504 8.62425 49.7786 8.63309 49.9063C8.64193 50.0341 8.67689 50.1587 8.73582 50.2724C8.79474 50.3861 8.87638 50.4865 8.97567 50.5674L9.33566 50.9034C9.42114 51.0117 9.52953 51.0998 9.65305 51.1614C9.77656 51.2229 9.91216 51.2564 10.0501 51.2594C10.1881 51.2624 10.325 51.2348 10.4511 51.1787C10.5772 51.1226 10.6893 51.0393 10.7794 50.9348C10.8695 50.8303 10.9354 50.7071 10.9723 50.5741C11.0092 50.4412 11.0163 50.3017 10.993 50.1656C10.9697 50.0296 10.9166 49.9004 10.8376 49.7873C10.7585 49.6742 10.6554 49.58 10.5356 49.5114L10.2477 49.1994Z" fill="#004357"/>
<path d="M6.63569 45.0835C6.56607 44.983 6.47718 44.8973 6.37419 44.8314C6.2712 44.7655 6.15614 44.7207 6.0357 44.6995C5.78842 44.6583 5.53476 44.7142 5.32771 44.8555C5.12394 45.0008 4.98591 45.2208 4.94371 45.4675C4.90787 45.7125 4.96806 45.9619 5.11171 46.1635C5.1968 46.3002 5.28892 46.4324 5.38771 46.5595C5.53411 46.7616 5.75479 46.8973 6.00121 46.9366C6.24763 46.976 6.4996 46.9159 6.70169 46.7695C6.90379 46.6231 7.03945 46.4024 7.07883 46.156C7.11821 45.9096 7.05809 45.6576 6.91169 45.4555L6.63569 45.0835Z" fill="#004357"/>
<path d="M6.93591 12.9358C6.83796 12.8611 6.72607 12.8068 6.60682 12.776C6.48757 12.7451 6.36336 12.7385 6.24149 12.7564C6.11963 12.7743 6.00257 12.8163 5.8972 12.8801C5.79183 12.9439 5.70028 13.0281 5.62793 13.1278L5.33993 13.5118C5.26283 13.6109 5.20793 13.7254 5.17894 13.8475C5.14996 13.9697 5.14756 14.0966 5.17193 14.2198C5.2024 14.4016 5.28588 14.5704 5.4119 14.7049C5.53792 14.8395 5.70087 14.9338 5.88031 14.9761C6.05975 15.0184 6.24768 15.0068 6.42053 14.9427C6.59338 14.8786 6.74345 14.7648 6.85191 14.6158L7.12791 14.2438C7.20259 14.1458 7.25693 14.0339 7.28774 13.9147C7.31855 13.7954 7.32521 13.6712 7.30732 13.5494C7.28943 13.4275 7.24736 13.3104 7.18358 13.2051C7.1198 13.0997 7.03559 13.0081 6.93591 12.9358Z" fill="#004357"/>
<path d="M1.87198 29.9996V29.5436C1.87518 29.4203 1.85365 29.2976 1.80865 29.1827C1.76366 29.0678 1.6961 28.9631 1.60998 28.8747C1.52386 28.7864 1.42092 28.7161 1.30722 28.6682C1.19352 28.6203 1.07138 28.5956 0.94799 28.5957C0.825071 28.5941 0.703044 28.6167 0.588877 28.6623C0.47471 28.7079 0.370639 28.7755 0.282608 28.8613C0.194577 28.9471 0.12431 29.0494 0.0758197 29.1624C0.0273295 29.2753 0.00156578 29.3967 0 29.5196L0 29.9996C0 30.2479 0.0986129 30.486 0.274145 30.6615C0.449677 30.837 0.68775 30.9356 0.93599 30.9356C1.18423 30.9356 1.4223 30.837 1.59783 30.6615C1.77337 30.486 1.87198 30.2479 1.87198 29.9996Z" fill="#004357"/>
<path d="M2.88031 19.8479C3.11191 19.9376 3.3687 19.9376 3.6003 19.8479C3.83127 19.7533 4.01635 19.5725 4.1163 19.3439C4.1163 19.2119 4.23629 19.0679 4.30829 18.9359C4.41332 18.7099 4.42428 18.4515 4.33876 18.2174C4.25325 17.9834 4.07826 17.7929 3.8523 17.6879C3.62634 17.5828 3.36791 17.5719 3.13387 17.6574C2.89982 17.7429 2.70934 17.9179 2.60431 18.1439C2.53231 18.2879 2.46031 18.4319 2.40031 18.5879C2.3107 18.8112 2.31057 19.0605 2.39995 19.284C2.48934 19.5075 2.66137 19.6879 2.88031 19.7879V19.8479Z" fill="#004357"/>
<path d="M52.2593 19.6557C52.3546 19.8789 52.5339 20.0556 52.7584 20.1476C52.983 20.2397 53.2347 20.2397 53.4592 20.1477C53.6803 20.05 53.855 19.8704 53.9468 19.6468C54.0385 19.4231 54.0401 19.1726 53.9512 18.9477C53.9512 18.8037 53.8312 18.6477 53.7592 18.5037C53.6571 18.287 53.4758 18.1176 53.2525 18.0305C53.0293 17.9435 52.7812 17.9453 52.5592 18.0358C52.3404 18.1355 52.1691 18.3167 52.0817 18.5408C51.9943 18.7648 51.9977 19.0142 52.0913 19.2357L52.2713 19.6557H52.2593Z" fill="#004357"/>
<path d="M1.31969 25.3198H1.51168C1.71949 25.312 1.919 25.2362 2.07946 25.1039C2.23992 24.9716 2.35244 24.7903 2.39967 24.5878C2.39967 24.4438 2.45967 24.2878 2.49567 24.1438C2.54978 23.9003 2.50495 23.6453 2.37105 23.4349C2.23715 23.2245 2.02515 23.0759 1.78168 23.0218C1.53821 22.9677 1.28323 23.0125 1.07281 23.1464C0.862401 23.2803 0.713797 23.4923 0.659693 23.7358L0.563694 24.2038C0.537267 24.3244 0.534951 24.449 0.556881 24.5704C0.578811 24.6919 0.624553 24.8079 0.691473 24.9116C0.758393 25.0153 0.84517 25.1048 0.946807 25.1748C1.04844 25.2449 1.16294 25.2941 1.28369 25.3198H1.31969Z" fill="#004357"/>
<path d="M2.74802 39.8036C2.52673 39.9015 2.35126 40.0804 2.25755 40.3035C2.16385 40.5266 2.15901 40.7771 2.24403 41.0036C2.31603 41.1476 2.37603 41.3036 2.44802 41.4476H2.40003C2.44577 41.5664 2.51528 41.6747 2.6043 41.7657C2.69331 41.8567 2.79997 41.9286 2.91773 41.977C3.03549 42.0254 3.16189 42.0493 3.2892 42.0472C3.4165 42.045 3.54203 42.0169 3.65811 41.9646C3.77418 41.9123 3.87836 41.8369 3.96428 41.7429C4.05019 41.6489 4.11603 41.5384 4.15777 41.4182C4.19951 41.2979 4.21627 41.1703 4.20703 41.0433C4.19778 40.9164 4.16273 40.7926 4.10401 40.6796L3.92401 40.2596C3.82624 40.0385 3.64672 39.8638 3.42304 39.7721C3.19935 39.6804 2.94886 39.6788 2.72402 39.7676L2.74802 39.8036Z" fill="#004357"/>
<path d="M1.72746 36.6116C1.84773 36.5874 1.96198 36.5395 2.06352 36.4706C2.16507 36.4017 2.25189 36.3134 2.31891 36.2106C2.38593 36.1078 2.43182 35.9927 2.45389 35.872C2.47596 35.7514 2.47377 35.6275 2.44745 35.5076C2.44745 35.3516 2.38745 35.2076 2.36345 35.0517H2.39945C2.34898 34.8084 2.20728 34.5937 2.00346 34.4517C1.7938 34.3167 1.54117 34.2654 1.29546 34.3077C1.05278 34.3598 0.839732 34.5039 0.701015 34.7097C0.562299 34.9156 0.508702 35.1671 0.551471 35.4116L0.65947 35.8916C0.70131 36.1023 0.815244 36.2918 0.981683 36.4276C1.14812 36.5634 1.35667 36.637 1.57146 36.6356C1.63492 36.6474 1.7 36.6474 1.76346 36.6356L1.72746 36.6116Z" fill="#004357"/>
<path d="M53.7838 24.4437C53.7838 24.5997 53.8558 24.7437 53.8798 24.8997C53.9042 25.0203 53.9522 25.1349 54.0209 25.2369C54.0896 25.3389 54.1777 25.4264 54.2802 25.4944C54.3827 25.5623 54.4976 25.6095 54.6183 25.633C54.7391 25.6566 54.8632 25.6562 54.9838 25.6317C55.1043 25.6073 55.2189 25.5594 55.3209 25.4907C55.423 25.422 55.5105 25.3338 55.5784 25.2313C55.6464 25.1288 55.6935 25.0139 55.7171 24.8932C55.7407 24.7725 55.7402 24.6483 55.7158 24.5277C55.7158 24.3717 55.7158 24.2157 55.6198 24.0477C55.5673 23.8043 55.4202 23.5916 55.2109 23.4566C55.0016 23.3216 54.7473 23.2752 54.5038 23.3278C54.2603 23.3803 54.0477 23.5273 53.9127 23.7366C53.7777 23.9459 53.7313 24.2003 53.7838 24.4437Z" fill="#004357"/>
<path d="M49.5833 14.8679C49.6529 14.9703 49.7423 15.0577 49.8464 15.1249C49.9504 15.1921 50.0669 15.2377 50.189 15.259C50.311 15.2803 50.436 15.2768 50.5567 15.2487C50.6773 15.2207 50.7911 15.1687 50.8913 15.0959C50.9915 15.0243 51.0766 14.9336 51.1417 14.8291C51.2068 14.7246 51.2507 14.6082 51.2707 14.4867C51.2908 14.3652 51.2867 14.2409 51.2586 14.121C51.2306 14.0011 51.1791 13.8879 51.1073 13.7879L50.8313 13.3919C50.7578 13.2918 50.6652 13.2074 50.5588 13.1434C50.4524 13.0795 50.3343 13.0374 50.2115 13.0195C50.0886 13.0016 49.9635 13.0084 49.8433 13.0394C49.723 13.0703 49.6102 13.1249 49.5113 13.1999C49.3134 13.3482 49.1813 13.568 49.1432 13.8124C49.1051 14.0567 49.1639 14.3063 49.3073 14.5079L49.5833 14.8679Z" fill="#004357"/>
<path d="M49.8474 47.2914C49.9913 47.2892 50.133 47.2546 50.2617 47.1902C50.3905 47.1258 50.5032 47.0333 50.5914 46.9194L50.8794 46.5234C50.9555 46.4262 51.0099 46.3137 51.0388 46.1937C51.0678 46.0736 51.0707 45.9487 51.0474 45.8274C51.0312 45.7052 50.9898 45.5876 50.9258 45.4823C50.8617 45.3769 50.7765 45.286 50.6754 45.2154C50.4748 45.0694 50.2245 45.009 49.9794 45.0474C49.8577 45.0656 49.741 45.1079 49.6359 45.1717C49.5308 45.2356 49.4395 45.3198 49.3674 45.4194L49.0914 45.7914C48.986 45.931 48.9218 46.0972 48.9061 46.2714C48.8904 46.4455 48.9238 46.6206 49.0025 46.7767C49.0812 46.9329 49.2021 47.0639 49.3514 47.1548C49.5007 47.2458 49.6725 47.2931 49.8474 47.2914Z" fill="#004357"/>
<path d="M54.9236 34.7276C54.6789 34.6811 54.4258 34.7314 54.2176 34.868C54.0093 35.0045 53.8623 35.2167 53.8076 35.4596C53.8076 35.6036 53.7476 35.7596 53.7116 35.9036C53.6572 36.1453 53.6996 36.3986 53.8297 36.6095C53.9598 36.8203 54.1672 36.9718 54.4076 37.0316C54.6509 37.0856 54.9057 37.0415 55.1168 36.909C55.328 36.7765 55.4784 36.5662 55.5356 36.3236L55.6436 35.8436C55.6937 35.6004 55.6463 35.3472 55.5117 35.1385C55.377 34.9298 55.1659 34.7823 54.9236 34.7276Z" fill="#004357"/>
<path d="M56.255 29.8917C56.2488 29.6433 56.1465 29.407 55.9698 29.2325C55.793 29.0579 55.5554 28.9587 55.307 28.9557C55.0586 28.9619 54.8223 29.0641 54.6478 29.2409C54.4732 29.4177 54.374 29.6553 54.371 29.9037V30.4557C54.3655 30.5799 54.3861 30.704 54.4316 30.8197C54.4771 30.9355 54.5464 31.0404 54.635 31.1277C54.8093 31.3057 55.0459 31.4089 55.295 31.4157C55.5402 31.4126 55.7747 31.3147 55.9493 31.1424C56.1238 30.9701 56.2248 30.7368 56.231 30.4917C56.231 30.3237 56.231 30.1677 56.231 29.9997L56.255 29.8917Z" fill="#004357"/>
<path d="M45.6954 49.4995C45.585 49.6058 45.4688 49.706 45.3474 49.7995C45.1634 49.9673 45.0518 50.2 45.0361 50.4485C45.0204 50.697 45.1019 50.9419 45.2634 51.1315C45.4291 51.3147 45.6598 51.426 45.9063 51.4417C46.1529 51.4574 46.3958 51.3762 46.5834 51.2155L46.9554 50.8915C47.0468 50.8087 47.121 50.7088 47.1738 50.5974C47.2266 50.486 47.2569 50.3653 47.263 50.2422C47.2691 50.119 47.251 49.9959 47.2095 49.8798C47.168 49.7637 47.1041 49.6569 47.0214 49.5655C46.9387 49.4741 46.8387 49.3999 46.7273 49.3471C46.6159 49.2943 46.4952 49.264 46.3721 49.2579C46.2489 49.2517 46.1258 49.2699 46.0097 49.3114C45.8936 49.3528 45.7868 49.4168 45.6954 49.4995Z" fill="#004357"/>
<path d="M52.3796 42.3354C52.4916 42.3826 52.612 42.4069 52.7336 42.4069C52.8551 42.4069 52.9755 42.3826 53.0876 42.3354C53.2056 42.2932 53.3142 42.228 53.4068 42.1435C53.4995 42.0591 53.5745 41.9571 53.6275 41.8434C53.6875 41.6994 53.7595 41.5434 53.8315 41.3994C53.882 41.2868 53.9097 41.1653 53.9132 41.0419C53.9167 40.9185 53.8958 40.7956 53.8518 40.6803C53.8078 40.5649 53.7415 40.4594 53.6567 40.3697C53.5719 40.28 53.4702 40.2079 53.3575 40.1574C53.2449 40.107 53.1234 40.0793 53 40.0758C52.8766 40.0723 52.7537 40.0932 52.6384 40.1372C52.5231 40.1812 52.4175 40.2475 52.3278 40.3323C52.2381 40.4171 52.166 40.5188 52.1156 40.6314C52.1156 40.7754 51.9836 40.9194 51.9236 41.0514C51.876 41.1655 51.8516 41.2879 51.8516 41.4114C51.8516 41.535 51.876 41.6574 51.9236 41.7714C52.0126 42.0047 52.1891 42.1941 52.4156 42.2994L52.3796 42.3354Z" fill="#004357"/>
<path d="M25.1999 3.89997H25.2959H25.7519C25.8802 3.89723 26.0066 3.86815 26.1232 3.81451C26.2398 3.76087 26.3441 3.68383 26.4297 3.58817C26.5152 3.49252 26.5802 3.38029 26.6205 3.25846C26.6609 3.13663 26.6757 3.00781 26.6642 2.87999C26.6527 2.75217 26.615 2.6281 26.5534 2.51547C26.4919 2.40284 26.4079 2.30407 26.3066 2.22529C26.2052 2.14651 26.0888 2.08941 25.9645 2.05753C25.8402 2.02566 25.7106 2.01968 25.5839 2.03999H25.0919C24.8622 2.07596 24.6542 2.19613 24.5082 2.37709C24.3623 2.55806 24.2889 2.78686 24.3024 3.01896C24.3158 3.25105 24.4152 3.46983 24.5811 3.63268C24.747 3.79554 24.9676 3.89082 25.1999 3.89997Z" fill="#004357"/>
<path d="M30.7922 3.8879H31.2482C31.4948 3.91814 31.7434 3.84915 31.9392 3.69612C32.1349 3.5431 32.2619 3.31856 32.2922 3.07191C32.3224 2.82526 32.2534 2.57671 32.1004 2.38092C31.9473 2.18513 31.7228 2.05816 31.4762 2.02792L30.9842 1.96792C30.8612 1.95532 30.7371 1.96704 30.6187 2.00243C30.5003 2.03782 30.39 2.09619 30.2942 2.17419C30.1984 2.25219 30.1188 2.3483 30.0602 2.45703C30.0015 2.56577 29.9648 2.685 29.9522 2.80791C29.9396 2.93083 29.9513 3.05503 29.9867 3.17341C30.0221 3.29179 30.0804 3.40205 30.1584 3.49788C30.2364 3.5937 30.3326 3.67323 30.4413 3.73192C30.55 3.7906 30.6693 3.8273 30.7922 3.8399V3.8879Z" fill="#004357"/>
<path d="M40.3078 0C38.7319 0 37.1913 0.46731 35.881 1.34284C34.5707 2.21836 33.5494 3.46278 32.9464 4.91872C32.3433 6.37467 32.1855 7.97675 32.4929 9.52238C32.8004 11.068 33.5593 12.4877 34.6736 13.6021C35.7879 14.7164 37.2077 15.4753 38.7533 15.7827C40.2989 16.0902 41.901 15.9324 43.357 15.3293C44.8129 14.7262 46.0573 13.705 46.9328 12.3946C47.8084 11.0843 48.2757 9.54382 48.2757 7.96791C48.2757 5.85469 47.4362 3.82802 45.9419 2.33375C44.4477 0.839474 42.421 0 40.3078 0V0ZM41.6277 11.8079C41.4955 11.8627 41.359 11.9068 41.2197 11.9399V12.1919C41.2197 12.4401 41.1211 12.6782 40.9456 12.8537C40.7701 13.0292 40.532 13.1279 40.2838 13.1279C40.0355 13.1279 39.7974 13.0292 39.6219 12.8537C39.4464 12.6782 39.3478 12.4401 39.3478 12.1919V11.8799C39.0094 11.774 38.6896 11.6161 38.3998 11.4119C38.1977 11.2671 38.0614 11.0479 38.0209 10.8026C37.9804 10.5573 38.039 10.306 38.1838 10.1039C38.3286 9.9018 38.5477 9.76551 38.793 9.725C39.0383 9.68449 39.2897 9.74309 39.4918 9.88789C39.6909 10.0302 39.9216 10.122 40.1641 10.1554C40.4066 10.1889 40.6535 10.1629 40.8838 10.0799C41.0038 10.0799 41.2917 9.86389 41.2197 9.64789C41.1477 9.4319 40.7998 9.2639 40.0918 9.0719C39.1999 8.91804 38.3987 8.43391 37.8478 7.71592C37.6142 7.33717 37.4904 6.90093 37.4904 6.45593C37.4904 6.01093 37.6142 5.57469 37.8478 5.19594C38.1972 4.68558 38.7228 4.32232 39.3238 4.17595V3.75596C39.3238 3.50772 39.4224 3.26965 39.5979 3.09411C39.7734 2.91858 40.0115 2.81997 40.2598 2.81997C40.508 2.81997 40.7461 2.91858 40.9216 3.09411C41.0971 3.26965 41.1958 3.50772 41.1958 3.75596V4.17595C41.5183 4.26137 41.8231 4.40359 42.0957 4.59595C42.1978 4.66569 42.2851 4.75498 42.3525 4.85864C42.4199 4.9623 42.4661 5.07829 42.4884 5.19991C42.5107 5.32153 42.5087 5.44636 42.4825 5.5672C42.4563 5.68804 42.4064 5.80249 42.3357 5.90394C42.1928 6.10756 41.9756 6.24685 41.7309 6.29175C41.4862 6.33665 41.2337 6.28356 41.0278 6.14393C40.9136 6.06494 40.7817 6.01547 40.6438 5.99993C40.4377 5.93901 40.2196 5.93127 40.0098 5.97743C39.7999 6.0236 39.6052 6.12216 39.4438 6.26393C39.3991 6.33603 39.3755 6.41914 39.3755 6.50393C39.3755 6.58872 39.3991 6.67183 39.4438 6.74393C39.6118 7.00792 40.0918 7.13992 40.6438 7.28392C41.1671 7.35037 41.6639 7.55257 42.0849 7.87043C42.506 8.1883 42.8365 8.61077 43.0437 9.0959C43.2057 9.64345 43.1517 10.2323 42.8928 10.7412C42.6338 11.2501 42.1897 11.6404 41.6517 11.8319L41.6277 11.8079Z" fill="#BDD63B"/>
<path d="M15.9357 9.06418e-06C14.3598 9.06418e-06 12.8193 0.467319 11.509 1.34284C10.1986 2.21837 9.17737 3.46279 8.5743 4.91873C7.97123 6.37468 7.81343 7.97676 8.12088 9.52239C8.42832 11.068 9.18719 12.4878 10.3015 13.6021C11.4159 14.7164 12.8356 15.4753 14.3812 15.7827C15.9269 16.0902 17.5289 15.9324 18.9849 15.3293C20.4408 14.7262 21.6852 13.705 22.5608 12.3947C23.4363 11.0843 23.9036 9.54383 23.9036 7.96792C23.9052 6.92112 23.7002 5.88429 23.3003 4.91687C22.9004 3.94944 22.3136 3.07044 21.5734 2.33023C20.8332 1.59003 19.9542 1.00318 18.9867 0.603312C18.0193 0.203447 16.9825 -0.00157102 15.9357 9.06418e-06ZM17.2557 11.8079C17.1099 11.8858 16.9573 11.95 16.7997 11.9999V12.2519C16.7997 12.5001 16.7011 12.7382 16.5255 12.9137C16.35 13.0893 16.1119 13.1879 15.8637 13.1879C15.6155 13.1879 15.3774 13.0893 15.2018 12.9137C15.0263 12.7382 14.9277 12.5001 14.9277 12.2519V11.8799C14.5935 11.7728 14.2779 11.615 13.9917 11.4119C13.8825 11.3449 13.7882 11.2562 13.7146 11.1512C13.6411 11.0463 13.5898 10.9274 13.5641 10.8019C13.5384 10.6763 13.5387 10.5468 13.5651 10.4214C13.5915 10.296 13.6433 10.1774 13.7174 10.0728C13.7915 9.96827 13.8863 9.88005 13.9958 9.81361C14.1054 9.74718 14.2275 9.70396 14.3544 9.68662C14.4814 9.66929 14.6106 9.67821 14.734 9.71283C14.8573 9.74745 14.9723 9.80704 15.0717 9.8879C15.2731 10.0303 15.5058 10.1221 15.7502 10.1555C15.9946 10.1889 16.2434 10.163 16.4757 10.0799C16.5957 10.0799 16.8837 9.8639 16.8117 9.64791C16.7397 9.43191 16.3917 9.26391 15.6837 9.07191C14.7884 8.92734 13.9841 8.44128 13.4397 7.71593C13.2061 7.33718 13.0824 6.90094 13.0824 6.45594C13.0824 6.01094 13.2061 5.5747 13.4397 5.19595C13.7866 4.68311 14.3133 4.31912 14.9157 4.17596V3.75597C14.9157 3.50773 15.0143 3.26966 15.1898 3.09412C15.3654 2.91859 15.6035 2.81998 15.8517 2.81998C16.0999 2.81998 16.338 2.91859 16.5135 3.09412C16.6891 3.26966 16.7877 3.50773 16.7877 3.75597V4.17596C17.1103 4.26138 17.415 4.4036 17.6877 4.59596C17.7956 4.65994 17.8895 4.74495 17.9639 4.84595C18.0383 4.94694 18.0916 5.06186 18.1207 5.18387C18.1498 5.30588 18.1541 5.4325 18.1333 5.5562C18.1125 5.6799 18.0671 5.79815 17.9997 5.90395C17.8567 6.10757 17.6395 6.24686 17.3948 6.29176C17.1501 6.33666 16.8976 6.28357 16.6917 6.14394C16.5661 6.06115 16.4216 6.01161 16.2717 5.99994C16.0664 5.93172 15.8466 5.92024 15.6353 5.96671C15.4241 6.01318 15.2294 6.11588 15.0717 6.26394C15.0271 6.33604 15.0034 6.41915 15.0034 6.50394C15.0034 6.58873 15.0271 6.67184 15.0717 6.74394C15.2277 7.00793 15.7197 7.13993 16.2717 7.28393C16.7946 7.35153 17.291 7.55417 17.7118 7.8719C18.1326 8.18962 18.4634 8.61147 18.6717 9.09591C18.8336 9.64346 18.7796 10.2323 18.5207 10.7412C18.2618 11.2501 17.8176 11.6404 17.2797 11.8319L17.2557 11.8079Z" fill="#BDD63B"/>
<path d="M28.1278 16.4039C25.6283 16.4017 23.2055 17.2665 21.2723 18.8509C19.3392 20.4353 18.0154 22.6412 17.5268 25.0924C17.0381 27.5436 17.4148 30.0884 18.5926 32.293C19.7704 34.4975 21.6764 36.2253 23.9857 37.1817C26.2949 38.1382 28.8644 38.264 31.256 37.5378C33.6477 36.8116 35.7134 35.2784 37.101 33.1995C38.4886 31.1206 39.1122 28.6247 38.8654 26.1375C38.6186 23.6503 37.5167 21.3256 35.7477 19.5599C33.7252 17.5413 30.9852 16.4064 28.1278 16.4039ZM31.2597 26.2558C31.1393 26.2963 31.0119 26.3119 30.8852 26.3015C30.7586 26.2912 30.6354 26.2552 30.5231 26.1957C30.4108 26.1362 30.3118 26.0544 30.2322 25.9554C30.1525 25.8564 30.0938 25.7422 30.0597 25.6198C29.9474 25.3167 29.7595 25.0474 29.5137 24.8373C29.268 24.6273 28.9727 24.4836 28.6558 24.4198C28.3021 24.3211 27.9288 24.3167 27.5729 24.4073C27.2171 24.4978 26.8912 24.68 26.6278 24.9358C26.5246 25.0859 26.4693 25.2637 26.4693 25.4458C26.4693 25.6279 26.5246 25.8058 26.6278 25.9558C26.9158 26.4238 27.6478 26.6278 28.4158 26.8438C29.0806 26.9122 29.7156 27.1544 30.257 27.5463C30.7984 27.9381 31.2271 28.4656 31.4997 29.0758C31.7007 29.738 31.6397 30.4522 31.3293 31.0707C31.0189 31.6893 30.4828 32.1651 29.8317 32.3998C29.5852 32.5047 29.3276 32.5812 29.0638 32.6278V33.2278C29.0638 33.476 28.9651 33.7141 28.7896 33.8896C28.6141 34.0651 28.376 34.1637 28.1278 34.1637C27.8795 34.1637 27.6415 34.0651 27.4659 33.8896C27.2904 33.7141 27.1918 33.476 27.1918 33.2278V32.5558C26.95 32.4938 26.7134 32.4136 26.4838 32.3158C26.0006 32.1132 25.5639 31.8139 25.2007 31.4362C24.8375 31.0585 24.5554 30.6105 24.3718 30.1198C24.3301 30.0032 24.312 29.8795 24.3184 29.7559C24.3248 29.6323 24.3557 29.5112 24.4093 29.3996C24.4629 29.288 24.5381 29.1881 24.6305 29.1057C24.7229 29.0234 24.8308 28.9602 24.9478 28.9198C25.0633 28.8744 25.1869 28.853 25.311 28.8571C25.435 28.8611 25.557 28.8904 25.6693 28.9432C25.7817 28.996 25.882 29.0712 25.9643 29.1641C26.0466 29.2571 26.109 29.3659 26.1478 29.4838C26.2505 29.7331 26.4022 29.9592 26.5939 30.1489C26.7856 30.3385 27.0134 30.4877 27.2638 30.5878C27.555 30.7247 27.8709 30.8016 28.1924 30.814C28.514 30.8263 28.8348 30.7739 29.1358 30.6598C29.4358 30.5278 29.9517 30.1678 29.7957 29.6638C29.6397 29.1598 29.0878 28.9438 27.9958 28.6438C26.8469 28.4816 25.8081 27.8738 25.1038 26.9518C24.8068 26.4946 24.6488 25.9611 24.6488 25.4158C24.6488 24.8706 24.8068 24.3371 25.1038 23.8799C25.3501 23.5388 25.6613 23.2498 26.0196 23.0294C26.378 22.8091 26.7763 22.6617 27.1918 22.5959V21.7439C27.1918 21.4956 27.2904 21.2576 27.4659 21.082C27.6415 20.9065 27.8795 20.8079 28.1278 20.8079C28.376 20.8079 28.6141 20.9065 28.7896 21.082C28.9651 21.2576 29.0638 21.4956 29.0638 21.7439V22.5839C29.7123 22.7085 30.3162 23.003 30.8137 23.4373C31.3112 23.8715 31.6846 24.4301 31.8957 25.0558C31.9362 25.1763 31.9518 25.3037 31.9414 25.4304C31.9311 25.557 31.8951 25.6802 31.8356 25.7925C31.7761 25.9048 31.6943 26.0037 31.5953 26.0834C31.4963 26.1631 31.3821 26.2217 31.2597 26.2558Z" fill="#BDD63B"/>
</svg>
