<svg width="49" height="60" viewBox="0 0 49 60" fill="none" xmlns="http://www.w3.org/2000/svg">
<path d="M19.2626 26.2105L19.4521 26.7158C19.5 26.8624 19.5929 26.9902 19.7176 27.0809C19.8424 27.1717 19.9926 27.2207 20.1468 27.2211H23.1152V19.8948C23.1057 19.6121 22.9934 19.3427 22.7995 19.1369L19.5152 15.6632C19.3259 15.4522 19.2266 15.1756 19.2384 14.8924C19.2502 14.6092 19.3722 14.3419 19.5784 14.1474C19.6796 14.0473 19.8003 13.9691 19.9331 13.9177C20.0659 13.8663 20.2078 13.8429 20.3501 13.8488C20.4923 13.8547 20.6318 13.8899 20.7598 13.9521C20.8878 14.0144 21.0017 14.1024 21.0942 14.2106L24.1889 17.4948L27.2837 14.2106C27.3772 14.1 27.492 14.0096 27.6214 13.9446C27.7507 13.8796 27.8919 13.8415 28.0364 13.8324C28.1808 13.8234 28.3257 13.8437 28.4621 13.892C28.5985 13.9404 28.7238 14.0158 28.8303 14.1139C28.9368 14.2119 29.0225 14.3304 29.082 14.4623C29.1415 14.5943 29.1738 14.7369 29.1768 14.8816C29.1798 15.0264 29.1536 15.1702 29.0996 15.3045C29.0456 15.4388 28.965 15.5608 28.8626 15.6632L25.5784 19.1369C25.4775 19.2355 25.3975 19.3534 25.3432 19.4836C25.289 19.6138 25.2615 19.7537 25.2626 19.8948V27.2211H28.2942C28.4484 27.2207 28.5986 27.1717 28.7234 27.0809C28.8481 26.9902 28.941 26.8624 28.9889 26.7158L29.1784 26.2105C29.6773 24.7461 30.4251 23.3787 31.3889 22.1684C32.2253 21.1063 32.8279 19.8796 33.1573 18.5684C33.4895 17.2407 33.5232 15.8558 33.2559 14.5134C32.9886 13.1711 32.4271 11.9047 31.6117 10.8054C30.7963 9.70609 29.7473 8.80125 28.5402 8.15599C27.3332 7.51073 25.9981 7.14111 24.631 7.07373C23.128 7.01495 21.6328 7.31681 20.2703 7.9541C18.9079 8.59138 17.7177 9.54557 16.7995 10.7369C15.792 12.0609 15.1594 13.6316 14.9679 15.2842C14.7123 17.6963 15.3903 20.1146 16.8626 22.0421C17.9272 23.2615 18.7426 24.6777 19.2626 26.2105Z" fill="#BED73B"/>
<path d="M20.9688 32.4631C21.1033 33.2196 21.4998 33.9046 22.0887 34.398C22.6776 34.8915 23.4215 35.1619 24.1898 35.1619C24.9582 35.1619 25.702 34.8915 26.2909 34.398C26.8799 33.9046 27.2763 33.2196 27.4109 32.4631H28.3582C28.4168 32.4649 28.475 32.4546 28.5295 32.433C28.5839 32.4114 28.6333 32.3789 28.6747 32.3375C28.7161 32.2961 28.7486 32.2467 28.7702 32.1922C28.7918 32.1378 28.8021 32.0795 28.8003 32.021V29.621C28.8021 29.5625 28.7918 29.5042 28.7702 29.4498C28.7486 29.3953 28.7161 29.3459 28.6747 29.3045C28.6333 29.2631 28.5839 29.2306 28.5295 29.209C28.475 29.1874 28.4168 29.1772 28.3582 29.1789H20.0214C19.9629 29.1772 19.9046 29.1874 19.8502 29.209C19.7957 29.2306 19.7463 29.2631 19.7049 29.3045C19.6635 29.3459 19.631 29.3953 19.6094 29.4498C19.5878 29.5042 19.5775 29.5625 19.5793 29.621V32.021C19.5775 32.0795 19.5878 32.1378 19.6094 32.1922C19.631 32.2467 19.6635 32.2961 19.7049 32.3375C19.7463 32.3789 19.7957 32.4114 19.8502 32.433C19.9046 32.4546 19.9629 32.4649 20.0214 32.4631H20.9688Z" fill="#BED73B"/>
<path d="M24.1899 4.86315C24.3314 4.86485 24.4717 4.83823 24.6028 4.78487C24.7338 4.73152 24.8528 4.65249 24.9529 4.55245C25.0529 4.45241 25.1319 4.33338 25.1853 4.20235C25.2387 4.07131 25.2653 3.93094 25.2636 3.78947V1.07368C25.2636 0.788924 25.1505 0.515829 24.9491 0.314474C24.7477 0.11312 24.4747 0 24.1899 0C23.9051 0 23.632 0.11312 23.4307 0.314474C23.2293 0.515829 23.1162 0.788924 23.1162 1.07368V3.78947C23.1286 4.07026 23.2457 4.33623 23.4444 4.53497C23.6431 4.7337 23.9091 4.85079 24.1899 4.86315Z" fill="#BED73B"/>
<path d="M17.0524 6.00002C17.1406 6.17451 17.2764 6.32049 17.444 6.42108C17.6117 6.52167 17.8043 6.57276 17.9998 6.56844C18.1948 6.5567 18.3866 6.51406 18.5682 6.44212C18.8181 6.29013 18.998 6.04578 19.0689 5.76204C19.1399 5.4783 19.0961 5.17803 18.9472 4.92633L17.684 2.58949C17.6094 2.46508 17.511 2.35659 17.3944 2.27022C17.2778 2.18385 17.1454 2.12128 17.0046 2.08609C16.7203 2.01502 16.4195 2.05979 16.1682 2.21055C15.917 2.3613 15.7359 2.60569 15.6648 2.88996C15.5938 3.17422 15.6385 3.47508 15.7893 3.72633L17.0524 6.00002Z" fill="#BED73B"/>
<path d="M10.6101 9.59991L12.947 10.9262C13.1182 11.0278 13.3173 11.072 13.5154 11.0525C13.7109 11.0569 13.9035 11.0058 14.0712 10.9052C14.2388 10.8046 14.3746 10.6586 14.4628 10.4841C14.6084 10.2316 14.6503 9.93243 14.5797 9.64964C14.509 9.36684 14.3312 9.12256 14.0838 8.96833L11.747 7.70518C11.5036 7.62924 11.2419 7.63729 11.0036 7.72803C10.7654 7.81877 10.5646 7.98693 10.4335 8.20551C10.3023 8.42408 10.2485 8.6804 10.2805 8.93328C10.3125 9.18616 10.4286 9.42094 10.6101 9.59991Z" fill="#BED73B"/>
<path d="M9.09517 17.242H11.7478C11.8888 17.242 12.0284 17.2142 12.1587 17.1602C12.2889 17.1063 12.4073 17.0272 12.507 16.9275C12.6067 16.8278 12.6858 16.7094 12.7397 16.5792C12.7937 16.4489 12.8215 16.3093 12.8215 16.1683C12.8215 16.0273 12.7937 15.8877 12.7397 15.7574C12.6858 15.6271 12.6067 15.5088 12.507 15.4091C12.4073 15.3094 12.2889 15.2303 12.1587 15.1763C12.0284 15.1224 11.8888 15.0946 11.7478 15.0946H9.09517C8.81041 15.0946 8.53731 15.2077 8.33596 15.4091C8.1346 15.6104 8.02148 15.8835 8.02148 16.1683C8.02148 16.453 8.1346 16.7261 8.33596 16.9275C8.53731 17.1289 8.81041 17.242 9.09517 17.242Z" fill="#BED73B"/>
<path d="M12.8844 21.4736L10.5476 22.7367C10.2977 22.8887 10.1178 23.1331 10.0469 23.4168C9.97593 23.7006 10.0197 24.0008 10.1686 24.2525C10.2568 24.427 10.3926 24.573 10.5602 24.6736C10.7278 24.7742 10.9205 24.8253 11.116 24.8209C11.311 24.8092 11.5028 24.7666 11.6844 24.6946L14.0213 23.3683C14.2711 23.2163 14.451 22.972 14.522 22.6882C14.5929 22.4045 14.5492 22.1042 14.4002 21.8525C14.246 21.6052 14.0017 21.4274 13.7189 21.3567C13.4361 21.286 13.1369 21.3279 12.8844 21.4736Z" fill="#BED73B"/>
<path d="M34.3578 23.3052L36.6946 24.6315C36.8658 24.7331 37.0649 24.7773 37.263 24.7578C37.4585 24.7622 37.6512 24.7111 37.8188 24.6105C37.9865 24.5099 38.1222 24.3639 38.2104 24.1894C38.3436 23.9503 38.385 23.6709 38.3269 23.4035C38.2687 23.136 38.115 22.899 37.8946 22.7368L35.4946 21.3473C35.2224 21.2439 34.9229 21.2378 34.6467 21.3298C34.3705 21.4219 34.1345 21.6066 33.9788 21.8526C33.9066 21.9724 33.859 22.1054 33.8389 22.2439C33.8189 22.3823 33.8268 22.5234 33.8621 22.6588C33.8974 22.7941 33.9594 22.9211 34.0446 23.0321C34.1297 23.1431 34.2362 23.236 34.3578 23.3052Z" fill="#BED73B"/>
<path d="M35.4952 16.1683C35.4935 16.3098 35.5201 16.4502 35.5735 16.5812C35.6268 16.7123 35.7059 16.8313 35.8059 16.9313C35.9059 17.0314 36.025 17.1104 36.156 17.1638C36.287 17.2171 36.4274 17.2437 36.5689 17.242H39.2847C39.4257 17.242 39.5653 17.2143 39.6955 17.1603C39.8258 17.1063 39.9442 17.0273 40.0439 16.9276C40.1436 16.8279 40.2227 16.7095 40.2766 16.5792C40.3306 16.449 40.3583 16.3093 40.3583 16.1683C40.3583 16.0273 40.3306 15.8877 40.2766 15.7575C40.2227 15.6272 40.1436 15.5088 40.0439 15.4091C39.9442 15.3094 39.8258 15.2304 39.6955 15.1764C39.5653 15.1224 39.4257 15.0947 39.2847 15.0947H36.632C36.3393 15.0878 36.0558 15.1968 35.8429 15.3978C35.63 15.5988 35.5051 15.8757 35.4952 16.1683Z" fill="#BED73B"/>
<path d="M34.9266 11.0527C35.1216 11.0409 35.3135 10.9983 35.495 10.9263L37.895 9.60003C38.0194 9.52538 38.1279 9.42696 38.2143 9.31039C38.3007 9.19382 38.3633 9.06137 38.3984 8.92062C38.4336 8.77986 38.4407 8.63356 38.4194 8.49005C38.398 8.34655 38.3486 8.20865 38.274 8.08424C38.1993 7.95983 38.1009 7.85134 37.9843 7.76497C37.8678 7.67859 37.7353 7.61603 37.5946 7.58084C37.4538 7.54565 37.3075 7.53853 37.164 7.55988C37.0205 7.58124 36.8826 7.63065 36.7582 7.70529L34.3582 9.03161C34.1522 9.15356 33.9922 9.34016 33.9031 9.5624C33.8141 9.78465 33.8009 10.0301 33.8658 10.2606C33.9306 10.491 34.0697 10.6937 34.2616 10.8369C34.4534 10.9801 34.6872 11.056 34.9266 11.0527Z" fill="#BED73B"/>
<path d="M29.8736 6.37896C30.0448 6.48051 30.244 6.52476 30.4421 6.50527C30.6375 6.50959 30.8302 6.45851 30.9979 6.35792C31.1655 6.25733 31.3013 6.11135 31.3894 5.93685L32.6526 3.60001C32.7168 3.36674 32.7022 3.11881 32.6111 2.89467C32.52 2.67053 32.3575 2.48272 32.1488 2.36036C31.9401 2.23801 31.6968 2.18795 31.4567 2.21796C31.2167 2.24797 30.9932 2.35636 30.821 2.52633L29.5579 4.86317C29.474 4.99024 29.4171 5.13317 29.3908 5.28312C29.3644 5.43307 29.3692 5.58683 29.4047 5.73487C29.4402 5.88291 29.5058 6.02207 29.5973 6.14373C29.6889 6.26539 29.8044 6.36695 29.9368 6.44211L29.8736 6.37896Z" fill="#BED73B"/>
<path d="M13.8944 38.8421C13.8944 39.8789 13.5869 40.8924 13.0109 41.7544C12.4349 42.6165 11.6162 43.2884 10.6583 43.6851C9.70045 44.0819 8.64644 44.1857 7.62957 43.9834C6.61271 43.7812 5.67865 43.2819 4.94553 42.5488C4.21241 41.8157 3.71315 40.8816 3.51088 39.8648C3.30862 38.8479 3.41243 37.7939 3.80919 36.836C4.20595 35.8781 4.87784 35.0594 5.7399 34.4834C6.60196 33.9074 7.61547 33.6 8.65226 33.6C10.0425 33.6 11.3759 34.1523 12.359 35.1353C13.3421 36.1184 13.8944 37.4518 13.8944 38.8421Z" fill="#004357"/>
<path d="M13.2632 45.5999C11.9042 46.5301 10.2995 47.0357 8.6527 47.0525C7.00126 47.0657 5.38778 46.5573 4.04218 45.5999C2.86216 46.0112 1.83922 46.7792 1.11502 47.7976C0.390813 48.816 0.0011819 50.0344 7.61055e-05 51.2841V54.3156C-0.0016183 54.4571 0.0249961 54.5975 0.0783538 54.7285C0.131711 54.8595 0.210735 54.9786 0.310775 55.0786C0.410815 55.1787 0.529852 55.2577 0.660882 55.311C0.791913 55.3644 0.932291 55.391 1.07376 55.3893H12.6948C12.775 54.0282 13.1775 52.7055 13.8694 51.5306C14.5612 50.3556 15.5224 49.3619 16.6737 48.6314C15.9611 47.2401 14.7396 46.1769 13.2632 45.663V45.5999Z" fill="#004357"/>
<path d="M44.9686 38.8421C44.9686 39.8789 44.6611 40.8924 44.0851 41.7544C43.5091 42.6165 42.6904 43.2884 41.7325 43.6851C40.7747 44.0819 39.7207 44.1857 38.7038 43.9834C37.6869 43.7812 36.7529 43.2819 36.0198 42.5488C35.2866 41.8157 34.7874 40.8816 34.5851 39.8648C34.3828 38.8479 34.4866 37.7939 34.8834 36.836C35.2802 35.8781 35.9521 35.0594 36.8141 34.4834C37.6762 33.9074 38.6897 33.6 39.7265 33.6C41.1168 33.6 42.4501 34.1523 43.4332 35.1353C44.4163 36.1184 44.9686 37.4518 44.9686 38.8421Z" fill="#004357"/>
<path d="M44.3366 45.5999C42.9777 46.5301 41.3729 47.0357 39.7261 47.0525C38.0747 47.0657 36.4612 46.5573 35.1156 45.5999C33.6392 46.1137 32.4177 47.1769 31.7051 48.5683C32.8362 49.3205 33.7819 50.3194 34.4711 51.49C35.1603 52.6605 35.575 53.9722 35.684 55.3262H47.3051C47.5801 55.3297 47.8458 55.2264 48.0461 55.0379C48.2464 54.8493 48.3657 54.5904 48.3787 54.3156V51.2841C48.3909 50.0313 48.0065 48.8068 47.2804 47.7858C46.5544 46.7648 45.524 45.9996 44.3366 45.5999Z" fill="#004357"/>
<path d="M29.4315 43.5158C29.4315 44.5526 29.124 45.5661 28.548 46.4281C27.972 47.2902 27.1533 47.9621 26.1954 48.3588C25.2376 48.7556 24.1836 48.8594 23.1667 48.6572C22.1498 48.4549 21.2158 47.9556 20.4826 47.2225C19.7495 46.4894 19.2503 45.5553 19.048 44.5385C18.8457 43.5216 18.9495 42.4676 19.3463 41.5097C19.7431 40.5518 20.415 39.7331 21.277 39.1571C22.1391 38.5811 23.1526 38.2737 24.1894 38.2737C25.5797 38.2737 26.913 38.826 27.8961 39.8091C28.8792 40.7921 29.4315 42.1255 29.4315 43.5158Z" fill="#004357"/>
<path d="M28.8003 50.2737C27.4485 51.2264 25.8432 51.7541 24.1898 51.7895C22.5314 51.7843 20.9172 51.2536 19.5793 50.2737C18.3993 50.685 17.3763 51.453 16.6521 52.4714C15.9279 53.4898 15.5383 54.7082 15.5372 55.9579V58.9263C15.5355 59.0678 15.5621 59.2081 15.6155 59.3392C15.6688 59.4702 15.7478 59.5892 15.8479 59.6893C15.9479 59.7893 16.067 59.8684 16.198 59.9217C16.329 59.9751 16.4694 60.0017 16.6109 60H31.7687C31.9102 60.0017 32.0506 59.9751 32.1816 59.9217C32.3127 59.8684 32.4317 59.7893 32.5317 59.6893C32.6318 59.5892 32.7108 59.4702 32.7641 59.3392C32.8175 59.2081 32.8441 59.0678 32.8424 58.9263V55.8947C32.832 54.655 32.4377 53.4489 31.7139 52.4424C30.9901 51.4358 29.9723 50.6782 28.8003 50.2737Z" fill="#004357"/>
</svg>
