<svg width="58" height="60" viewBox="0 0 58 60" fill="none" xmlns="http://www.w3.org/2000/svg">
<path d="M13.9932 17.9834C13.9856 16.9976 13.6868 16.036 13.1344 15.2195C12.582 14.403 11.8005 13.768 10.8883 13.3942C9.97606 13.0205 8.9737 12.9247 8.00718 13.1189C7.04065 13.313 6.15308 13.7886 5.45599 14.4857C4.7589 15.1827 4.28338 16.0703 4.08919 17.0368C3.89501 18.0034 3.99081 19.0057 4.36456 19.918C4.73831 20.8302 5.37335 21.6116 6.18986 22.1641C7.00638 22.7165 7.96795 23.0153 8.95376 23.0229C9.61745 23.0297 10.2758 22.904 10.8903 22.6532C11.5048 22.4024 12.0631 22.0314 12.5324 21.5621C13.0018 21.0928 13.3727 20.5345 13.6235 19.92C13.8744 19.3055 14 18.6471 13.9932 17.9834Z" fill="#004357"/>
<path d="M13.9928 23.0228H3.99062C2.93886 23.0228 1.9296 23.4379 1.18231 24.1781C0.435013 24.9182 0.0101131 25.9234 0 26.9751L0 33.9715H3.99062V46.9666H13.9928V33.9715H17.9834V26.9751C17.9733 25.9234 17.5484 24.9182 16.8011 24.1781C16.0538 23.4379 15.0445 23.0228 13.9928 23.0228Z" fill="#004357"/>
<path d="M53.9629 17.9834C53.9553 16.996 53.6556 16.0329 53.1015 15.2155C52.5474 14.3982 51.7637 13.7632 50.8492 13.3905C49.9348 13.0179 48.9305 12.9243 47.9629 13.1216C46.9953 13.3189 46.1078 13.7982 45.4122 14.4991C44.7167 15.2 44.2441 16.0911 44.0543 17.0602C43.8644 18.0292 43.9656 19.0328 44.3453 19.9444C44.7249 20.856 45.3659 21.6348 46.1874 22.1826C47.009 22.7305 47.9744 23.0229 48.9619 23.0229C49.6223 23.0246 50.2766 22.8952 50.8866 22.642C51.4967 22.3889 52.0504 22.0172 52.5156 21.5484C52.9808 21.0796 53.3484 20.523 53.5968 19.9111C53.8453 19.2991 53.9697 18.6439 53.9629 17.9834Z" fill="#004357"/>
<path d="M53.9625 23.0228H43.9603C43.4363 23.0228 42.9174 23.126 42.4332 23.3266C41.949 23.5271 41.5091 23.8211 41.1386 24.1917C40.768 24.5622 40.474 25.0021 40.2735 25.4863C40.0729 25.9705 39.9697 26.4894 39.9697 27.0134V34.0098H43.9603V46.9666H53.9625V33.9715H57.9531V26.9751C57.943 25.9234 57.5181 24.9182 56.7708 24.1781C56.0235 23.4379 55.0142 23.0228 53.9625 23.0228Z" fill="#004357"/>
<path d="M7.99414 5.00107V9.98934H9.98945V5.00107C9.98945 4.20389 10.3061 3.43936 10.8698 2.87568C11.4335 2.31199 12.198 1.99531 12.9952 1.99531H19.9916V0H12.9952C11.6688 0 10.3968 0.526896 9.45892 1.46478C8.52104 2.40266 7.99414 3.6747 7.99414 5.00107Z" fill="#BED73B"/>
<path d="M52.2488 4.2848L49.9593 6.57429V5.00107C49.9593 3.67691 49.4342 2.40681 48.4991 1.46929C47.564 0.531778 46.2952 0.00338658 44.9711 0L21.9482 0V1.99531H44.9711C45.766 1.99869 46.5273 2.31686 47.0882 2.88018C47.6491 3.44351 47.964 4.2061 47.964 5.00107V6.57429L45.6745 4.2848L44.2548 5.70454L48.9617 10.3986L53.7197 5.70454L52.2488 4.2848Z" fill="#BED73B"/>
<path d="M9.9897 54.9989V53.3745L12.2792 55.664L13.6989 54.2571L8.95367 49.5502L4.28516 54.2571L5.7049 55.664L7.99439 53.3745V54.9989C7.99777 56.323 8.52617 57.5918 9.46368 58.5269C10.4012 59.462 11.6713 59.9872 12.9955 59.9872H31.9765V57.9535H12.9955C12.2071 57.9536 11.4502 57.644 10.8879 57.0913C10.3257 56.5386 10.0031 55.7872 9.9897 54.9989Z" fill="#BED73B"/>
<path d="M33.9717 57.9536H35.967V59.9617H33.9717V57.9536Z" fill="#BED73B"/>
<path d="M47.964 49.9596V54.999C47.964 55.7928 47.6486 56.5541 47.0873 57.1154C46.526 57.6767 45.7648 57.992 44.971 57.992H37.9746V60.0001H44.971C46.2951 59.9967 47.5639 59.4683 48.499 58.5308C49.4341 57.5933 49.9593 56.3232 49.9593 54.999V49.9596H47.964Z" fill="#BED73B"/>
</svg>
