<svg xmlns="http://www.w3.org/2000/svg" fill="none" viewBox="0.53 0.31 46.09 46.09">
<path d="M23.581 45.1097C35.592 45.1097 45.3289 35.3728 45.3289 23.3617C45.3289 11.3507 35.592 1.61377 23.581 1.61377C11.5699 1.61377 1.83301 11.3507 1.83301 23.3617C1.83301 35.3728 11.5699 45.1097 23.581 45.1097Z" fill="#BED73B"/>
<path d="M23.581 46.4085C19.0227 46.4085 14.5669 45.0568 10.7769 42.5244C6.98684 39.992 4.03288 36.3926 2.28852 32.1814C0.544165 27.9701 0.0877624 23.3362 0.977027 18.8655C1.86629 14.3949 4.06129 10.2883 7.28444 7.0652C10.5076 3.84205 14.6141 1.64705 19.0848 0.757789C23.5554 -0.131476 28.1893 0.324927 32.4006 2.06928C36.6118 3.81364 40.2113 6.7676 42.7437 10.5576C45.2761 14.3477 46.6278 18.8035 46.6278 23.3617C46.6198 29.4717 44.1891 35.3291 39.8687 39.6494C35.5483 43.9698 29.6909 46.4005 23.581 46.4085ZM23.581 0.737828C19.104 0.737829 14.7275 2.06554 11.0052 4.55304C7.28281 7.04054 4.38176 10.5761 2.66895 14.7125C0.95613 18.8489 0.50849 23.4003 1.38264 27.7912C2.2568 32.182 4.41347 36.215 7.5799 39.38C10.7463 42.545 14.7803 44.6999 19.1715 45.5721C23.5627 46.4443 28.114 45.9946 32.2496 44.28C36.3852 42.5653 39.9195 39.6627 42.4053 35.9392C44.8912 32.2158 46.2169 27.8387 46.2149 23.3617C46.2069 17.3622 43.8194 11.6109 39.5762 7.36949C35.3329 3.12813 29.5805 0.743156 23.581 0.737828Z" fill="#BED73B"/>
<path d="M18.8688 26.1608C19.0779 26.4363 19.3721 26.635 19.7057 26.7261C20.0393 26.8173 20.3937 26.7958 20.7138 26.665C21.034 26.5342 21.302 26.3014 21.4763 26.0027C21.6506 25.704 21.7215 25.3561 21.6779 25.013C24.5285 24.0276 26.9951 22.167 28.7258 19.6968C28.9322 19.7866 29.1553 19.8312 29.3803 19.8277C29.7138 19.8314 30.0393 19.7253 30.3066 19.5257C30.6365 19.2829 30.8601 18.9223 30.9308 18.5188C30.9605 18.3138 30.9491 18.105 30.8972 17.9045C30.8453 17.704 30.7541 17.5158 30.6288 17.3509L26.3899 11.6823C26.1702 11.4556 25.8873 11.3003 25.578 11.2367C25.2688 11.1732 24.9475 11.2043 24.6562 11.3261C24.3649 11.4478 24.1171 11.6545 23.945 11.9192C23.7729 12.1839 23.6846 12.4943 23.6916 12.81C20.8145 13.7761 18.323 15.6394 16.5832 18.1262C16.3807 18.0344 16.1611 17.9864 15.9388 17.9852C15.5608 17.988 15.1962 18.1253 14.9102 18.3725C14.6242 18.6198 14.4356 18.9607 14.3782 19.3344C14.3222 19.7514 14.4305 20.1738 14.6803 20.5124L18.8688 26.1608ZM34.4044 30.2688L28.021 23.4725C27.2442 24.1793 26.4013 24.8098 25.5039 25.3553L30.2663 33.4101C30.4523 33.723 30.7019 33.9933 30.999 34.2035C31.2962 34.4137 31.6342 34.5591 31.9911 34.6303C32.348 34.7015 32.7159 34.6969 33.071 34.6168C33.426 34.5367 33.7603 34.3828 34.052 34.1653C34.3455 33.9474 34.5897 33.6701 34.7686 33.3514C34.9476 33.0327 35.0572 32.6799 35.0905 32.3159C35.1238 31.952 35.0798 31.5851 34.9616 31.2393C34.8434 30.8935 34.6535 30.5765 34.4044 30.309V30.2688ZM26.1181 32.7657V33.4806C26.1181 33.7904 25.995 34.0874 25.776 34.3065C25.557 34.5255 25.2599 34.6486 24.9501 34.6486H12.7975C12.6424 34.6512 12.4884 34.623 12.3443 34.5655C12.2003 34.508 12.0691 34.4224 11.9585 34.3137C11.848 34.205 11.7601 34.0753 11.7002 33.9323C11.6402 33.7892 11.6094 33.6357 11.6094 33.4806V32.7657C11.6132 32.4598 11.736 32.1673 11.9517 31.9502C12.0598 31.8413 12.1884 31.7549 12.3302 31.6962C12.4719 31.6374 12.6239 31.6074 12.7773 31.6079H13.3412L13.5526 31.0138C13.6763 30.6278 13.9195 30.291 14.2471 30.0522C14.5746 29.8133 14.9696 29.6846 15.375 29.6848H22.3424C22.7474 29.6862 23.1416 29.8154 23.4689 30.0541C23.7961 30.2927 24.0397 30.6286 24.1648 31.0138L24.3762 31.6079H24.93C25.0846 31.6038 25.2384 31.6308 25.3824 31.6872C25.5264 31.7436 25.6576 31.8282 25.7683 31.9361C25.8791 32.0441 25.9671 32.1731 26.0271 32.3156C26.0872 32.458 26.1181 32.6111 26.1181 32.7657Z" fill="white"/>
</svg>