<svg xmlns="http://www.w3.org/2000/svg" fill="none" viewBox="0.53 0.07 46.09 46.09">
<path d="M23.581 44.8631C35.592 44.8631 45.3289 35.1262 45.3289 23.1151C45.3289 11.1041 35.592 1.36719 23.581 1.36719C11.5699 1.36719 1.83301 11.1041 1.83301 23.1151C1.83301 35.1262 11.5699 44.8631 23.581 44.8631Z" fill="#BED73B"/>
<path d="M23.581 46.1619C19.0227 46.1619 14.5669 44.8103 10.7769 42.2779C6.98684 39.7454 4.03288 36.146 2.28852 31.9348C0.544165 27.7235 0.0877624 23.0896 0.977027 18.6189C1.86629 14.1483 4.06129 10.0418 7.28444 6.81862C10.5076 3.59547 14.6141 1.40047 19.0848 0.511207C23.5554 -0.378058 28.1893 0.0783452 32.4006 1.8227C36.6118 3.56706 40.2113 6.52102 42.7437 10.311C45.2761 14.1011 46.6278 18.5569 46.6278 23.1151C46.6198 29.2251 44.1891 35.0825 39.8687 39.4029C35.5483 43.7232 29.6909 46.1539 23.581 46.1619ZM23.581 0.491246C19.104 0.491247 14.7275 1.81896 11.0052 4.30646C7.28281 6.79396 4.38176 10.3295 2.66895 14.4659C0.95613 18.6023 0.50849 23.1538 1.38264 27.5446C2.2568 31.9354 4.41347 35.9684 7.5799 39.1334C10.7463 42.2984 14.7803 44.4533 19.1715 45.3255C23.5627 46.1977 28.114 45.748 32.2496 44.0334C36.3852 42.3187 39.9195 39.4161 42.4053 35.6927C44.8912 31.9692 46.2169 27.5922 46.2149 23.1151C46.2069 17.1156 43.8194 11.3643 39.5762 7.12291C35.3329 2.88155 29.5805 0.496574 23.581 0.491246Z" fill="#BED73B"/>
<path d="M21.2451 21.7258C21.3036 21.7815 21.3499 21.8487 21.3811 21.9232C21.4123 21.9978 21.4277 22.0779 21.4263 22.1587C21.4267 22.251 21.4082 22.3425 21.3718 22.4273C21.3354 22.5122 21.282 22.5887 21.2149 22.6521C21.0653 22.7996 20.8701 22.8919 20.6611 22.9138V21.4438C20.8785 21.4808 21.081 21.5786 21.2451 21.7258Z" fill="white"/>
<path d="M19.4326 19.5508C19.4369 19.6871 19.4865 19.8182 19.5736 19.9233C19.6976 20.0478 19.8495 20.1409 20.0166 20.1951V18.8862C19.8521 18.928 19.7044 19.0194 19.5937 19.148C19.4894 19.256 19.4316 19.4006 19.4326 19.5508Z" fill="white"/>
<path d="M23.4905 10.2174C21.8091 10.0261 21.215 11.0631 20.3793 11.1034C19.5436 11.1437 18.9395 10.0261 17.2581 10.2174C16.1562 10.3954 15.1649 10.9901 14.4893 11.8787L16.5835 13.832H24.1651L26.2694 11.8787C25.5914 10.9879 24.5961 10.3929 23.4905 10.2174Z" fill="white"/>
<path d="M24.6981 15.0908H16.019C14.7365 16.2434 13.796 17.7268 13.3005 19.3785C12.805 21.0301 12.7737 22.7863 13.2099 24.4545C13.3738 24.9966 13.7149 25.4679 14.1787 25.7929C14.6424 26.1179 15.2019 26.2777 15.7673 26.2467H17.781C19.3618 24.233 22.634 23.9008 24.7585 23.8303C24.969 22.9232 25.2868 22.0444 25.7049 21.2125C26.1241 20.3585 26.6484 19.5602 27.2656 18.8363C26.7455 17.3881 25.8613 16.0982 24.6981 15.0908ZM21.9997 23.0047C21.6186 23.3411 21.1375 23.5427 20.6304 23.5786V24.2834H19.986V23.5987C19.5238 23.5704 19.0813 23.4018 18.7174 23.1154C18.3827 22.8138 18.1652 22.4038 18.1032 21.9575L19.2712 21.8568C19.3187 22.0476 19.412 22.2238 19.543 22.3703C19.6617 22.5128 19.8139 22.6235 19.986 22.6925V21.1017C19.505 21.0167 19.0581 20.7967 18.6973 20.4674C18.4332 20.1987 18.285 19.8372 18.2845 19.4605C18.2853 19.2694 18.3271 19.0806 18.407 18.907C18.4869 18.7333 18.603 18.5787 18.7476 18.4537C19.0924 18.1534 19.5292 17.9794 19.986 17.9603V17.5878H20.6707V17.9603C21.0816 17.9864 21.4764 18.1297 21.8084 18.3731C22.0915 18.6011 22.2842 18.9223 22.3521 19.2793L21.2144 19.4102C21.1851 19.2693 21.1196 19.1385 21.0242 19.0308C20.9288 18.9231 20.807 18.8421 20.6707 18.796V20.2056C21.2082 20.2895 21.7148 20.5115 22.1407 20.85C22.2715 20.9821 22.3739 21.1395 22.4414 21.3127C22.5089 21.4859 22.5402 21.6711 22.5334 21.8568C22.5378 22.0723 22.496 22.2862 22.4109 22.4842C22.3258 22.6821 22.1994 22.8596 22.04 23.0047H21.9997Z" fill="white"/>
<path d="M31.9079 25.6423C31.7468 25.9041 31.5656 26.1458 31.3844 26.3975C32.3308 26.7901 32.9248 27.2936 32.9248 27.8473C32.9248 29.126 29.9043 30.1631 26.1487 30.1631C22.3932 30.1631 19.3827 29.1562 19.3827 27.8473C19.3827 26.7499 21.6179 25.8336 24.6083 25.6021C24.5933 25.3371 24.5933 25.0716 24.6083 24.8066C20.7923 24.9879 17.8926 25.9645 17.8926 28.9649C17.8926 32.3379 21.5474 36.0129 26.0481 36.0129C30.5487 36.0129 34.2035 32.3177 34.2035 28.9649C34.2174 28.2362 33.9997 27.522 33.5817 26.9249C33.1637 26.3278 32.5671 25.8787 31.8777 25.6423H31.9079Z" fill="white"/>
<path d="M25.8369 29.6193L26.9142 27.8975C27.0048 27.7163 26.7028 27.7566 26.4309 27.6257C26.1591 27.4948 26.008 27.223 25.9275 27.384L25.1623 29.3373C25.0717 29.5286 25.6254 30.022 25.8369 29.6193Z" fill="white"/>
<path d="M26.3999 24.9677C25.3931 23.6689 25.9569 22.7627 25.9569 22.7627C25.6146 23.0144 24.4668 26.1658 25.8764 26.8807C26.5006 27.2029 27.5679 26.4276 26.3999 24.9677Z" fill="white"/>
<path d="M27.4673 22.8735C26.4604 21.5746 27.0243 20.6685 27.0243 20.6685C26.682 20.9202 25.5341 24.0716 26.9437 24.7865C27.568 25.1087 28.6352 24.3334 27.4673 22.8735Z" fill="white"/>
<path d="M28.5044 20.85C27.4976 19.5512 28.0614 18.645 28.0614 18.645C27.7191 18.8967 26.5713 22.0381 27.9808 22.763C28.6051 23.0752 29.6724 22.3099 28.5044 20.85Z" fill="white"/>
<path d="M27.3871 27.6564C28.7967 28.3712 30.6694 25.6427 30.6795 25.1694C30.6795 25.1694 30.2969 26.1763 28.6658 26.1058C26.793 26.0152 26.793 27.3342 27.4173 27.6564H27.3871Z" fill="white"/>
<path d="M28.4545 25.5621C29.8641 26.277 31.7368 23.5484 31.7469 23.0752C31.7469 23.0752 31.3643 24.082 29.7332 24.0116C27.8604 23.931 27.8604 25.2399 28.4847 25.5621H28.4545Z" fill="white"/>
<path d="M29.4911 23.5281C30.9007 24.253 32.7734 21.5144 32.7734 21.0513C32.7734 21.0513 32.4009 22.0581 30.7597 21.9876C28.8668 21.897 28.8568 23.2261 29.4911 23.5281Z" fill="white"/>
<path d="M29.6329 21.6255C31.1331 22.3907 31.1834 18.3936 31.1834 18.3936C30.8411 18.5949 28.1427 20.8603 29.6329 21.6255Z" fill="white"/>
</svg>