<svg fill="none" xmlns="http://www.w3.org/2000/svg" viewBox="0 0 70.64 52.01"> <path d="M64.3949 15.8972L64.9049 17.0072C64.9837 17.1877 65.1139 17.3409 65.2794 17.4476C65.4448 17.5544 65.6381 17.6099 65.8349 17.6072C65.9809 17.6077 66.1249 17.5734 66.2549 17.5072C66.378 17.4534 66.489 17.3752 66.5812 17.2775C66.6735 17.1798 66.7451 17.0645 66.7917 16.9385C66.8384 16.8125 66.8592 16.6783 66.8529 16.5441C66.8465 16.4099 66.8132 16.2783 66.7549 16.1572L66.2449 15.0072C66.1911 14.8841 66.1129 14.7732 66.0152 14.6809C65.9175 14.5887 65.8022 14.5171 65.6762 14.4705C65.5501 14.4238 65.416 14.403 65.2818 14.4093C65.1476 14.4156 65.016 14.4489 64.8949 14.5072C64.7718 14.5611 64.6609 14.6393 64.5686 14.737C64.4764 14.8347 64.4048 14.95 64.3581 15.076C64.3115 15.202 64.2907 15.3362 64.297 15.4704C64.3033 15.6046 64.3366 15.7362 64.3949 15.8572V15.8972Z" fill="white"/> <path d="M62.1054 10.1772C62.0545 10.2991 62.0283 10.43 62.0283 10.5622C62.0283 10.6943 62.0545 10.8252 62.1054 10.9472L63.0054 12.7972C63.0841 12.9776 63.2144 13.1308 63.3798 13.2375C63.5453 13.3443 63.7385 13.3998 63.9354 13.3972C64.0801 13.3961 64.223 13.3655 64.3554 13.3072C64.4785 13.2533 64.5895 13.1751 64.6817 13.0774C64.7739 12.9797 64.8455 12.8644 64.8922 12.7384C64.9389 12.6124 64.9597 12.4782 64.9533 12.344C64.947 12.2098 64.9137 12.0782 64.8554 11.9572L64.0054 10.0972C63.9506 9.97493 63.8718 9.86496 63.7736 9.77377C63.6755 9.68259 63.5601 9.61206 63.4341 9.56635C63.3082 9.52065 63.1744 9.50071 63.0406 9.50772C62.9069 9.51473 62.7759 9.54854 62.6554 9.60716C62.5334 9.66191 62.4237 9.74057 62.3327 9.83847C62.2416 9.93638 62.1712 10.0515 62.1254 10.1772H62.1054Z" fill="white"/> <path d="M59.8651 6.00733L60.7151 7.85733C60.769 7.98043 60.8471 8.09141 60.9448 8.18364C61.0426 8.27587 61.1579 8.34745 61.2839 8.39412C61.4099 8.44079 61.544 8.46159 61.6782 8.45527C61.8125 8.44895 61.944 8.41564 62.0651 8.35733C62.2456 8.2786 62.3988 8.14834 62.5055 7.9829C62.6122 7.81746 62.6678 7.6242 62.6651 7.42733C62.6613 7.28298 62.6308 7.14058 62.5751 7.00733L61.7251 5.14733C61.6111 4.90068 61.4037 4.70944 61.1487 4.61567C60.8936 4.5219 60.6118 4.53329 60.3651 4.64733C60.1185 4.76138 59.9272 4.96873 59.8334 5.22378C59.7397 5.47883 59.7511 5.76068 59.8651 6.00733Z" fill="white"/> <path d="M55.705 10.5373C55.7096 10.3388 55.655 10.1433 55.5482 9.97591C55.4413 9.8085 55.287 9.6767 55.105 9.59731C54.9838 9.54091 54.8525 9.50936 54.7189 9.50455C54.5854 9.49974 54.4522 9.52176 54.3272 9.56931C54.2023 9.61685 54.0882 9.68896 53.9916 9.78137C53.895 9.87378 53.818 9.98461 53.765 10.1073L52.915 12.0073C52.8148 12.2577 52.8148 12.537 52.915 12.7873C52.9607 12.9129 53.0312 13.0281 53.1222 13.126C53.2133 13.2239 53.323 13.3026 53.445 13.3573C53.5773 13.4157 53.7203 13.4463 53.865 13.4473C54.0607 13.4508 54.2532 13.3968 54.4185 13.2919C54.5838 13.187 54.7147 13.0359 54.795 12.8573L55.615 11.0073C55.675 10.8755 55.7057 10.7322 55.705 10.5873V10.5373Z" fill="white"/> <path d="M53.3853 15.1475V15.0675C53.3469 14.9808 53.2964 14.9 53.2353 14.8275L53.1853 14.7575C53.0964 14.6701 52.9954 14.596 52.8853 14.5375C52.8388 14.5327 52.7918 14.5327 52.7453 14.5375C52.5486 14.4784 52.3385 14.4812 52.1435 14.5456C51.9485 14.61 51.778 14.7329 51.6553 14.8975C51.6035 14.9472 51.5597 15.0045 51.5253 15.0675L51.0053 16.1575C50.947 16.2786 50.9137 16.4102 50.9074 16.5444C50.901 16.6786 50.9218 16.8128 50.9685 16.9388C51.0152 17.0648 51.0868 17.1801 51.179 17.2778C51.2712 17.3755 51.3822 17.4537 51.5053 17.5075C51.6409 17.567 51.7873 17.5976 51.9353 17.5975C52.1294 17.5991 52.3197 17.5441 52.483 17.4393C52.6464 17.3346 52.7757 17.1846 52.8553 17.0075L53.3653 15.8975C53.4072 15.7814 53.4341 15.6605 53.4453 15.5375V15.4775C53.4375 15.3681 53.4139 15.2603 53.3753 15.1575L53.3853 15.1475Z" fill="white"/> <path d="M57.0049 7.8673L57.8849 6.0073C57.9432 5.88623 57.9765 5.75466 57.9828 5.62044C57.9891 5.48621 57.9683 5.35209 57.9217 5.22608C57.875 5.10007 57.8034 4.98476 57.7112 4.88704C57.619 4.78931 57.508 4.71118 57.3849 4.6573C57.1348 4.54647 56.8515 4.53662 56.5943 4.6298C56.3372 4.72299 56.1259 4.91199 56.0049 5.1573L55.1749 7.0073C55.1226 7.13068 55.0957 7.26331 55.0957 7.3973C55.0957 7.53129 55.1226 7.66392 55.1749 7.7873C55.2206 7.91291 55.2911 8.02807 55.3822 8.12598C55.4732 8.22388 55.5829 8.30254 55.7049 8.3573C55.8359 8.42082 55.9793 8.45495 56.1249 8.4573C56.3201 8.45798 56.5112 8.40153 56.6746 8.29492C56.8381 8.1883 56.9668 8.03618 57.0449 7.8573L57.0049 7.8673Z" fill="white"/> <path d="M42.2455 28.9174C41.7255 25.5474 39.7055 23.2174 36.9655 22.6874V12.8374C37.9622 12.5879 38.8578 12.0375 39.5306 11.261C40.2034 10.4844 40.6206 9.51946 40.7255 8.49738L57.4855 3.00738C57.5786 3.20514 57.7377 3.36426 57.9355 3.45738C58.0802 3.53442 58.2416 3.57471 58.4055 3.57471C58.5694 3.57471 58.7308 3.53442 58.8755 3.45738C59.0298 3.54897 59.206 3.59733 59.3855 3.59738C59.5314 3.59783 59.6754 3.56356 59.8055 3.49738C59.9286 3.4435 60.0395 3.36537 60.1318 3.26764C60.224 3.16992 60.2956 3.05461 60.3423 2.9286C60.3889 2.80259 60.4097 2.66847 60.4034 2.53424C60.3971 2.40002 60.3638 2.26845 60.3055 2.14738L60.0555 1.59738C60.1257 1.38144 60.1343 1.15019 60.0802 0.929635C60.0262 0.709085 59.9117 0.507995 59.7496 0.348995C59.5874 0.189995 59.3842 0.079396 59.1626 0.0296436C58.9411 -0.0201089 58.71 -0.00703972 58.4955 0.0673803L40.3555 6.00738C39.9148 4.92419 39.1083 4.02975 38.0764 3.47959C37.0445 2.92944 35.8524 2.75838 34.7074 2.99618C33.5624 3.23397 32.537 3.86557 31.8095 4.78113C31.082 5.69669 30.6984 6.83828 30.7255 8.00738C30.7258 8.40484 30.7728 8.80088 30.8655 9.18738L11.3955 15.5774C11.1403 15.6645 10.9209 15.8331 10.771 16.0571C10.621 16.2812 10.5488 16.5483 10.5655 16.8174L10.3455 17.2974C10.2398 17.4934 10.2025 17.719 10.2395 17.9386C10.2766 18.1582 10.3859 18.3591 10.5501 18.5095C10.7143 18.6599 10.924 18.7512 11.146 18.769C11.3679 18.7867 11.5895 18.7298 11.7755 18.6074C11.9308 18.6955 12.1069 18.7404 12.2855 18.7374C12.434 18.7425 12.5815 18.7117 12.7155 18.6474C12.9204 18.5527 13.0873 18.3915 13.1889 18.19C13.2906 17.9885 13.3211 17.7584 13.2755 17.5374L32.0055 11.3574C32.6686 12.0839 33.5312 12.5987 34.4855 12.8374V22.6974C31.8255 23.2074 29.8855 25.4274 29.2155 28.8174L25.1655 45.7474C25.1556 45.8405 25.1556 45.9343 25.1655 46.0274V50.7974C25.168 51.1141 25.2935 51.4174 25.5156 51.6432C25.7377 51.869 26.0389 51.9996 26.3555 52.0074H44.3055C44.63 52.0047 44.9402 51.874 45.1688 51.6436C45.3973 51.4132 45.5255 51.1019 45.5255 50.7774V46.0074C45.5309 45.9308 45.5309 45.854 45.5255 45.7774L42.2455 28.9174ZM33.1755 8.00738C33.1735 7.49824 33.3228 6.99998 33.6044 6.57581C33.8861 6.15165 34.2873 5.8207 34.7573 5.62494C35.2274 5.42919 35.7449 5.37745 36.2444 5.4763C36.7438 5.57514 37.2027 5.82011 37.5627 6.18014C37.9227 6.54016 38.1677 6.999 38.2666 7.49847C38.3654 7.99793 38.3137 8.51549 38.1179 8.98551C37.9222 9.45552 37.5912 9.85679 37.167 10.1384C36.7429 10.4201 36.2446 10.5694 35.7355 10.5674C35.0573 10.5647 34.4077 10.2942 33.9282 9.81466C33.4487 9.33514 33.1781 8.68552 33.1755 8.00738ZM43.0755 49.5874H27.5755V46.1874L31.6355 29.3574C32.0055 27.7274 32.9155 25.0074 35.7355 25.0074C38.2655 25.0074 39.5055 27.2174 39.8355 29.3174L43.0755 46.1274V49.5874Z" fill="white"/> <path d="M54.2646 21.7672C54.2825 21.9994 54.2523 22.2327 54.1757 22.4527C54.0991 22.6726 53.978 22.8744 53.8197 23.0452C53.6615 23.2161 53.4697 23.3525 53.2563 23.4457C53.0429 23.5389 52.8125 23.5871 52.5796 23.5871C52.3468 23.5871 52.1164 23.5389 51.903 23.4457C51.6896 23.3525 51.4978 23.2161 51.3396 23.0452C51.1813 22.8744 51.0602 22.6726 50.9836 22.4527C50.907 22.2327 50.8767 21.9994 50.8946 21.7672C50.8767 21.535 50.907 21.3016 50.9836 21.0817C51.0602 20.8617 51.1813 20.66 51.3396 20.4891C51.4978 20.3182 51.6896 20.1819 51.903 20.0886C52.1164 19.9954 52.3468 19.9473 52.5796 19.9473C52.8125 19.9473 53.0429 19.9954 53.2563 20.0886C53.4697 20.1819 53.6615 20.3182 53.8197 20.4891C53.978 20.66 54.0991 20.8617 54.1757 21.0817C54.2523 21.3016 54.2825 21.535 54.2646 21.7672Z" fill="white"/> <path d="M52.5753 33.3973C52.758 33.4068 52.9407 33.3792 53.1126 33.3164C53.2844 33.2535 53.4418 33.1567 53.5753 33.0315C53.7088 32.9064 53.8157 32.7557 53.8896 32.5883C53.9635 32.4209 54.0028 32.2403 54.0053 32.0573V29.2073H54.4153C54.5094 29.2074 54.6025 29.1887 54.6893 29.1524C54.7761 29.1161 54.8548 29.0629 54.9209 28.9959C54.9869 28.9289 55.039 28.8494 55.0741 28.7621C55.1092 28.6748 55.1266 28.5814 55.1253 28.4873V26.6073C55.0848 25.9651 54.8012 25.3625 54.3321 24.922C53.863 24.4815 53.2437 24.2363 52.6003 24.2363C51.9568 24.2363 51.3375 24.4815 50.8684 24.922C50.3993 25.3625 50.1157 25.9651 50.0753 26.6073V28.4873C50.0739 28.5814 50.0913 28.6748 50.1264 28.7621C50.1615 28.8494 50.2136 28.9289 50.2796 28.9959C50.3457 29.0629 50.4244 29.1161 50.5112 29.1524C50.598 29.1887 50.6912 29.2074 50.7853 29.2073H51.2253V32.0573C51.2356 32.4146 51.3842 32.754 51.6397 33.0039C51.8953 33.2539 52.2378 33.3949 52.5953 33.3973H52.5753Z" fill="white"/> <path d="M60.5553 21.7674C60.5553 22.213 60.3783 22.6403 60.0633 22.9553C59.7482 23.2704 59.3209 23.4474 58.8753 23.4474C58.4297 23.4474 58.0024 23.2704 57.6874 22.9553C57.3723 22.6403 57.1953 22.213 57.1953 21.7674C57.1953 21.3218 57.3723 20.8945 57.6874 20.5795C58.0024 20.2644 58.4297 20.0874 58.8753 20.0874C59.3209 20.0874 59.7482 20.2644 60.0633 20.5795C60.3783 20.8945 60.5553 21.3218 60.5553 21.7674Z" fill="white"/> <path d="M58.8745 33.3974C59.0548 33.4027 59.2343 33.3721 59.4027 33.3074C59.571 33.2427 59.7248 33.1451 59.8551 33.0204C59.9853 32.8957 60.0895 32.7464 60.1615 32.581C60.2335 32.4157 60.272 32.2377 60.2745 32.0574V29.2074H60.6845C60.7786 29.2074 60.8718 29.1887 60.9586 29.1524C61.0454 29.1161 61.1241 29.0629 61.1901 28.9959C61.2562 28.9289 61.3083 28.8494 61.3434 28.7621C61.3785 28.6748 61.3959 28.5814 61.3945 28.4874V26.6074C61.3018 26.0108 60.9989 25.4671 60.5405 25.0744C60.082 24.6817 59.4982 24.4658 58.8945 24.4658C58.2909 24.4658 57.7071 24.6817 57.2486 25.0744C56.7901 25.4671 56.4872 26.0108 56.3945 26.6074V28.4874C56.3945 28.6783 56.4704 28.8615 56.6054 28.9965C56.7404 29.1315 56.9236 29.2074 57.1145 29.2074H57.5445V32.0574C57.5549 32.4164 57.7049 32.7572 57.9626 33.0074C58.2203 33.2576 58.5654 33.3975 58.9245 33.3974H58.8745Z" fill="white"/> <path d="M66.8555 21.7774C66.8734 22.0096 66.8431 22.243 66.7665 22.4629C66.69 22.6829 66.5688 22.8846 66.4106 23.0555C66.2523 23.2264 66.0605 23.3627 65.8471 23.456C65.6337 23.5492 65.4034 23.5973 65.1705 23.5973C64.9376 23.5973 64.7072 23.5492 64.4938 23.456C64.2804 23.3627 64.0886 23.2264 63.9304 23.0555C63.7722 22.8846 63.651 22.6829 63.5744 22.4629C63.4979 22.243 63.4676 22.0096 63.4855 21.7774C63.4676 21.5452 63.4979 21.3118 63.5744 21.0919C63.651 20.872 63.7722 20.6702 63.9304 20.4994C64.0886 20.3285 64.2804 20.1921 64.4938 20.0989C64.7072 20.0057 64.9376 19.9575 65.1705 19.9575C65.4034 19.9575 65.6337 20.0057 65.8471 20.0989C66.0605 20.1921 66.2523 20.3285 66.4106 20.4994C66.5688 20.6702 66.69 20.872 66.7665 21.0919C66.8431 21.3118 66.8734 21.5452 66.8555 21.7774Z" fill="white"/> <path d="M62.6445 26.6176V28.4976C62.6445 28.5909 62.6629 28.6832 62.6986 28.7693C62.7343 28.8555 62.7866 28.9337 62.8525 28.9997C62.9184 29.0656 62.9967 29.1179 63.0828 29.1536C63.169 29.1893 63.2613 29.2076 63.3545 29.2076H63.7845V32.0676C63.7975 32.4249 63.9486 32.7632 64.206 33.0113C64.4634 33.2593 64.807 33.3979 65.1645 33.3976C65.3443 33.4043 65.5236 33.375 65.6919 33.3114C65.8602 33.2478 66.0141 33.1512 66.1445 33.0273C66.2749 32.9034 66.3793 32.7547 66.4514 32.5899C66.5235 32.4251 66.562 32.2475 66.5645 32.0676V29.2076H67.0045C67.0986 29.2089 67.192 29.1916 67.2793 29.1565C67.3666 29.1214 67.4461 29.0693 67.5131 29.0032C67.58 28.9372 67.6332 28.8584 67.6695 28.7717C67.7059 28.6849 67.7245 28.5917 67.7245 28.4976V26.6176C67.6318 26.0211 67.3289 25.4774 66.8705 25.0847C66.412 24.6919 65.8282 24.4761 65.2245 24.4761C64.6209 24.4761 64.0371 24.6919 63.5786 25.0847C63.1201 25.4774 62.8172 26.0211 62.7245 26.6176H62.6445Z" fill="white"/> <path d="M69.4347 31.2275C69.1102 31.2275 68.7989 31.3557 68.5685 31.5843C68.3381 31.8128 68.2074 32.1231 68.2047 32.4475C68.2047 32.7364 68.1478 33.0225 68.0373 33.2894C67.9267 33.5564 67.7646 33.7989 67.5604 34.0032C67.3561 34.2075 67.1135 34.3695 66.8466 34.4801C66.5797 34.5906 66.2936 34.6475 66.0047 34.6475H51.7347C51.1539 34.6475 50.5969 34.4168 50.1862 34.0061C49.7755 33.5954 49.5447 33.0384 49.5447 32.4575C49.5171 32.1518 49.376 31.8674 49.1494 31.6603C48.9227 31.4532 48.6268 31.3383 48.3197 31.3383C48.0127 31.3383 47.7168 31.4532 47.4901 31.6603C47.2634 31.8674 47.1224 32.1518 47.0947 32.4575C47.0947 33.6881 47.5836 34.8683 48.4538 35.7385C49.3239 36.6087 50.5041 37.0975 51.7347 37.0975H66.0047C67.2345 37.0949 68.4132 36.6052 69.2828 35.7356C70.1524 34.866 70.6421 33.6873 70.6447 32.4575C70.646 32.2973 70.6158 32.1384 70.5557 31.9899C70.4956 31.8414 70.4068 31.7061 70.2945 31.5919C70.1821 31.4777 70.0484 31.3867 69.9008 31.3242C69.7533 31.2617 69.5949 31.2288 69.4347 31.2275Z" fill="white"/> <path d="M22.335 44.2773C22.0114 44.2773 21.7011 44.4058 21.4723 44.6346C21.2435 44.8634 21.115 45.1737 21.115 45.4973C21.1124 46.08 20.8797 46.638 20.4677 47.05C20.0557 47.462 19.4977 47.6947 18.915 47.6973H4.645C4.06418 47.6973 3.50714 47.4666 3.09644 47.0559C2.68573 46.6452 2.455 46.0881 2.455 45.5073C2.47039 45.3371 2.45016 45.1656 2.39559 45.0037C2.34102 44.8418 2.25332 44.693 2.13807 44.5669C2.02282 44.4407 1.88255 44.34 1.7262 44.271C1.56986 44.2021 1.40087 44.1665 1.23 44.1665C1.05913 44.1665 0.890142 44.2021 0.733797 44.271C0.577452 44.34 0.437183 44.4407 0.321932 44.5669C0.206681 44.693 0.118977 44.8418 0.0644097 45.0037C0.00984243 45.1656 -0.0103907 45.3371 0.00500011 45.5073C0.00500011 46.7379 0.493856 47.9181 1.36402 48.7883C2.23419 49.6584 3.4144 50.1473 4.645 50.1473H18.925C20.1548 50.1447 21.3335 49.655 22.2031 48.7854C23.0727 47.9158 23.5624 46.7371 23.565 45.5073C23.5624 45.1828 23.4316 44.8725 23.2012 44.644C22.9708 44.4155 22.6595 44.2873 22.335 44.2873V44.2773Z" fill="white"/> <path d="M11.7855 27.5576C11.461 27.5576 11.1496 27.6858 10.9193 27.9143C10.6889 28.1428 10.5581 28.4531 10.5555 28.7776V29.7776C9.66796 29.9036 8.86261 30.3653 8.30548 31.0676C7.8412 31.653 7.55016 32.3567 7.46532 33.099C7.38049 33.8413 7.50525 34.5926 7.82548 35.2676C8.56548 37.1876 12.0755 37.8076 12.0755 37.8076C12.7255 37.9676 13.9855 38.2176 13.9855 39.7376C13.9855 40.3176 13.6255 41.4576 11.7555 41.4576C11.4799 41.4905 11.2005 41.4623 10.9371 41.375C10.6736 41.2878 10.4327 41.1436 10.2313 40.9527C10.0298 40.7617 9.87295 40.5288 9.77171 40.2704C9.67047 40.012 9.62737 39.7345 9.64548 39.4576C9.64548 39.4576 9.64548 38.6376 8.64548 38.6376C8.39054 38.6055 8.13303 38.6728 7.92636 38.8255C7.71969 38.9781 7.57972 39.2045 7.53548 39.4576C7.44482 40.3635 7.6904 41.2711 8.22548 42.0076C8.78847 42.7859 9.61759 43.3303 10.5555 43.5376V44.7376C10.5831 45.0434 10.7242 45.3278 10.9508 45.5349C11.1775 45.742 11.4734 45.8568 11.7805 45.8568C12.0875 45.8568 12.3835 45.742 12.6101 45.5349C12.8368 45.3278 12.9778 45.0434 13.0055 44.7376V43.5276C13.8991 43.2834 14.6872 42.7512 15.2477 42.0136C15.8081 41.2759 16.1096 40.374 16.1055 39.4476C16.1055 38.4476 15.7255 36.7976 13.3155 35.9676L11.1555 35.2576C10.8255 35.1476 9.47548 34.6676 9.62548 33.3376C9.62573 33.1079 9.68129 32.8817 9.78747 32.6781C9.89365 32.4744 10.0473 32.2993 10.2355 32.1676C10.6062 31.945 11.0332 31.8339 11.4655 31.8476H11.5355C11.6185 31.8581 11.7025 31.8581 11.7855 31.8476H11.8655C12.1244 31.8373 12.3822 31.886 12.6196 31.9899C12.8569 32.0938 13.0675 32.2504 13.2355 32.4476C13.445 32.7395 13.5601 33.0884 13.5655 33.4476C13.5955 33.684 13.7171 33.8992 13.9041 34.0469C14.0911 34.1946 14.3286 34.2631 14.5655 34.2376C14.6969 34.2529 14.8301 34.2419 14.9573 34.2053C15.0845 34.1687 15.2031 34.1073 15.3064 34.0245C15.4096 33.9417 15.4954 33.8392 15.5588 33.723C15.6221 33.6069 15.6618 33.4792 15.6755 33.3476C15.716 32.5369 15.4797 31.7364 15.0055 31.0776C14.5069 30.4383 13.7986 29.9956 13.0055 29.8276V28.7776C13.0003 28.454 12.8687 28.1452 12.6389 27.9172C12.409 27.6892 12.0992 27.5602 11.7755 27.5576H11.7855Z" fill="white"/> <path d="M17.3049 31.1173L17.8149 32.2273C17.8951 32.4059 18.026 32.557 18.1913 32.6618C18.3567 32.7667 18.5491 32.8208 18.7449 32.8173C18.8901 32.8212 19.0341 32.7904 19.1649 32.7273C19.288 32.6734 19.399 32.5953 19.4912 32.4975C19.5834 32.3998 19.655 32.2845 19.7017 32.1585C19.7483 32.0325 19.7691 31.8984 19.7628 31.7641C19.7565 31.6299 19.7232 31.4983 19.6649 31.3773L19.1549 30.2673C19.0991 30.1458 19.0199 30.0365 18.9218 29.9457C18.8238 29.8548 18.7088 29.7841 18.5834 29.7377C18.4581 29.6913 18.3248 29.67 18.1912 29.6751C18.0576 29.6801 17.9263 29.7115 17.8049 29.7673C17.6834 29.8231 17.5741 29.9023 17.4832 30.0003C17.3924 30.0984 17.3217 30.2134 17.2753 30.3387C17.2289 30.4641 17.2076 30.5974 17.2126 30.7309C17.2177 30.8645 17.2491 30.9958 17.3049 31.1173Z" fill="white"/> <path d="M14.6348 20.3772C14.5158 20.1351 14.3081 19.9481 14.0549 19.855C13.8017 19.7619 13.5223 19.7699 13.2748 19.8772C13.1517 19.9311 13.0407 20.0092 12.9485 20.1069C12.8563 20.2047 12.7847 20.32 12.738 20.446C12.6914 20.572 12.6706 20.7061 12.6769 20.8403C12.6832 20.9746 12.7165 21.1061 12.7748 21.2272L13.6248 23.0772C13.7036 23.2577 13.8338 23.4109 13.9993 23.5176C14.1647 23.6243 14.358 23.6799 14.5548 23.6772C14.6997 23.678 14.843 23.6473 14.9748 23.5872C15.1553 23.5085 15.3085 23.3782 15.4152 23.2128C15.5219 23.0473 15.5775 22.8541 15.5748 22.6572C15.5756 22.5123 15.5449 22.369 15.4848 22.2372L14.6348 20.3772Z" fill="white"/> <path d="M16.8948 25.3275C16.7834 25.0808 16.5786 24.8885 16.3254 24.7929C16.0722 24.6973 15.7914 24.7061 15.5448 24.8175C15.2981 24.9289 15.1058 25.1337 15.0102 25.3869C14.9145 25.64 14.9234 25.9208 15.0348 26.1675L15.8848 28.0075C15.965 28.1861 16.0959 28.3372 16.2612 28.4421C16.4266 28.5469 16.619 28.601 16.8148 28.5975C16.964 28.5988 17.1114 28.5645 17.2448 28.4975C17.3657 28.4426 17.4745 28.3642 17.5649 28.2668C17.6552 28.1694 17.7252 28.055 17.7708 27.9303C17.8164 27.8055 17.8367 27.6729 17.8305 27.5402C17.8244 27.4076 17.7918 27.2775 17.7348 27.1575L16.8948 25.3275Z" fill="white"/> <path d="M6.31513 28.5275C6.4507 28.5869 6.59711 28.6176 6.74513 28.6175C6.94312 28.6193 7.1372 28.5623 7.30276 28.4537C7.46832 28.3451 7.59792 28.1898 7.67513 28.0075L8.51513 26.1475C8.57865 26.0165 8.61278 25.8731 8.61513 25.7275C8.61778 25.5306 8.56225 25.3374 8.45552 25.1719C8.34878 25.0065 8.19558 24.8762 8.01513 24.7975C7.89395 24.7411 7.76269 24.7096 7.62911 24.7047C7.49553 24.6999 7.36234 24.722 7.23742 24.7695C7.1125 24.817 6.99837 24.8892 6.90179 24.9816C6.80521 25.074 6.72814 25.1848 6.67513 25.3075L5.82513 27.1575C5.77425 27.2795 5.74805 27.4103 5.74805 27.5425C5.74805 27.6747 5.77425 27.8055 5.82513 27.9275C5.86859 28.0541 5.93701 28.1706 6.02633 28.2702C6.11565 28.3698 6.22406 28.4505 6.34513 28.5075L6.31513 28.5275Z" fill="white"/> <path d="M8.58528 23.5872C8.70745 23.6469 8.84049 23.681 8.97627 23.6874C9.11206 23.6939 9.24774 23.6726 9.37503 23.6249C9.50231 23.5772 9.61853 23.504 9.71658 23.4098C9.81462 23.3157 9.89244 23.2025 9.94528 23.0772L10.7853 21.2272C10.842 21.1067 10.874 20.976 10.8795 20.8429C10.885 20.7097 10.8639 20.5768 10.8173 20.452C10.7707 20.3272 10.6997 20.2129 10.6083 20.1159C10.5169 20.0189 10.4071 19.9412 10.2853 19.8872C10.1637 19.8273 10.0313 19.7927 9.89595 19.7856C9.76062 19.7784 9.62525 19.7988 9.49806 19.8456C9.37087 19.8924 9.25451 19.9645 9.15604 20.0576C9.05758 20.1507 8.97907 20.2629 8.92528 20.3872L8.07528 22.2372C8.02302 22.3606 7.99609 22.4932 7.99609 22.6272C7.99609 22.7612 8.02302 22.8939 8.07528 23.0172C8.12104 23.1429 8.19151 23.258 8.28255 23.3559C8.37358 23.4538 8.48332 23.5325 8.60528 23.5872H8.58528Z" fill="white"/> <path d="M4.39494 32.7276C4.53085 32.7859 4.67704 32.8165 4.82494 32.8176C5.02069 32.8211 5.21316 32.767 5.37848 32.6621C5.5438 32.5572 5.6747 32.4061 5.75494 32.2276L6.25494 31.1276C6.29684 31.0149 6.32374 30.8972 6.33494 30.7776V30.7176C6.35012 30.6114 6.35012 30.5037 6.33494 30.3976C6.34035 30.3644 6.34035 30.3307 6.33494 30.2976C6.30707 30.2213 6.26649 30.1503 6.21494 30.0876L6.00494 30.0076C5.93207 29.9342 5.8476 29.8734 5.75494 29.8276C5.63387 29.7693 5.5023 29.7359 5.36808 29.7296C5.23385 29.7233 5.09973 29.7441 4.97372 29.7908C4.84771 29.8374 4.7324 29.909 4.63468 30.0013C4.53695 30.0935 4.45882 30.2045 4.40494 30.3276L3.89494 31.4476C3.83663 31.5686 3.80333 31.7002 3.79701 31.8344C3.79068 31.9686 3.81148 32.1028 3.85815 32.2288C3.90482 32.3548 3.97641 32.4701 4.06863 32.5678C4.16086 32.6655 4.27184 32.7437 4.39494 32.7976V32.7276Z" fill="white"/> </svg>