<svg fill="none" xmlns="http://www.w3.org/2000/svg" viewBox="0.75 0 472.5 263"> <g style="mix-blend-mode:multiply"> <path fill-rule="evenodd" clip-rule="evenodd" d="M0.748045 0C31.6592 100.733 125.739 174 237 174C348.262 174 442.341 100.733 473.253 0H0.748045Z" fill="#004357"/> </g> <path d="M162.66 263C206.567 263 242.16 227.407 242.16 183.5C242.16 139.593 206.567 104 162.66 104C118.754 104 83.1602 139.593 83.1602 183.5C83.1602 227.407 118.754 263 162.66 263Z" fill="#1F8A71"/> <g opacity="0.54"> <path opacity="0.54" d="M168.326 181.912C168.328 180.061 167.78 178.251 166.753 176.711C165.726 175.171 164.265 173.97 162.555 173.261C160.846 172.551 158.964 172.365 157.148 172.725C155.333 173.085 153.664 173.975 152.355 175.284C151.045 176.592 150.153 178.259 149.792 180.075C149.43 181.89 149.615 183.772 150.323 185.482C151.031 187.193 152.23 188.654 153.769 189.683C155.308 190.712 157.118 191.261 158.969 191.261C161.448 191.258 163.826 190.273 165.58 188.52C167.334 186.768 168.322 184.391 168.326 181.912ZM153.354 181.912C153.353 180.8 153.681 179.714 154.297 178.789C154.913 177.865 155.79 177.144 156.816 176.718C157.843 176.292 158.972 176.18 160.062 176.396C161.152 176.613 162.153 177.148 162.939 177.933C163.724 178.719 164.259 179.72 164.476 180.81C164.692 181.9 164.58 183.029 164.154 184.056C163.728 185.082 163.007 185.959 162.083 186.575C161.158 187.191 160.071 187.519 158.96 187.518C157.476 187.513 156.053 186.921 155.004 185.87C153.955 184.82 153.365 183.396 153.363 181.912H153.354Z" fill="white"/> <path opacity="0.54" d="M155.233 202.489H162.719C163.216 202.489 163.692 202.292 164.043 201.941C164.394 201.59 164.591 201.114 164.591 200.618L164.674 197.74C165.201 197.552 165.718 197.336 166.221 197.091L168.242 199.104C168.6 199.441 169.073 199.628 169.565 199.628C170.056 199.628 170.529 199.441 170.887 199.104L176.177 193.814C176.526 193.462 176.721 192.987 176.721 192.491C176.721 191.996 176.526 191.521 176.177 191.169L174.198 189.073C174.436 188.566 174.647 188.047 174.83 187.517H177.683C178.179 187.517 178.655 187.32 179.006 186.969C179.357 186.618 179.554 186.142 179.554 185.646V178.16C179.554 177.664 179.357 177.188 179.006 176.837C178.655 176.486 178.179 176.289 177.683 176.289L174.813 176.214C174.63 175.715 174.422 175.216 174.156 174.658L176.177 172.645C176.524 172.291 176.718 171.815 176.718 171.319C176.718 170.823 176.524 170.347 176.177 169.992L170.879 164.719C170.528 164.368 170.052 164.171 169.556 164.171C169.06 164.171 168.585 164.368 168.234 164.719L166.138 166.69C165.655 166.465 165.165 166.266 164.582 166.058V163.205C164.582 162.709 164.385 162.233 164.034 161.882C163.683 161.531 163.207 161.333 162.711 161.333H155.225C154.729 161.333 154.253 161.531 153.902 161.882C153.551 162.233 153.354 162.709 153.354 163.205L153.27 166.083C152.743 166.269 152.226 166.486 151.723 166.732L149.702 164.719C149.346 164.378 148.872 164.188 148.38 164.188C147.887 164.188 147.413 164.378 147.057 164.719L141.767 170.009C141.417 170.36 141.22 170.835 141.22 171.331C141.22 171.827 141.417 172.303 141.767 172.654L143.747 174.75C143.507 175.256 143.295 175.775 143.115 176.305H140.27C139.774 176.305 139.298 176.502 138.947 176.853C138.596 177.204 138.398 177.68 138.398 178.177V185.663C138.398 186.159 138.596 186.635 138.947 186.986C139.298 187.337 139.774 187.534 140.27 187.534L143.139 187.609C143.322 188.108 143.522 188.599 143.788 189.164L141.775 191.177C141.425 191.528 141.228 192.004 141.228 192.5C141.228 192.996 141.425 193.471 141.775 193.822L147.065 199.121C147.418 199.467 147.893 199.661 148.388 199.661C148.883 199.661 149.357 199.467 149.71 199.121L151.806 197.158C152.289 197.382 152.78 197.59 153.362 197.798V200.643C153.368 201.135 153.568 201.604 153.919 201.95C154.269 202.295 154.741 202.489 155.233 202.489ZM149.078 194.446L148.388 195.136L145.743 192.491L146.433 191.793C146.986 191.237 147.351 190.521 147.477 189.747C147.602 188.972 147.481 188.178 147.132 187.476C146.957 187.102 146.808 186.727 146.666 186.336C146.414 185.595 145.937 184.951 145.302 184.494C144.667 184.036 143.906 183.788 143.123 183.783H142.133V180.04H143.123C143.907 180.036 144.67 179.786 145.305 179.327C145.941 178.868 146.416 178.221 146.666 177.478C146.808 177.087 146.966 176.713 147.14 176.339C147.486 175.635 147.605 174.842 147.479 174.069C147.354 173.295 146.992 172.58 146.442 172.022L145.743 171.373L148.396 168.72L149.087 169.418C149.649 169.962 150.364 170.32 151.135 170.445C151.907 170.57 152.699 170.455 153.403 170.117C153.776 169.935 154.159 169.777 154.551 169.643C155.289 169.385 155.929 168.907 156.386 168.273C156.843 167.64 157.094 166.881 157.105 166.1V165.076H160.839V166.058C160.851 166.84 161.103 167.6 161.561 168.234C162.02 168.868 162.662 169.345 163.401 169.601C163.792 169.743 164.175 169.901 164.541 170.075C165.247 170.416 166.04 170.531 166.813 170.406C167.587 170.281 168.303 169.922 168.866 169.377L169.556 168.678L172.201 171.373L171.511 172.063C170.959 172.62 170.594 173.335 170.467 174.109C170.34 174.882 170.458 175.676 170.804 176.38C170.983 176.751 171.141 177.131 171.278 177.52C171.529 178.262 172.005 178.908 172.64 179.367C173.275 179.826 174.038 180.076 174.821 180.081H175.803V183.824H174.821C174.042 183.826 173.283 184.069 172.648 184.52C172.014 184.972 171.535 185.609 171.278 186.345C171.137 186.736 170.979 187.11 170.804 187.484C170.457 188.187 170.338 188.981 170.463 189.754C170.588 190.528 170.952 191.244 171.503 191.801L172.193 192.491L169.548 195.136L168.858 194.446C168.298 193.899 167.582 193.539 166.81 193.414C166.037 193.289 165.245 193.405 164.541 193.747C164.167 193.925 163.784 194.084 163.393 194.221C162.655 194.479 162.015 194.957 161.558 195.591C161.101 196.225 160.85 196.984 160.839 197.765V198.746H157.105V197.765C157.094 196.982 156.843 196.222 156.384 195.588C155.926 194.954 155.283 194.477 154.543 194.221C154.152 194.08 153.769 193.922 153.403 193.747C152.698 193.407 151.904 193.291 151.131 193.416C150.357 193.541 149.641 193.901 149.078 194.446Z" fill="white"/> <path opacity="0.54" d="M181.842 199.57C182.482 198.276 183.016 196.933 183.439 195.553L179.87 194.446C179.499 195.637 179.034 196.797 178.481 197.915L181.842 199.57Z" fill="white"/> <path opacity="0.54" d="M159.683 148.083C154.763 148.066 149.889 149.027 145.344 150.911C140.799 152.794 136.674 155.562 133.208 159.054C126.868 165.411 123.308 174.023 123.308 183.001C123.308 191.979 126.868 200.59 133.208 206.947C136.053 209.795 139.431 212.054 143.15 213.595C146.868 215.136 150.854 215.93 154.879 215.93C158.905 215.93 162.891 215.136 166.609 213.595C170.328 212.054 173.706 209.795 176.551 206.947L173.906 204.302C171.407 206.802 168.44 208.785 165.175 210.138C161.91 211.491 158.41 212.187 154.875 212.187C151.341 212.187 147.841 211.491 144.575 210.138C141.31 208.785 138.343 206.802 135.844 204.302C130.208 198.647 127.043 190.989 127.043 183.005C127.043 175.021 130.208 167.362 135.844 161.708C138.97 158.58 142.681 156.099 146.765 154.406C150.85 152.713 155.228 151.842 159.65 151.842C164.071 151.842 168.449 152.713 172.534 154.406C176.618 156.099 180.329 158.58 183.455 161.708C190.505 168.772 194.464 178.344 194.464 188.324C194.464 198.304 190.505 207.876 183.455 214.94C178.592 219.831 172.593 223.44 165.995 225.446C159.397 227.452 152.404 227.792 145.643 226.435L146.424 223.582C146.514 223.254 146.512 222.908 146.42 222.581C146.327 222.254 146.147 221.958 145.899 221.726C145.651 221.493 145.344 221.332 145.012 221.261C144.68 221.189 144.334 221.21 144.012 221.32L135.911 224.123C135.632 224.224 135.381 224.39 135.179 224.606C134.977 224.823 134.829 225.085 134.748 225.37C134.667 225.655 134.655 225.955 134.712 226.246C134.77 226.537 134.896 226.81 135.079 227.043L140.511 233.955C140.685 234.179 140.908 234.36 141.163 234.484C141.418 234.608 141.699 234.672 141.983 234.67C142.105 234.682 142.227 234.682 142.349 234.67C142.689 234.6 143.002 234.439 143.256 234.202C143.51 233.966 143.694 233.665 143.788 233.331L144.678 230.095C147.701 230.698 150.777 230.997 153.86 230.985C159.855 230.985 165.791 229.799 171.326 227.495C176.86 225.191 181.884 221.815 186.108 217.56C193.854 209.795 198.204 199.275 198.204 188.307C198.204 177.339 193.854 166.819 186.108 159.054C182.648 155.569 178.531 152.804 173.995 150.921C169.459 149.038 164.594 148.073 159.683 148.083ZM141.134 228.698L139.612 226.768L141.875 225.986L141.134 228.698Z" fill="white"/> <path opacity="0.54" d="M119.334 209.393C112.695 200.379 109.52 189.277 110.389 178.116C111.258 166.954 116.113 156.478 124.067 148.6C128.99 143.656 134.86 139.758 141.326 137.138L142.541 140.773C142.651 141.103 142.852 141.396 143.122 141.616C143.391 141.837 143.717 141.977 144.063 142.02C144.148 142.029 144.235 142.029 144.321 142.02C144.626 142.018 144.927 141.94 145.197 141.795C145.466 141.651 145.696 141.442 145.868 141.189L151.166 133.478C151.33 133.237 151.435 132.962 151.474 132.673C151.513 132.384 151.485 132.09 151.391 131.815C151.299 131.538 151.144 131.287 150.938 131.081C150.731 130.876 150.478 130.723 150.201 130.634L141.326 127.764C140.996 127.655 140.643 127.64 140.305 127.72C139.967 127.801 139.658 127.974 139.413 128.22C139.168 128.466 138.996 128.775 138.917 129.113C138.837 129.452 138.854 129.805 138.964 130.135L140.128 133.595C133.119 136.407 126.755 140.615 121.422 145.963C112.833 154.467 107.59 165.778 106.65 177.828C105.711 189.879 109.139 201.865 116.307 211.597L119.334 209.393ZM146.666 133.462L144.894 136.023L143.697 132.48L146.666 133.462Z" fill="white"/> <path opacity="0.54" d="M174.381 131.141L173.491 134.775C182.776 137.051 191.258 141.833 198.012 148.599C205.824 156.426 211.252 166.312 213.662 177.104C216.073 187.897 215.367 199.152 211.628 209.559L208.301 208.229C207.985 208.108 207.644 208.076 207.312 208.134C206.98 208.192 206.669 208.339 206.414 208.558C206.158 208.778 205.967 209.063 205.86 209.383C205.752 209.702 205.734 210.045 205.805 210.374L207.643 218.784C207.71 219.075 207.845 219.346 208.038 219.574C208.23 219.803 208.474 219.982 208.75 220.098C209.018 220.208 209.308 220.254 209.597 220.231C209.887 220.208 210.166 220.117 210.413 219.965L217.899 215.34C218.193 215.158 218.431 214.897 218.585 214.588C218.74 214.278 218.806 213.932 218.776 213.587C218.746 213.242 218.621 212.913 218.415 212.635C218.208 212.357 217.929 212.142 217.608 212.013L215.063 210.99C219.077 199.903 219.85 187.902 217.291 176.392C214.733 164.881 208.948 154.338 200.615 145.996C193.383 138.744 184.296 133.619 174.348 131.182L174.381 131.141ZM210.729 215.357L210.205 213.019L212.817 214.067L210.729 215.357Z" fill="white"/> <path opacity="0.54" d="M162.711 138.934C164.192 138.934 165.639 138.495 166.87 137.673C168.101 136.85 169.061 135.681 169.628 134.313C170.194 132.945 170.342 131.44 170.053 129.988C169.765 128.536 169.052 127.202 168.005 126.155C166.958 125.108 165.624 124.395 164.172 124.106C162.72 123.817 161.215 123.966 159.847 124.532C158.479 125.099 157.31 126.058 156.487 127.289C155.665 128.52 155.226 129.968 155.226 131.448C155.226 133.434 156.014 135.338 157.418 136.742C158.822 138.145 160.726 138.934 162.711 138.934ZM162.711 127.705C163.452 127.705 164.175 127.925 164.791 128.336C165.406 128.747 165.886 129.332 166.169 130.016C166.453 130.7 166.527 131.452 166.382 132.178C166.238 132.905 165.882 133.571 165.358 134.095C164.835 134.618 164.168 134.975 163.442 135.119C162.716 135.264 161.963 135.19 161.279 134.906C160.595 134.623 160.011 134.143 159.599 133.528C159.188 132.912 158.969 132.189 158.969 131.448C158.964 130.954 159.058 130.463 159.244 130.004C159.43 129.546 159.705 129.129 160.052 128.777C160.4 128.425 160.814 128.146 161.271 127.955C161.727 127.764 162.217 127.665 162.711 127.664V127.705Z" fill="white"/> <path opacity="0.54" d="M201.995 236.159C203.475 236.159 204.923 235.72 206.154 234.898C207.385 234.075 208.344 232.906 208.911 231.538C209.477 230.17 209.626 228.665 209.337 227.213C209.048 225.761 208.335 224.427 207.288 223.38C206.241 222.333 204.907 221.62 203.455 221.331C202.003 221.042 200.498 221.191 199.13 221.757C197.762 222.324 196.593 223.283 195.77 224.514C194.948 225.745 194.509 227.193 194.509 228.673C194.509 230.659 195.297 232.563 196.701 233.967C198.105 235.371 200.009 236.159 201.995 236.159ZM201.995 224.93C202.735 224.93 203.459 225.15 204.074 225.561C204.69 225.973 205.169 226.557 205.453 227.241C205.736 227.925 205.81 228.678 205.666 229.404C205.521 230.13 205.165 230.797 204.641 231.32C204.118 231.843 203.451 232.2 202.725 232.344C201.999 232.489 201.246 232.415 200.562 232.131C199.878 231.848 199.294 231.368 198.883 230.753C198.471 230.137 198.252 229.414 198.252 228.673C198.252 227.681 198.646 226.729 199.348 226.027C200.05 225.325 201.002 224.93 201.995 224.93Z" fill="white"/> <path opacity="0.54" d="M117.82 219.324C117.82 220.805 118.259 222.252 119.082 223.483C119.904 224.714 121.074 225.674 122.441 226.24C123.809 226.807 125.314 226.955 126.767 226.666C128.219 226.377 129.553 225.664 130.6 224.618C131.646 223.571 132.359 222.237 132.648 220.785C132.937 219.333 132.789 217.827 132.222 216.46C131.656 215.092 130.696 213.923 129.465 213.1C128.234 212.277 126.787 211.838 125.306 211.838C123.321 211.838 121.417 212.627 120.013 214.031C118.609 215.435 117.82 217.339 117.82 219.324ZM129.041 219.324C129.041 220.065 128.821 220.788 128.41 221.404C127.999 222.019 127.414 222.499 126.73 222.782C126.046 223.066 125.294 223.14 124.568 222.995C123.842 222.851 123.175 222.494 122.651 221.971C122.128 221.447 121.771 220.781 121.627 220.054C121.482 219.328 121.557 218.576 121.84 217.892C122.123 217.208 122.603 216.623 123.218 216.212C123.834 215.801 124.558 215.581 125.298 215.581C126.291 215.581 127.243 215.976 127.945 216.678C128.646 217.38 129.041 218.332 129.041 219.324Z" fill="white"/> </g> </svg>