<svg width="1387" height="978" viewBox="0 0 1387 978" fill="none" xmlns="http://www.w3.org/2000/svg">
<path d="M96.8926 676.552L96.8926 677.921L188.483 677.921L188.483 676.552L96.8926 676.552Z" fill="#CACACA"/>
<path d="M142.046 723L143.416 723L143.416 631.417L142.046 631.417L142.046 723Z" fill="#CACACA"/>
<path d="M96.9365 474.898L96.9365 476.268L188.527 476.268L188.527 474.898L96.9365 474.898Z" fill="#CACACA"/>
<path d="M142.046 521.302L143.416 521.302L143.416 429.719L142.046 429.719L142.046 521.302Z" fill="#CACACA"/>
<path d="M96.8896 273.244L96.8896 274.614L188.48 274.614L188.48 273.244L96.8896 273.244Z" fill="#CACACA"/>
<path d="M142.046 319.695L143.416 319.695L143.416 228.113L142.046 228.113L142.046 319.695Z" fill="#CACACA"/>
<path d="M96.9336 71.5911L96.9336 72.9607L188.524 72.9607L188.524 71.5911L96.9336 71.5911Z" fill="#CACACA"/>
<path d="M142.046 117.998L143.416 117.998L143.416 26.4153L142.046 26.4153L142.046 117.998Z" fill="#CACACA"/>
<path d="M1091.09 693.723H1090.66V723.822H1091.09V693.723Z" fill="#CACACA"/>
<path d="M1075.85 708.484L1075.85 708.913L1105.96 708.913L1105.96 708.484L1075.85 708.484Z" fill="#CACACA"/>
<path d="M1157.3 693.723H1156.87V723.822H1157.3V693.723Z" fill="#CACACA"/>
<path d="M1142.06 708.486L1142.06 708.915L1172.16 708.915L1172.16 708.486L1142.06 708.486Z" fill="#CACACA"/>
<path d="M1223.5 693.723H1223.07V723.822H1223.5V693.723Z" fill="#CACACA"/>
<path d="M1208.27 708.489L1208.27 708.917L1238.37 708.917L1238.37 708.489L1208.27 708.489Z" fill="#CACACA"/>
<path d="M1289.7 693.723H1289.27V723.822H1289.7V693.723Z" fill="#CACACA"/>
<path d="M1274.47 708.491L1274.47 708.919L1304.57 708.919L1304.57 708.491L1274.47 708.491Z" fill="#CACACA"/>
<path d="M1355.91 693.723H1355.48V723.822H1355.91V693.723Z" fill="#CACACA"/>
<path d="M1340.68 708.493L1340.68 708.922L1370.78 708.922L1370.78 708.493L1340.68 708.493Z" fill="#CACACA"/>
<path d="M1091.09 757.242H1090.66V787.342H1091.09V757.242Z" fill="#CACACA"/>
<path d="M1075.87 771.991L1075.87 772.42L1105.97 772.42L1105.97 771.991L1075.87 771.991Z" fill="#CACACA"/>
<path d="M1157.29 757.242H1156.87V787.342H1157.29V757.242Z" fill="#CACACA"/>
<path d="M1142.07 771.993L1142.07 772.422L1172.17 772.422L1172.17 771.993L1142.07 771.993Z" fill="#CACACA"/>
<path d="M1223.5 757.242H1223.07V787.342H1223.5V757.242Z" fill="#CACACA"/>
<path d="M1208.28 771.996L1208.28 772.424L1238.38 772.424L1238.38 771.996L1208.28 771.996Z" fill="#CACACA"/>
<path d="M1289.7 757.242H1289.27V787.342H1289.7V757.242Z" fill="#CACACA"/>
<path d="M1274.48 771.998L1274.48 772.426L1304.59 772.426L1304.59 771.998L1274.48 771.998Z" fill="#CACACA"/>
<path d="M1355.91 757.242H1355.48V787.342H1355.91V757.242Z" fill="#CACACA"/>
<path d="M1340.69 772L1340.69 772.429L1370.79 772.429L1370.79 772L1340.69 772Z" fill="#CACACA"/>
<path d="M1091.09 820.655H1090.66V850.755H1091.09V820.655Z" fill="#CACACA"/>
<path d="M1075.77 835.499L1075.77 835.927L1105.87 835.927L1105.87 835.499L1075.77 835.499Z" fill="#CACACA"/>
<path d="M1157.3 820.655H1156.87V850.755H1157.3V820.655Z" fill="#CACACA"/>
<path d="M1141.98 835.501L1141.98 835.929L1172.08 835.929L1172.08 835.501L1141.98 835.501Z" fill="#CACACA"/>
<path d="M1223.5 820.655H1223.07V850.755H1223.5V820.655Z" fill="#CACACA"/>
<path d="M1208.18 835.503L1208.18 835.931L1238.29 835.931L1238.29 835.503L1208.18 835.503Z" fill="#CACACA"/>
<path d="M1289.7 820.655H1289.27V850.755H1289.7V820.655Z" fill="#CACACA"/>
<path d="M1274.39 835.505L1274.39 835.934L1304.49 835.934L1304.49 835.505L1274.39 835.505Z" fill="#CACACA"/>
<path d="M1355.91 820.655H1355.48V850.755H1355.91V820.655Z" fill="#CACACA"/>
<path d="M1340.6 835.508L1340.6 835.936L1370.7 835.936L1370.7 835.508L1340.6 835.508Z" fill="#CACACA"/>
<path d="M1091.09 884.175H1090.66V914.275H1091.09V884.175Z" fill="#CACACA"/>
<path d="M1075.79 899.006L1075.79 899.434L1105.89 899.434L1105.89 899.006L1075.79 899.006Z" fill="#CACACA"/>
<path d="M1157.3 884.175H1156.87V914.275H1157.3V884.175Z" fill="#CACACA"/>
<path d="M1141.99 899.008L1141.99 899.437L1172.09 899.437L1172.09 899.008L1141.99 899.008Z" fill="#CACACA"/>
<path d="M1223.5 884.175H1223.07V914.275H1223.5V884.175Z" fill="#CACACA"/>
<path d="M1208.2 899.01L1208.2 899.439L1238.3 899.439L1238.3 899.01L1208.2 899.01Z" fill="#CACACA"/>
<path d="M1289.7 884.175H1289.27V914.275H1289.7V884.175Z" fill="#CACACA"/>
<path d="M1274.4 899.013L1274.4 899.441L1304.5 899.441L1304.5 899.013L1274.4 899.013Z" fill="#CACACA"/>
<path d="M1355.91 884.175H1355.48V914.275H1355.91V884.175Z" fill="#CACACA"/>
<path d="M1340.61 899.015L1340.61 899.444L1370.71 899.444L1370.71 899.015L1340.61 899.015Z" fill="#CACACA"/>
<path d="M1091.09 947.695H1090.66V977.795H1091.09V947.695Z" fill="#CACACA"/>
<path d="M1075.8 962.513L1075.8 962.942L1105.9 962.942L1105.9 962.513L1075.8 962.513Z" fill="#CACACA"/>
<path d="M1157.29 947.695H1156.87V977.795H1157.29V947.695Z" fill="#CACACA"/>
<path d="M1142 962.515L1142 962.944L1172.11 962.944L1172.11 962.515L1142 962.515Z" fill="#CACACA"/>
<path d="M1223.5 947.695H1223.07V977.795H1223.5V947.695Z" fill="#CACACA"/>
<path d="M1208.21 962.518L1208.21 962.946L1238.31 962.946L1238.31 962.518L1208.21 962.518Z" fill="#CACACA"/>
<path d="M1289.7 947.695H1289.27V977.795H1289.7V947.695Z" fill="#CACACA"/>
<path d="M1274.42 962.52L1274.42 962.948L1304.52 962.948L1304.52 962.52L1274.42 962.52Z" fill="#CACACA"/>
<path d="M1355.91 947.695H1355.48V977.795H1355.91V947.695Z" fill="#CACACA"/>
<path d="M1340.62 962.522L1340.62 962.951L1370.72 962.951L1370.72 962.522L1340.62 962.522Z" fill="#CACACA"/>
<path d="M1264.63 697.178C1264.63 700.82 1267.63 703.819 1271.27 703.819C1274.91 703.819 1277.91 700.82 1277.91 697.178C1277.91 693.536 1274.91 690.537 1271.27 690.537C1267.52 690.537 1264.63 693.536 1264.63 697.178Z" fill="#E5E5E5"/>
<path d="M1350.87 697.178C1350.87 700.82 1353.87 703.819 1357.51 703.819C1361.15 703.819 1364.15 700.82 1364.15 697.178C1364.15 693.536 1361.15 690.537 1357.51 690.537C1353.87 690.537 1350.87 693.536 1350.87 697.178Z" fill="#E5E5E5"/>
<path d="M1264.63 626.374C1264.63 630.016 1267.63 633.015 1271.27 633.015C1274.91 633.015 1277.91 630.016 1277.91 626.374C1277.91 622.732 1274.91 619.733 1271.27 619.733C1267.52 619.733 1264.63 622.732 1264.63 626.374Z" fill="#E5E5E5"/>
<path d="M1350.87 626.374C1350.87 630.016 1353.87 633.015 1357.51 633.015C1361.15 633.015 1364.15 630.016 1364.15 626.374C1364.15 622.732 1361.15 619.733 1357.51 619.733C1353.87 619.733 1350.87 622.732 1350.87 626.374Z" fill="#E5E5E5"/>
<path d="M1264.63 555.57C1264.63 559.212 1267.63 562.212 1271.27 562.212C1274.91 562.212 1277.91 559.212 1277.91 555.57C1277.91 551.928 1274.91 548.929 1271.27 548.929C1267.52 548.929 1264.63 551.928 1264.63 555.57Z" fill="#E5E5E5"/>
<path d="M1350.87 555.57C1350.87 559.212 1353.87 562.212 1357.51 562.212C1361.15 562.212 1364.15 559.212 1364.15 555.57C1364.15 551.928 1361.15 548.929 1357.51 548.929C1353.87 548.929 1350.87 551.928 1350.87 555.57Z" fill="#E5E5E5"/>
<path d="M1264.63 484.874C1264.63 488.516 1267.63 491.515 1271.27 491.515C1274.91 491.515 1277.91 488.516 1277.91 484.874C1277.91 481.232 1274.91 478.233 1271.27 478.233C1267.52 478.233 1264.63 481.125 1264.63 484.874Z" fill="#E5E5E5"/>
<path d="M1350.87 484.874C1350.87 488.516 1353.87 491.515 1357.51 491.515C1361.15 491.515 1364.15 488.516 1364.15 484.874C1364.15 481.232 1361.15 478.233 1357.51 478.233C1353.87 478.233 1350.87 481.125 1350.87 484.874Z" fill="#E5E5E5"/>
<path d="M1264.63 414.07C1264.63 417.712 1267.63 420.711 1271.27 420.711C1274.91 420.711 1277.91 417.712 1277.91 414.07C1277.91 410.428 1274.91 407.429 1271.27 407.429C1267.52 407.429 1264.63 410.321 1264.63 414.07Z" fill="#E5E5E5"/>
<path d="M1350.87 414.07C1350.87 417.712 1353.87 420.711 1357.51 420.711C1361.15 420.711 1364.15 417.712 1364.15 414.07C1364.15 410.428 1361.15 407.429 1357.51 407.429C1353.87 407.429 1350.87 410.321 1350.87 414.07Z" fill="#E5E5E5"/>
<path d="M1264.63 343.266C1264.63 346.908 1267.63 349.907 1271.27 349.907C1274.91 349.907 1277.91 346.908 1277.91 343.266C1277.91 339.624 1274.91 336.625 1271.27 336.625C1267.52 336.625 1264.63 339.624 1264.63 343.266Z" fill="#E5E5E5"/>
<path d="M1350.87 343.266C1350.87 346.908 1353.87 349.907 1357.51 349.907C1361.15 349.907 1364.15 346.908 1364.15 343.266C1364.15 339.624 1361.15 336.625 1357.51 336.625C1353.87 336.625 1350.87 339.624 1350.87 343.266Z" fill="#E5E5E5"/>
<path d="M1264.63 272.462C1264.63 276.104 1267.63 279.103 1271.27 279.103C1274.91 279.103 1277.91 276.104 1277.91 272.462C1277.91 268.82 1274.91 265.821 1271.27 265.821C1267.52 265.821 1264.63 268.82 1264.63 272.462Z" fill="#E5E5E5"/>
<path d="M1350.87 272.462C1350.87 276.104 1353.87 279.103 1357.51 279.103C1361.15 279.103 1364.15 276.104 1364.15 272.462C1364.15 268.82 1361.15 265.821 1357.51 265.821C1353.87 265.821 1350.87 268.82 1350.87 272.462Z" fill="#E5E5E5"/>
<path d="M1264.63 201.659C1264.63 205.3 1267.63 208.3 1271.27 208.3C1274.91 208.3 1277.91 205.3 1277.91 201.659C1277.91 198.017 1274.91 195.017 1271.27 195.017C1267.52 195.017 1264.63 198.017 1264.63 201.659Z" fill="#E5E5E5"/>
<path d="M1350.87 201.659C1350.87 205.3 1353.87 208.3 1357.51 208.3C1361.15 208.3 1364.15 205.3 1364.15 201.659C1364.15 198.017 1361.15 195.017 1357.51 195.017C1353.87 195.017 1350.87 198.017 1350.87 201.659Z" fill="#E5E5E5"/>
<g opacity="0.8">
<g opacity="0.8">
<g opacity="0.8">
<path opacity="0.8" d="M358.65 790.187L363.578 790.188L363.578 764.908L358.65 764.908L358.65 790.187Z" fill="#BDD63B"/>
<path opacity="0.8" d="M373.834 779.986L373.834 775.059L348.552 775.059L348.552 779.986L373.834 779.986Z" fill="#BDD63B"/>
</g>
<g opacity="0.8">
<path opacity="0.8" d="M311.083 790.187L316.011 790.188L316.011 764.908L311.083 764.908L311.083 790.187Z" fill="#BDD63B"/>
<path opacity="0.8" d="M326.214 779.936L326.214 775.008L300.932 775.008L300.932 779.936L326.214 779.936Z" fill="#BDD63B"/>
</g>
</g>
<g opacity="0.8">
<g opacity="0.8">
<path opacity="0.8" d="M358.651 835.423L363.579 835.423L363.579 810.143L358.651 810.143L358.651 835.423Z" fill="#BDD63B"/>
<path opacity="0.8" d="M373.742 825.312L373.742 820.385L348.461 820.385L348.461 825.312L373.742 825.312Z" fill="#BDD63B"/>
</g>
<g opacity="0.8">
<path opacity="0.8" d="M311.083 835.423L316.011 835.423L316.011 810.143L311.083 810.143L311.083 835.423Z" fill="#BDD63B"/>
<path opacity="0.8" d="M326.121 825.262L326.121 820.334L300.839 820.334L300.839 825.262L326.121 825.262Z" fill="#BDD63B"/>
</g>
</g>
<g opacity="0.8">
<g opacity="0.8">
<path opacity="0.8" d="M451.452 744.848L456.38 744.848L456.38 719.569L451.452 719.569L451.452 744.848Z" fill="#BDD63B"/>
<path opacity="0.8" d="M466.549 734.594L466.549 729.667L441.267 729.667L441.267 734.594L466.549 734.594Z" fill="#BDD63B"/>
</g>
<g opacity="0.8">
<path opacity="0.8" d="M403.778 744.848L408.706 744.848L408.706 719.569L403.778 719.569L403.778 744.848Z" fill="#BDD63B"/>
<path opacity="0.8" d="M418.929 734.651L418.929 729.723L393.647 729.723L393.647 734.651L418.929 734.651Z" fill="#BDD63B"/>
</g>
</g>
<g opacity="0.8">
<g opacity="0.8">
<path opacity="0.8" d="M451.453 790.187L456.381 790.188L456.381 764.908L451.453 764.908L451.453 790.187Z" fill="#BDD63B"/>
<path opacity="0.8" d="M466.564 779.919L466.564 774.992L441.283 774.992L441.283 779.919L466.564 779.919Z" fill="#BDD63B"/>
</g>
<g opacity="0.8">
<path opacity="0.8" d="M403.778 790.187L408.706 790.188L408.706 764.908L403.778 764.908L403.778 790.187Z" fill="#BDD63B"/>
<path opacity="0.8" d="M418.944 779.976L418.944 775.048L393.663 775.048L393.663 779.976L418.944 779.976Z" fill="#BDD63B"/>
</g>
</g>
</g>
<g opacity="0.5">
<path opacity="0.5" d="M1386.19 28.7201H1358.54V1.07007H1345.08V28.7201H1317.43V42.1801H1345.08V69.8301H1358.54V42.1801H1386.19V28.7201Z" fill="#BDD63B"/>
<path opacity="0.5" d="M1143.11 0H1129.65V27.65H1102V41.1H1129.65V68.75H1143.11V41.1H1170.76V27.65H1143.11V0Z" fill="#BDD63B"/>
<path opacity="0.5" d="M1247.2 0.689941H1233.74V28.3399H1206.09V41.7899H1233.74V69.4399H1247.2V41.7899H1274.86V28.3399H1247.2V0.689941Z" fill="#BDD63B"/>
</g>
</svg>
