<svg width="76" height="71" viewBox="0 0 76 71" fill="none" xmlns="http://www.w3.org/2000/svg">
<path opacity="0.5" d="M69.3177 47.9452H60.0829V38.6942C60.0807 38.3218 59.9314 37.9653 59.6677 37.7028C59.4039 37.4402 59.0472 37.2928 58.6754 37.2928H50.0242C49.6532 37.2928 49.2974 37.4405 49.035 37.7033C48.7727 37.9661 48.6253 38.3226 48.6253 38.6942V47.9452H39.3905C39.206 47.9441 39.0232 47.9795 38.8525 48.0494C38.6818 48.1193 38.5265 48.2224 38.3957 48.3526C38.2649 48.4829 38.1611 48.6377 38.0902 48.8083C38.0194 48.9789 37.9829 49.1618 37.9829 49.3466V58.0215C37.9818 58.207 38.0174 58.3909 38.0878 58.5625C38.1581 58.734 38.2617 58.8899 38.3927 59.0211C38.5236 59.1523 38.6792 59.256 38.8505 59.3265C39.0218 59.397 39.2053 59.4327 39.3905 59.4315H48.6167V68.6825C48.6235 69.0512 48.775 69.4023 49.0385 69.6598C49.302 69.9173 49.6561 70.0604 50.0242 70.0581H58.6668C58.8513 70.0592 59.0341 70.0238 59.2048 69.9539C59.3755 69.884 59.5308 69.7809 59.6616 69.6507C59.7924 69.5204 59.8962 69.3656 59.9671 69.195C60.0379 69.0244 60.0744 68.8414 60.0744 68.6567V59.4229H69.3091C69.6802 59.4229 70.036 59.2753 70.2984 59.0125C70.5607 58.7497 70.7081 58.3932 70.7081 58.0215V49.3552C70.7092 49.1704 70.6739 48.9873 70.6041 48.8163C70.5343 48.6452 70.4314 48.4897 70.3014 48.3587C70.1714 48.2277 70.0168 48.1237 69.8465 48.0527C69.6762 47.9817 69.4936 47.9452 69.3091 47.9452H69.3177Z" fill="#F37321"/>
<path d="M35.7257 58.0217V49.3554C35.7257 48.3817 36.1118 47.4479 36.799 46.7595C37.4863 46.071 38.4185 45.6842 39.3904 45.6842H46.3594V38.6944C46.3617 37.7222 46.7488 36.7906 47.4358 36.104C48.1228 35.4174 49.0537 35.0318 50.0241 35.0318H58.6753C59.645 35.0318 60.575 35.4177 61.2606 36.1046C61.9463 36.7914 62.3315 37.723 62.3315 38.6944V45.5036L69.2576 38.5654C71.3675 36.5222 73.0503 34.0787 74.2077 31.3773C75.3652 28.6759 75.9742 25.7706 75.9992 22.831C76.0243 19.8914 75.4649 16.9762 74.3536 14.2553C73.2424 11.5345 71.6015 9.06258 69.5267 6.98359C67.452 4.90459 64.9848 3.26017 62.269 2.14623C59.5533 1.03229 56.6433 0.471095 53.7088 0.495385C50.7743 0.519675 47.874 1.12896 45.177 2.2877C42.48 3.44645 40.0402 5.13149 38 7.24454C35.9598 5.13149 33.5201 3.44645 30.8231 2.2877C28.1261 1.12896 25.2258 0.519675 22.2913 0.495385C19.3568 0.471095 16.4468 1.03229 13.7311 2.14623C11.0153 3.26017 8.5481 4.90459 6.47331 6.98359C4.39852 9.06258 2.75766 11.5345 1.64641 14.2553C0.535158 16.9762 -0.0242477 19.8914 0.000805777 22.831C0.0258592 25.7706 0.634874 28.6759 1.79234 31.3773C2.9498 34.0787 4.63255 36.5222 6.74247 38.5654L38.0086 69.8777L46.2049 61.667H39.4161C38.4457 61.667 37.5148 61.2814 36.8278 60.5948C36.1408 59.9082 35.7537 58.9766 35.7514 58.0045L35.7257 58.0217Z" fill="#F37321"/>
</svg>
