<svg width="468" height="171" viewBox="0 0 468 171" fill="none" xmlns="http://www.w3.org/2000/svg">
<path d="M21.0098 69.2201H7.43183L0.673828 112H14.2518L21.0098 69.2201Z" fill="#BDD63B"/>
<path d="M73.5432 69.2201H56.1832L47.3792 92.2221L45.8912 69.2201H28.5312L19.3552 112H32.6852L36.9632 88.0061L38.3892 112H50.1072L59.1592 88.0061L55.8112 112H69.1412L73.5432 69.2201Z" fill="#BDD63B"/>
<path d="M112.867 80.7521C112.867 72.1341 106.481 69.2201 98.7932 69.2201H80.8752L74.1172 112H87.6952L89.8032 98.7321H94.4532C105.489 98.7321 112.867 92.5321 112.867 80.7521ZM99.0412 83.0461C99.0412 86.3321 96.9952 88.0681 93.8332 88.0681H91.4152L92.7172 79.8221H94.8872C97.1192 79.8221 99.0412 80.3801 99.0412 83.0461Z" fill="#BDD63B"/>
<path d="M148.984 112L141.42 69.2201H126.416L105.336 112H119.472L122.014 105.986H133.608L134.228 112H148.984ZM132.492 95.1981H126.54L131.252 84.0381L132.492 95.1981Z" fill="#BDD63B"/>
<path d="M184.825 84.5341L190.343 72.6301C187.491 69.6541 181.043 68.6001 177.199 68.6001C161.885 68.6001 151.283 79.8221 151.283 95.0741C151.283 106.42 159.281 112.744 170.255 112.744C175.897 112.744 181.477 111.132 185.755 107.35L183.585 96.0661C180.733 98.6081 176.951 99.9721 173.169 99.9721C168.519 99.9721 165.171 97.2441 165.171 92.4081C165.171 85.9601 169.511 80.7521 176.207 80.7521C179.183 80.7521 182.717 82.3641 184.825 84.5341Z" fill="#BDD63B"/>
<path d="M224.347 69.2201H191.425L189.689 80.1941H199.361L194.339 112H207.917L212.939 80.1941H222.611L224.347 69.2201Z" fill="#BDD63B"/>
<path d="M272.25 80.5661C272.25 71.6381 264.748 69.2201 257.184 69.2201H239.266L232.508 112H246.086L248.318 97.8021H249.992L254.27 112H269.894L263.198 95.7561C268.778 92.6561 272.25 87.0141 272.25 80.5661ZM258.362 82.7361C258.362 85.5881 256.13 87.1381 253.464 87.1381H249.93L251.108 79.8221H254.456C256.316 79.8221 258.362 80.5661 258.362 82.7361Z" fill="#BDD63B"/>
<path d="M308.432 69.2201H279.106L272.348 112H302.232L304.03 100.778H287.662L288.406 95.9421H303.286L305.022 84.8441H290.142L290.886 80.3181H306.634L308.432 69.2201Z" fill="#BDD63B"/>
<path d="M345.912 80.7521C345.912 72.1341 339.526 69.2201 331.838 69.2201H313.92L307.162 112H320.74L322.848 98.7321H327.498C338.534 98.7321 345.912 92.5321 345.912 80.7521ZM332.086 83.0461C332.086 86.3321 330.04 88.0681 326.878 88.0681H324.46L325.762 79.8221H327.932C330.164 79.8221 332.086 80.3801 332.086 83.0461Z" fill="#BDD63B"/>
<path d="M391.448 86.2701C391.448 74.7381 383.326 68.5381 372.228 68.5381C356.852 68.5381 346.002 79.5741 346.002 95.0121C346.002 106.544 354.186 112.744 365.222 112.744C380.66 112.744 391.448 101.708 391.448 86.2701ZM377.684 88.1921C377.684 94.2681 373.716 100.282 367.206 100.282C362.556 100.282 359.89 97.0581 359.89 92.5321C359.89 86.4561 363.858 80.4421 370.368 80.4421C375.018 80.4421 377.684 83.6661 377.684 88.1921Z" fill="#BDD63B"/>
<path d="M431.972 80.5661C431.972 71.6381 424.47 69.2201 416.906 69.2201H398.988L392.23 112H405.808L408.04 97.8021H409.714L413.992 112H429.616L422.92 95.7561C428.5 92.6561 431.972 87.0141 431.972 80.5661ZM418.084 82.7361C418.084 85.5881 415.852 87.1381 413.186 87.1381H409.652L410.83 79.8221H414.178C416.038 79.8221 418.084 80.5661 418.084 82.7361Z" fill="#BDD63B"/>
<path d="M467.987 69.2201H435.065L433.329 80.1941H443.001L437.979 112H451.557L456.579 80.1941H466.251L467.987 69.2201Z" fill="#BDD63B"/>
<path d="M230.564 158.465C231.533 158.949 232.017 159.555 232.017 160.281C232.057 161.008 231.835 161.694 231.351 162.34C230.907 162.945 230.301 163.41 229.535 163.732C228.808 164.055 228.142 164.035 227.536 163.672C227.456 163.995 227.274 164.217 226.992 164.338C226.749 164.419 226.588 164.6 226.507 164.883C222.592 165.488 218.596 166.235 214.519 167.123C210.442 168.011 206.365 168.677 202.288 169.121C199.14 169 196.516 168.536 194.417 167.729C193.57 167.002 192.924 166.094 192.48 165.004C192.076 163.914 191.834 162.764 191.753 161.553C191.673 160.342 191.713 159.171 191.874 158.041C192.036 156.87 192.278 155.861 192.601 155.014C194.7 152.35 196.88 149.807 199.14 147.385C201.441 144.923 204.044 142.743 206.951 140.846C207.798 139.796 208.787 138.908 209.917 138.182C211.048 137.415 212.077 136.567 213.005 135.639C211.794 135.195 210.523 134.973 209.191 134.973C207.859 134.973 206.547 135.094 205.255 135.336C203.964 135.538 202.753 135.8 201.622 136.123C200.492 136.446 199.503 136.688 198.656 136.85C198.01 136.527 197.243 136.345 196.355 136.305C195.507 136.264 194.66 136.103 193.812 135.82C193.327 135.417 192.984 134.892 192.783 134.246C192.621 133.6 192.52 132.934 192.48 132.248C192.439 131.562 192.419 130.916 192.419 130.311C192.419 129.665 192.339 129.14 192.177 128.736C192.5 128.212 192.783 127.687 193.025 127.162C193.307 126.637 193.63 126.153 193.993 125.709C195.891 125.184 197.99 124.76 200.29 124.438C202.591 124.074 204.912 123.913 207.253 123.953C209.594 123.993 211.855 124.296 214.035 124.861C216.214 125.386 218.152 126.274 219.847 127.525C220.049 128.656 220.473 129.564 221.118 130.25C221.764 130.896 222.551 131.4 223.48 131.764C223.924 132.571 224.307 133.398 224.63 134.246C224.953 135.053 225.175 135.921 225.296 136.85C224.489 138.989 223.339 140.805 221.845 142.299C220.392 143.752 218.919 145.084 217.425 146.295C216.618 146.981 215.75 147.566 214.822 148.051C213.893 148.535 213.086 149.1 212.4 149.746C212.238 149.908 212.137 150.13 212.097 150.412C212.057 150.654 211.956 150.836 211.794 150.957C211.068 151.603 210.26 152.188 209.372 152.713C208.484 153.197 207.677 153.762 206.951 154.408C206.426 154.852 205.982 155.337 205.618 155.861C205.296 156.386 204.852 156.85 204.286 157.254C205.013 157.496 205.719 157.597 206.406 157.557C207.132 157.516 207.859 157.436 208.585 157.314C209.352 157.193 210.119 157.072 210.886 156.951C211.693 156.83 212.521 156.79 213.368 156.83C214.539 156.426 215.831 156.083 217.243 155.801C218.656 155.478 220.069 155.357 221.482 155.438C222.693 154.953 223.843 154.61 224.933 154.408C226.063 154.166 227.133 154.105 228.142 154.227C228.667 154.428 229.05 154.792 229.292 155.316C229.575 155.841 229.999 156.204 230.564 156.406C230.443 156.85 230.402 157.173 230.443 157.375C230.523 157.577 230.564 157.94 230.564 158.465Z" fill="white"/>
<path d="M241.886 170.029C240.312 170.271 238.859 170.191 237.527 169.787C236.195 169.383 235.004 168.738 233.954 167.85C232.945 166.962 232.057 165.912 231.29 164.701C230.523 163.49 229.898 162.199 229.413 160.826C229.09 157.96 229.191 155.357 229.716 153.016C230.241 150.674 230.988 148.515 231.956 146.537C232.965 144.559 234.096 142.723 235.347 141.027C236.598 139.292 237.809 137.637 238.98 136.062C239.222 136.184 239.424 136.184 239.585 136.062C239.747 135.901 239.888 135.719 240.009 135.518C240.171 135.316 240.312 135.114 240.433 134.912C240.594 134.71 240.796 134.569 241.038 134.488C241.2 134.125 241.402 133.822 241.644 133.58C241.886 133.298 242.128 133.035 242.37 132.793C242.653 132.551 242.915 132.309 243.158 132.066C243.4 131.824 243.602 131.521 243.763 131.158C244.126 131.077 244.449 130.936 244.732 130.734C245.014 130.492 245.277 130.25 245.519 130.008C245.761 129.766 246.003 129.544 246.245 129.342C246.528 129.1 246.851 128.918 247.214 128.797V128.01C248.021 127.566 248.607 127.102 248.97 126.617C249.333 126.092 249.777 125.447 250.302 124.68C250.706 124.599 251.029 124.579 251.271 124.619C251.513 124.619 251.856 124.579 252.3 124.498C252.663 123.812 252.986 123.287 253.269 122.924C253.551 122.561 253.975 122.157 254.54 121.713C255.065 122.036 255.65 122.258 256.296 122.379C256.942 122.46 257.487 122.762 257.931 123.287C257.971 123.812 258.092 124.215 258.294 124.498C258.536 124.781 258.799 125.043 259.081 125.285C259.364 125.487 259.626 125.729 259.868 126.012C260.111 126.254 260.272 126.597 260.353 127.041C260.514 127.041 260.615 127.001 260.656 126.92C260.736 126.839 260.857 126.819 261.019 126.859C261.1 127.223 261.18 127.505 261.261 127.707C261.342 127.909 261.423 128.111 261.503 128.312C261.584 128.474 261.665 128.656 261.745 128.857C261.867 129.019 261.967 129.261 262.048 129.584C261.846 130.068 261.665 130.593 261.503 131.158C261.382 131.723 261.1 132.107 260.656 132.309C260.656 132.632 260.757 132.813 260.958 132.854C261.201 132.894 261.342 133.055 261.382 133.338C261.382 133.742 261.322 134.064 261.201 134.307C262.25 136.285 263.178 138.363 263.986 140.543C264.833 142.682 265.782 144.721 266.831 146.658C266.751 147.264 266.771 147.849 266.892 148.414C267.053 148.979 267.215 149.544 267.376 150.109C267.578 150.634 267.76 151.159 267.921 151.684C268.123 152.208 268.264 152.753 268.345 153.318C268.426 154.045 268.426 154.832 268.345 155.68C268.305 156.487 268.163 157.274 267.921 158.041C267.719 158.808 267.437 159.514 267.074 160.16C266.71 160.806 266.286 161.29 265.802 161.613C265.721 161.573 265.499 161.694 265.136 161.977C264.773 162.219 264.349 162.542 263.865 162.945C263.421 163.349 262.956 163.793 262.472 164.277C261.988 164.762 261.564 165.186 261.201 165.549C260.716 165.872 260.171 166.114 259.566 166.275C259.001 166.396 258.415 166.538 257.81 166.699C257.326 167.022 256.74 167.365 256.054 167.729C255.408 168.051 254.722 168.334 253.995 168.576C253.309 168.818 252.623 169 251.937 169.121C251.251 169.283 250.645 169.323 250.12 169.242C248.788 169.807 247.497 170.171 246.245 170.332C245.035 170.534 243.581 170.433 241.886 170.029ZM243.218 147.143C242.895 148.111 242.512 148.979 242.068 149.746C241.624 150.513 241.18 151.3 240.736 152.107C240.332 152.915 239.969 153.783 239.646 154.711C239.363 155.599 239.202 156.648 239.161 157.859C239.807 158.546 240.574 158.969 241.462 159.131C242.391 159.292 243.319 159.312 244.247 159.191C245.216 159.07 246.165 158.909 247.093 158.707C248.021 158.505 248.869 158.384 249.636 158.344C249.636 157.98 249.777 157.819 250.06 157.859C251.392 157.698 252.643 157.214 253.814 156.406C255.025 155.559 256.276 154.711 257.568 153.863C257.729 153.339 257.931 152.895 258.173 152.531C258.456 152.168 258.597 151.643 258.597 150.957C258.436 150.513 258.335 150.19 258.294 149.988C258.254 149.746 258.234 149.363 258.234 148.838C257.386 147.304 256.639 145.649 255.993 143.873C255.388 142.057 254.682 140.382 253.874 138.848C253.794 139.049 253.652 139.251 253.451 139.453C253.249 139.655 253.027 139.615 252.785 139.332C252.583 140.139 252.219 140.503 251.695 140.422C251.21 140.341 250.746 140.099 250.302 139.695C249.172 140.866 248.042 142.016 246.911 143.146C245.781 144.236 244.772 145.508 243.884 146.961C243.723 147.082 243.622 147.122 243.581 147.082C243.541 147.001 243.42 147.021 243.218 147.143Z" fill="white"/>
<path d="M313.452 158.465C314.421 158.949 314.906 159.555 314.906 160.281C314.946 161.008 314.724 161.694 314.24 162.34C313.796 162.945 313.19 163.41 312.423 163.732C311.697 164.055 311.031 164.035 310.425 163.672C310.344 163.995 310.163 164.217 309.88 164.338C309.638 164.419 309.477 164.6 309.396 164.883C305.48 165.488 301.484 166.235 297.408 167.123C293.331 168.011 289.254 168.677 285.177 169.121C282.029 169 279.405 168.536 277.306 167.729C276.458 167.002 275.813 166.094 275.368 165.004C274.965 163.914 274.723 162.764 274.642 161.553C274.561 160.342 274.602 159.171 274.763 158.041C274.924 156.87 275.167 155.861 275.49 155.014C277.589 152.35 279.768 149.807 282.029 147.385C284.329 144.923 286.933 142.743 289.839 140.846C290.687 139.796 291.676 138.908 292.806 138.182C293.936 137.415 294.965 136.567 295.894 135.639C294.683 135.195 293.411 134.973 292.079 134.973C290.747 134.973 289.436 135.094 288.144 135.336C286.852 135.538 285.641 135.8 284.511 136.123C283.381 136.446 282.392 136.688 281.544 136.85C280.898 136.527 280.132 136.345 279.243 136.305C278.396 136.264 277.548 136.103 276.701 135.82C276.216 135.417 275.873 134.892 275.671 134.246C275.51 133.6 275.409 132.934 275.368 132.248C275.328 131.562 275.308 130.916 275.308 130.311C275.308 129.665 275.227 129.14 275.066 128.736C275.389 128.212 275.671 127.687 275.913 127.162C276.196 126.637 276.519 126.153 276.882 125.709C278.779 125.184 280.878 124.76 283.179 124.438C285.48 124.074 287.801 123.913 290.142 123.953C292.483 123.993 294.743 124.296 296.923 124.861C299.103 125.386 301.04 126.274 302.736 127.525C302.938 128.656 303.361 129.564 304.007 130.25C304.653 130.896 305.44 131.4 306.368 131.764C306.813 132.571 307.196 133.398 307.519 134.246C307.842 135.053 308.064 135.921 308.185 136.85C307.378 138.989 306.227 140.805 304.734 142.299C303.281 143.752 301.807 145.084 300.314 146.295C299.507 146.981 298.639 147.566 297.71 148.051C296.782 148.535 295.975 149.1 295.288 149.746C295.127 149.908 295.026 150.13 294.986 150.412C294.945 150.654 294.844 150.836 294.683 150.957C293.956 151.603 293.149 152.188 292.261 152.713C291.373 153.197 290.566 153.762 289.839 154.408C289.314 154.852 288.87 155.337 288.507 155.861C288.184 156.386 287.74 156.85 287.175 157.254C287.902 157.496 288.608 157.597 289.294 157.557C290.021 157.516 290.747 157.436 291.474 157.314C292.241 157.193 293.008 157.072 293.775 156.951C294.582 156.83 295.41 156.79 296.257 156.83C297.428 156.426 298.719 156.083 300.132 155.801C301.545 155.478 302.958 155.357 304.37 155.438C305.581 154.953 306.732 154.61 307.822 154.408C308.952 154.166 310.021 154.105 311.031 154.227C311.555 154.428 311.939 154.792 312.181 155.316C312.464 155.841 312.887 156.204 313.452 156.406C313.331 156.85 313.291 157.173 313.331 157.375C313.412 157.577 313.452 157.94 313.452 158.465Z" fill="white"/>
<path d="M353.777 158.465C354.745 158.949 355.23 159.555 355.23 160.281C355.27 161.008 355.048 161.694 354.564 162.34C354.12 162.945 353.514 163.41 352.747 163.732C352.021 164.055 351.355 164.035 350.749 163.672C350.669 163.995 350.487 164.217 350.204 164.338C349.962 164.419 349.801 164.6 349.72 164.883C345.805 165.488 341.809 166.235 337.732 167.123C333.655 168.011 329.578 168.677 325.501 169.121C322.353 169 319.729 168.536 317.63 167.729C316.783 167.002 316.137 166.094 315.693 165.004C315.289 163.914 315.047 162.764 314.966 161.553C314.885 160.342 314.926 159.171 315.087 158.041C315.249 156.87 315.491 155.861 315.814 155.014C317.913 152.35 320.092 149.807 322.353 147.385C324.654 144.923 327.257 142.743 330.163 140.846C331.011 139.796 332 138.908 333.13 138.182C334.26 137.415 335.29 136.567 336.218 135.639C335.007 135.195 333.736 134.973 332.404 134.973C331.072 134.973 329.76 135.094 328.468 135.336C327.176 135.538 325.965 135.8 324.835 136.123C323.705 136.446 322.716 136.688 321.868 136.85C321.223 136.527 320.456 136.345 319.568 136.305C318.72 136.264 317.872 136.103 317.025 135.82C316.54 135.417 316.197 134.892 315.995 134.246C315.834 133.6 315.733 132.934 315.693 132.248C315.652 131.562 315.632 130.916 315.632 130.311C315.632 129.665 315.551 129.14 315.39 128.736C315.713 128.212 315.995 127.687 316.238 127.162C316.52 126.637 316.843 126.153 317.206 125.709C319.104 125.184 321.202 124.76 323.503 124.438C325.804 124.074 328.125 123.913 330.466 123.953C332.807 123.993 335.068 124.296 337.247 124.861C339.427 125.386 341.365 126.274 343.06 127.525C343.262 128.656 343.686 129.564 344.331 130.25C344.977 130.896 345.764 131.4 346.693 131.764C347.137 132.571 347.52 133.398 347.843 134.246C348.166 135.053 348.388 135.921 348.509 136.85C347.702 138.989 346.551 140.805 345.058 142.299C343.605 143.752 342.132 145.084 340.638 146.295C339.831 146.981 338.963 147.566 338.035 148.051C337.106 148.535 336.299 149.1 335.613 149.746C335.451 149.908 335.35 150.13 335.31 150.412C335.27 150.654 335.169 150.836 335.007 150.957C334.281 151.603 333.473 152.188 332.585 152.713C331.697 153.197 330.89 153.762 330.163 154.408C329.639 154.852 329.195 155.337 328.831 155.861C328.508 156.386 328.064 156.85 327.499 157.254C328.226 157.496 328.932 157.597 329.618 157.557C330.345 157.516 331.072 157.436 331.798 157.314C332.565 157.193 333.332 157.072 334.099 156.951C334.906 156.83 335.734 156.79 336.581 156.83C337.752 156.426 339.044 156.083 340.456 155.801C341.869 155.478 343.282 155.357 344.695 155.438C345.906 154.953 347.056 154.61 348.146 154.408C349.276 154.166 350.346 154.105 351.355 154.227C351.88 154.428 352.263 154.792 352.505 155.316C352.788 155.841 353.212 156.204 353.777 156.406C353.656 156.85 353.615 157.173 353.656 157.375C353.736 157.577 353.777 157.94 353.777 158.465Z" fill="white"/>
<g clip-path="url(#clip0_1001_2798)">
<path fill-rule="evenodd" clip-rule="evenodd" d="M92.09 0C96.5658 0 100.941 1.32723 104.663 3.81384C108.384 6.30046 111.285 9.83479 112.997 13.9699C114.71 18.105 115.158 22.6551 114.285 27.0449C113.412 31.4347 111.257 35.467 108.092 38.6318C104.927 41.7967 100.895 43.952 96.5049 44.8252C92.1151 45.6984 87.5649 45.2502 83.4298 43.5374C79.2947 41.8246 75.7604 38.924 73.2738 35.2026C70.7872 31.4811 69.46 27.1058 69.46 22.63C69.46 16.6282 71.8442 10.8721 76.0881 6.62817C80.3321 2.38423 86.0881 0 92.09 0Z" fill="#8BBB42"/>
<path d="M92.46 27.6596C91.9229 28.0049 91.2856 28.1598 90.65 28.0996H89.96V29.6696C89.96 31.3696 89.19 32.2296 87.65 32.2296H87.1799C86.8665 32.2566 86.5511 32.2112 86.258 32.0967C85.9649 31.9823 85.7022 31.8019 85.49 31.5696C85.1007 31.0154 84.9103 30.3457 84.95 29.6696V28.0996H79.26C78.4885 28.1483 77.7243 27.9254 77.1 27.4696C76.8608 27.2782 76.6687 27.0343 76.5387 26.7569C76.4087 26.4795 76.3441 26.1759 76.35 25.8696V25.0996C76.3488 24.6977 76.4165 24.2986 76.55 23.9196C76.7423 23.4531 76.9696 23.0018 77.23 22.5696L81.6299 15.7796C81.8154 15.4224 82.0402 15.087 82.3 14.7796C82.5359 14.534 82.8225 14.3429 83.14 14.2196C83.5187 14.0765 83.9161 13.9889 84.3199 13.9596C84.8983 13.9062 85.4791 13.8828 86.0599 13.8896C87.1196 13.7997 88.1782 14.0749 89.0599 14.6696C89.4041 15.0417 89.6643 15.4833 89.8231 15.9647C89.9818 16.446 90.0353 16.9558 89.98 17.4596V24.0596H90.64C91.274 24.0018 91.9096 24.1528 92.45 24.4896C92.6419 24.6736 92.7894 24.8989 92.8812 25.1484C92.9731 25.3979 93.0068 25.6651 92.98 25.9296V26.0696C93.0099 26.3495 92.9779 26.6325 92.8864 26.8986C92.7948 27.1647 92.6458 27.4074 92.45 27.6096L92.46 27.6596ZM85.1899 17.6096L81.04 24.2096H85.1899V17.6096ZM105.87 28.0896C106.07 28.2805 106.225 28.5128 106.325 28.7702C106.425 29.0277 106.468 29.304 106.45 29.5796V29.7996C106.469 30.0887 106.429 30.3785 106.332 30.6518C106.236 30.925 106.086 31.176 105.89 31.3896C105.314 31.8141 104.602 32.0101 103.89 31.9396H95.21C94.6748 31.9488 94.1398 31.9154 93.61 31.8396C93.2517 31.7986 92.9087 31.6716 92.61 31.4696C92.3464 31.2723 92.1535 30.9953 92.0599 30.6796C91.9393 30.2299 91.8854 29.765 91.9 29.2996V28.2996C91.8867 27.5725 92.0661 26.8549 92.42 26.2196C92.774 25.606 93.219 25.0497 93.74 24.5696C94.275 24.0789 94.8656 23.6526 95.4999 23.2996C96.1399 22.9496 96.7699 22.6296 97.3699 22.3596C97.9699 22.0896 98.3699 21.8996 98.8099 21.7096C99.2499 21.5196 99.65 21.3296 99.98 21.1496C100.265 20.9937 100.525 20.7947 100.75 20.5596C100.931 20.3598 101.031 20.0994 101.03 19.8296C101.03 18.6896 100.27 18.1196 98.74 18.1196C98.319 18.1159 97.9012 18.194 97.51 18.3496C97.1373 18.4942 96.7973 18.7118 96.51 18.9896C96.2366 19.2427 96.0128 19.5445 95.85 19.8796C95.6847 20.1949 95.5636 20.5313 95.49 20.8796C95.3074 20.9036 95.1225 20.9036 94.9399 20.8796C94.5218 20.8629 94.108 20.7889 93.71 20.6596C93.2507 20.5175 92.8323 20.2672 92.49 19.9296C92.305 19.7303 92.1625 19.4954 92.0714 19.2392C91.9803 18.983 91.9424 18.7109 91.96 18.4396C91.9579 17.7963 92.1197 17.1631 92.4299 16.5996C92.7625 16.0071 93.2324 15.5031 93.8 15.1296C94.4868 14.6692 95.248 14.3309 96.05 14.1296C97.03 13.8793 98.0386 13.7583 99.05 13.7696C100.976 13.6372 102.888 14.1781 104.46 15.2996C105.075 15.8172 105.563 16.4702 105.884 17.2075C106.205 17.9449 106.35 18.7465 106.31 19.5496C106.333 20.2835 106.196 21.0136 105.91 21.6896C105.665 22.2603 105.296 22.7693 104.83 23.1796C104.354 23.5825 103.826 23.9189 103.26 24.1796C102.67 24.4596 102.07 24.7196 101.45 24.9596C100.36 25.3696 99.4499 25.7496 98.6899 26.1196C98.0123 26.4211 97.441 26.9193 97.05 27.5496H103.86C104.567 27.4806 105.276 27.6649 105.86 28.0696" fill="#8BBB42"/>
<path d="M9.13995 31.0401H3.95996V26.3701H9.09998L9.13995 31.0401ZM3.95996 33.3601H9.09998V52.7501H3.95996V33.3601Z" fill="#F4F5F6"/>
<path d="M21.4503 33.6696C22.3621 34.1799 23.1268 34.917 23.6703 35.8096V26.5596H28.8203V52.7496H23.8903V50.0596C23.2861 51.0868 22.4377 51.9489 21.4203 52.5696C20.3531 53.1223 19.1614 53.3909 17.9603 53.3496C16.8613 53.3602 15.7746 53.1176 14.7844 52.6407C13.7943 52.1639 12.9272 51.4654 12.2503 50.5996C10.6549 48.6236 9.82738 46.1375 9.92027 43.5996C9.76468 40.8106 10.5733 38.053 12.2103 35.7896C12.9319 34.8664 13.8615 34.127 14.9234 33.6317C15.9853 33.1363 17.1492 32.8992 18.3203 32.9396C19.4141 32.9193 20.4939 33.1884 21.4503 33.7196V33.6696ZM22.7003 47.4396C23.4896 46.2072 23.8807 44.7618 23.8203 43.2996C23.8203 40.9196 23.2203 39.2296 22.0203 38.2096C21.3092 37.5972 20.3986 37.2664 19.4603 37.2796C18.8143 37.2362 18.1688 37.3709 17.594 37.6688C17.0192 37.9668 16.5372 38.4167 16.2003 38.9696C15.5069 40.2717 15.1443 41.7243 15.1443 43.1996C15.1443 44.6748 15.5069 46.1274 16.2003 47.4296C16.5461 47.9569 17.0251 48.3835 17.5888 48.6662C18.1525 48.9489 18.7808 49.0777 19.4103 49.0396C20.048 49.0743 20.6841 48.9455 21.2581 48.6655C21.8321 48.3855 22.325 47.9635 22.6903 47.4396" fill="#F4F5F6"/>
<path d="M43.1202 33.7499C44.4867 34.3691 45.6487 35.3646 46.4702 36.6199C47.2805 37.8201 47.8102 39.1872 48.0202 40.6199C48.172 41.8973 48.2255 43.1844 48.1802 44.4699H34.0602C34.0149 45.2659 34.1751 46.0602 34.5254 46.7764C34.8756 47.4927 35.4041 48.1068 36.0602 48.5599C36.9021 49.063 37.8698 49.3162 38.8502 49.2899C39.644 49.3543 40.4385 49.1754 41.1281 48.777C41.8176 48.3787 42.3695 47.7797 42.7102 47.0599H47.9602C47.7207 48.3994 47.0625 49.6283 46.0802 50.5699C45.1354 51.5341 43.995 52.2847 42.7358 52.7711C41.4766 53.2575 40.1278 53.4685 38.7802 53.3899C36.2946 53.4236 33.8766 52.581 31.9502 51.0099C29.9502 49.4166 28.9502 46.8299 28.9502 43.2499C28.9502 39.9166 29.8402 37.3399 31.6202 35.5199C32.5326 34.6222 33.6189 33.9205 34.8123 33.4579C36.0058 32.9953 37.2811 32.7816 38.5602 32.8299C40.1277 32.8049 41.6824 33.1151 43.1202 33.7399V33.7499ZM35.5302 38.1199C34.7769 38.9537 34.3046 40.0031 34.1802 41.1199H42.9602C42.9568 40.5446 42.8351 39.9761 42.6029 39.4498C42.3707 38.9234 42.0328 38.4503 41.6102 38.0599C40.7668 37.3697 39.6991 37.0138 38.6102 37.0599C38.0607 37.0286 37.5107 37.111 36.9944 37.302C36.4782 37.493 36.007 37.7885 35.6102 38.1699" fill="#F4F5F6"/>
<path d="M55.6502 40.95C56.3327 40.8878 57.0047 40.74 57.6502 40.51C57.9604 40.4153 58.2328 40.2251 58.4285 39.9665C58.6242 39.708 58.7333 39.3942 58.7403 39.07C58.7766 38.7524 58.7227 38.4311 58.5847 38.1428C58.4468 37.8545 58.2303 37.6109 57.9602 37.44C57.1874 37.0974 56.3443 36.9431 55.5002 36.99C55.0312 36.9403 54.5571 36.9943 54.1113 37.1481C53.6655 37.3019 53.2589 37.5518 52.9203 37.88C52.5265 38.3989 52.278 39.0133 52.2002 39.66H47.3102C47.345 38.1526 47.8445 36.6928 48.7403 35.48C50.0736 33.7666 52.3836 32.91 55.6703 32.91C57.6375 32.8767 59.5845 33.312 61.3502 34.18C63.0102 35.02 63.8302 36.61 63.8302 38.94V47.84C63.8302 48.46 63.8302 49.2 63.8302 50.08C63.8211 50.5475 63.9239 51.0104 64.1302 51.43C64.326 51.6872 64.5841 51.8903 64.8802 52.02V52.77H59.3603C59.2188 52.4109 59.1117 52.0392 59.0403 51.66C58.9803 51.32 58.9402 50.93 58.9002 50.49C58.1912 51.2539 57.3722 51.9077 56.4702 52.43C55.3353 53.0672 54.0516 53.3915 52.7502 53.37C51.1546 53.4312 49.5933 52.8965 48.3702 51.87C47.7846 51.3327 47.3263 50.6714 47.0287 49.9344C46.7312 49.1974 46.6018 48.4033 46.6502 47.61C46.5776 46.5734 46.7989 45.5373 47.289 44.6209C47.779 43.7046 48.5178 42.9451 49.4203 42.43C50.8228 41.74 52.3425 41.3193 53.9002 41.19L55.6502 40.95ZM58.7502 43.32C58.4328 43.514 58.098 43.678 57.7502 43.81C57.3072 43.9613 56.8523 44.0751 56.3902 44.15L55.2303 44.37C54.4219 44.475 53.6354 44.7079 52.9002 45.06C52.5178 45.2687 52.2022 45.5813 51.9899 45.9618C51.7776 46.3422 51.6771 46.7749 51.7002 47.21C51.6677 47.5594 51.7177 47.9116 51.8462 48.2381C51.9748 48.5647 52.1782 48.8565 52.4402 49.09C52.9471 49.4863 53.5772 49.6916 54.2202 49.67C55.3189 49.66 56.3877 49.3107 57.2802 48.67C57.7891 48.2469 58.1871 47.7061 58.4397 47.0945C58.6924 46.4828 58.7921 45.8188 58.7303 45.16L58.7502 43.32Z" fill="#F4F5F6"/>
<path d="M68.9602 46.5596C68.9898 47.2565 69.2343 47.9272 69.6602 48.4796C70.2902 49.1496 71.4602 49.4796 73.1602 49.4796C73.9798 49.5136 74.7965 49.3633 75.5502 49.0396C75.7974 48.9272 76.0095 48.7498 76.1637 48.5263C76.318 48.3028 76.4087 48.0416 76.4262 47.7705C76.4436 47.4995 76.3872 47.2289 76.2629 46.9874C76.1385 46.746 75.951 46.5428 75.7202 46.3996C74.0036 45.7299 72.2296 45.2178 70.4202 44.8696C68.7312 44.5786 67.1347 43.8933 65.7602 42.8696C65.2952 42.4208 64.9337 41.8761 64.7005 41.2734C64.4674 40.6707 64.3683 40.0245 64.4102 39.3796C64.4041 38.5038 64.5898 37.6372 64.9543 36.8408C65.3188 36.0444 65.8533 35.3374 66.5202 34.7696C68.1985 33.3802 70.3466 32.6892 72.5202 32.8396C74.5915 32.7479 76.6457 33.2511 78.4402 34.2896C79.9668 35.2496 80.8435 36.9163 81.0702 39.2896H75.9602C75.9278 38.7343 75.737 38.1998 75.4102 37.7496C75.0408 37.3795 74.5928 37.0974 74.0993 36.9243C73.6059 36.7512 73.0798 36.6915 72.5602 36.7496C71.7357 36.6779 70.9089 36.8593 70.1902 37.2696C69.9828 37.398 69.8105 37.5757 69.6883 37.7868C69.5662 37.9979 69.4982 38.2358 69.4902 38.4796C69.4767 38.7402 69.5406 38.9991 69.6741 39.2233C69.8076 39.4476 70.0046 39.6273 70.2402 39.7396C71.9617 40.3546 73.731 40.8262 75.5302 41.1496C77.2065 41.4538 78.7727 42.1955 80.0702 43.2996C80.5605 43.77 80.9473 44.3377 81.2056 44.9662C81.4639 45.5947 81.5881 46.2703 81.5702 46.9496C81.5935 47.845 81.4119 48.7339 81.0393 49.5485C80.6667 50.363 80.1129 51.0817 79.4202 51.6496C77.9902 52.8696 75.7702 53.4696 72.7802 53.4696C69.7902 53.4696 67.4702 52.8296 66.0102 51.5396C65.3052 50.9343 64.7438 50.1796 64.3667 49.3303C63.9896 48.4811 63.8064 47.5585 63.8302 46.6296L68.9602 46.5596Z" fill="#F4F5F6"/>
<path d="M92.0503 27.0102H90.1103V30.7001H86.8102V27.0102H80.0303V24.0702L86.3303 13.6602H90.1103V24.3701H92.0503V27.0102ZM86.8102 24.3701V16.9902L82.5403 24.3701H86.8102Z" fill="white"/>
<path d="M92.5898 27.3303C93.3822 25.8409 94.5554 24.5883 95.9898 23.7003C97.0483 22.9799 98.0511 22.181 98.9898 21.3103C99.648 20.6591 100.025 19.776 100.04 18.8503C100.063 18.1946 99.85 17.5523 99.4398 17.0403C99.2249 16.7969 98.9575 16.6056 98.6578 16.4808C98.358 16.3561 98.0339 16.3012 97.7098 16.3203C97.2859 16.2773 96.859 16.3643 96.4857 16.5697C96.1124 16.7751 95.8103 17.0892 95.6198 17.4703C95.3627 18.1403 95.2339 18.8526 95.2398 19.5703H91.9598C91.953 18.349 92.223 17.1421 92.7498 16.0403C93.2094 15.1904 93.9081 14.494 94.7595 14.0372C95.6109 13.5804 96.5775 13.3833 97.5398 13.4703C99.1246 13.3913 100.678 13.9329 101.87 14.9803C102.408 15.4934 102.83 16.1159 103.108 16.8059C103.386 17.4958 103.512 18.2372 103.48 18.9803C103.496 20.2039 103.094 21.3964 102.34 22.3603C101.655 23.1969 100.853 23.931 99.9598 24.5403L98.6098 25.5403C97.7698 26.1303 97.1898 26.5403 96.8798 26.8403C96.567 27.1047 96.3001 27.4189 96.0898 27.7703H103.58V30.7703H91.7998C91.8141 29.6027 92.0837 28.4525 92.5898 27.4003" fill="white"/>
</g>
<defs>
<clipPath id="clip0_1001_2798">
<rect width="110.72" height="53.4" fill="white" transform="translate(4)"/>
</clipPath>
</defs>
</svg>
