<svg width="96" height="47" viewBox="0 0 96 47" fill="none" xmlns="http://www.w3.org/2000/svg">
<g clip-path="url(#clip0_518_4323)">
<path fill-rule="evenodd" clip-rule="evenodd" d="M76.0703 2.56038e-06C79.9353 3.06653e-06 83.7136 1.14625 86.9272 3.29378C90.1407 5.44131 92.6452 8.49363 94.1238 12.0647C95.6025 15.6357 95.9889 19.5651 95.2341 23.3557C94.4793 27.1464 92.6173 30.6281 89.8836 33.3604C87.1499 36.0927 83.6673 37.9529 79.8762 38.7058C76.0852 39.4586 72.156 39.0702 68.5857 37.5897C65.0154 36.1093 61.9644 33.6032 59.8185 30.3886C57.6726 27.1739 56.5283 23.3951 56.5303 19.53C56.5303 16.9644 57.0358 14.424 58.0179 12.0539C59 9.68374 60.4394 7.53033 62.254 5.71667C64.0686 3.90301 66.2228 2.46465 68.5934 1.48377C70.964 0.502881 73.5047 -0.00131109 76.0703 2.56038e-06Z" fill="#8BBB42"/>
<path d="M76.3899 23.8798C75.9267 24.1767 75.3777 24.3104 74.8299 24.2598H74.2599V25.6098C74.2599 27.0898 73.5899 27.8198 72.2599 27.8198H71.8599C71.589 27.8448 71.316 27.8064 71.0625 27.7074C70.8091 27.6085 70.5822 27.4518 70.3999 27.2498C70.0573 26.7744 69.8911 26.1945 69.9299 25.6098V24.2598H64.9899C64.3241 24.3048 63.6642 24.1097 63.1299 23.7098C62.9223 23.5479 62.7555 23.3397 62.6426 23.1018C62.5298 22.864 62.4741 22.603 62.4799 22.3398V21.6698C62.4816 21.3295 62.5391 20.9917 62.6499 20.6698C62.8147 20.2678 63.0121 19.8798 63.2399 19.5098L67.0399 13.6398C67.2033 13.3465 67.3978 13.0716 67.6199 12.8198C67.822 12.6092 68.0678 12.4454 68.3399 12.3398C68.662 12.2205 68.9981 12.1432 69.3399 12.1098C69.7399 12.0698 70.2399 12.0498 70.8399 12.0498C71.7591 11.9699 72.6776 12.2101 73.4399 12.7298C73.7414 13.0486 73.9692 13.4296 74.1075 13.846C74.2457 14.2624 74.2909 14.7041 74.2399 15.1398V20.8398H74.8099C75.3565 20.787 75.9052 20.9172 76.3699 21.2098C76.5338 21.369 76.6595 21.5633 76.7375 21.7781C76.8154 21.9929 76.8436 22.2226 76.8199 22.4498V22.5698C76.8459 22.8109 76.8192 23.0547 76.7415 23.2844C76.6638 23.5141 76.537 23.7241 76.3699 23.8998L76.3899 23.8798ZM70.0999 15.2298L66.5199 20.9298H70.0999V15.2298ZM87.9599 24.2798C88.1303 24.4447 88.2632 24.6444 88.3495 24.8653C88.4358 25.0862 88.4734 25.3231 88.4599 25.5598V25.7498C88.4776 26.0012 88.4433 26.2535 88.359 26.491C88.2746 26.7284 88.1422 26.9459 87.9699 27.1298C87.4707 27.5019 86.8486 27.6699 86.2299 27.5998H78.7199C78.2619 27.609 77.8038 27.5822 77.3499 27.5198C77.0346 27.4878 76.7321 27.3779 76.4699 27.1998C76.2406 27.0268 76.0724 26.785 75.9899 26.5098C75.8873 26.1252 75.8401 25.7278 75.8499 25.3298V24.4198C75.8409 23.7941 75.996 23.1769 76.2999 22.6298C76.6019 22.0988 76.9868 21.6195 77.4399 21.2098C77.9034 20.7869 78.4133 20.4179 78.9599 20.1098C79.5099 19.7998 80.0499 19.5298 80.5799 19.2898C81.1099 19.0498 81.4299 18.8998 81.8199 18.7398C82.1615 18.5939 82.4953 18.4304 82.8199 18.2498C83.0705 18.1189 83.297 17.9465 83.4899 17.7398C83.6368 17.5626 83.718 17.34 83.7199 17.1098C83.7199 16.1098 83.0699 15.6398 81.7199 15.6398C81.3532 15.6317 80.9889 15.6998 80.6499 15.8398C80.3443 15.9709 80.0636 16.1536 79.8199 16.3798C79.5907 16.6088 79.3984 16.8719 79.2499 17.1598C79.1127 17.4366 79.0087 17.7287 78.9399 18.0298C78.7841 18.0524 78.6258 18.0524 78.4699 18.0298C78.1096 18.0146 77.7531 17.9506 77.4099 17.8398C77.0325 17.7097 76.6902 17.4941 76.4099 17.2098C76.2423 17.0375 76.1129 16.8317 76.0302 16.606C75.9475 16.3803 75.9133 16.1397 75.9299 15.8998C75.9295 15.3449 76.0669 14.7985 76.3299 14.3098C76.6221 13.7995 77.0296 13.3646 77.5199 13.0398C78.1126 12.6487 78.7691 12.3644 79.4599 12.1998C80.3155 11.9802 81.1967 11.8759 82.0799 11.8898C83.7424 11.7761 85.3929 12.2427 86.7499 13.2098C87.2835 13.6551 87.706 14.2186 87.9838 14.8557C88.2615 15.4928 88.3869 16.1858 88.3499 16.8798C88.3635 17.5132 88.2478 18.1427 88.0099 18.7298C87.7877 19.2165 87.4677 19.6521 87.0699 20.0098C86.6599 20.3631 86.2062 20.6622 85.7199 20.8998C85.2099 21.1498 84.7199 21.3698 84.1499 21.5798C83.2099 21.9298 82.4199 22.2598 81.7699 22.5798C81.1838 22.8428 80.6894 23.2745 80.3499 23.8198H86.2399C86.8518 23.7589 87.4653 23.9185 87.9699 24.2698" fill="#8BBB42"/>
<path d="M4.44 26.7998H0V22.7998H4.44V26.7998ZM0 28.7998H4.44V45.5398H0V28.7998Z" fill="#3D3E3E"/>
<path d="M15.0697 29.0699C15.8585 29.5107 16.5199 30.148 16.9897 30.9199V22.9199H21.4297V45.5299H17.1797V43.2099C16.659 44.1008 15.9232 44.8469 15.0397 45.3799C14.1148 45.86 13.0809 46.0909 12.0397 46.0499C11.0902 46.0568 10.1517 45.8468 9.29563 45.4361C8.43956 45.0254 7.68851 44.4248 7.09967 43.6799C5.71969 41.9579 5.0093 39.7948 5.09967 37.5899C4.97203 35.1802 5.67831 32.8 7.09967 30.8499C7.72402 30.0532 8.52764 29.4152 9.44513 28.9877C10.3626 28.5603 11.3681 28.3554 12.3797 28.3899C13.3229 28.3717 14.2543 28.6029 15.0797 29.0599L15.0697 29.0699ZM16.1597 40.9899C16.8525 39.9275 17.2016 38.6776 17.1597 37.4099C17.1597 35.4099 16.6397 33.8899 15.5997 33.0099C14.9843 32.4843 14.1989 32.2 13.3897 32.2099C12.8313 32.1742 12.2738 32.2913 11.777 32.5485C11.2802 32.8057 10.8628 33.1934 10.5697 33.6699C9.97169 34.7954 9.65899 36.0504 9.65899 37.3249C9.65899 38.5994 9.97169 39.8544 10.5697 40.9799C10.8688 41.4343 11.2823 41.8019 11.7685 42.0459C12.2547 42.2899 12.7966 42.4017 13.3397 42.3699C13.8897 42.3985 14.4379 42.2869 14.9329 42.0455C15.428 41.8041 15.8535 41.4409 16.1697 40.9899" fill="#3D3E3E"/>
<path d="M33.7803 29.1399C34.9644 29.6719 35.971 30.5326 36.6803 31.6199C37.3822 32.6564 37.8372 33.84 38.0103 35.0799C38.1481 36.1808 38.195 37.2912 38.1503 38.3999H25.9603C25.9203 39.0874 26.0586 39.7736 26.3617 40.3921C26.6648 41.0105 27.1224 41.5402 27.6903 41.9299C28.417 42.3655 29.2533 42.5841 30.1003 42.5599C30.9793 42.6015 31.8444 42.3285 32.5403 41.7899C32.9157 41.472 33.222 41.0807 33.4403 40.6399H37.9103C37.7009 41.7882 37.1298 42.8394 36.2803 43.6399C35.4665 44.4744 34.4827 45.1243 33.3957 45.5453C32.3087 45.9663 31.1439 46.1486 29.9803 46.0799C27.8359 46.1062 25.7507 45.377 24.0903 44.0199C22.3803 42.6499 21.5303 40.4099 21.5303 37.3199C21.5303 34.4199 22.3003 32.1899 23.8403 30.6499C24.627 29.8706 25.5657 29.2616 26.5979 28.8608C27.6301 28.4599 28.7338 28.2758 29.8403 28.3199C31.1914 28.3019 32.531 28.5712 33.7703 29.1099L33.7803 29.1399ZM27.2203 32.8899C26.5674 33.6075 26.1609 34.5149 26.0603 35.4799H33.6003C33.5957 34.9833 33.4895 34.4929 33.2883 34.0389C33.0871 33.5849 32.7951 33.1768 32.4303 32.8399C31.7115 32.2227 30.7871 31.8979 29.8403 31.9299C29.358 31.9051 28.8759 31.9812 28.4248 32.1534C27.9736 32.3256 27.5634 32.5901 27.2203 32.9299" fill="#3D3E3E"/>
<path d="M44.5995 35.3597C45.1982 35.3116 45.7872 35.1804 46.3495 34.9697C46.6293 34.9016 46.8789 34.7433 47.0597 34.5191C47.2404 34.295 47.3423 34.0175 47.3495 33.7297C47.3789 33.4477 47.3255 33.1632 47.1958 32.911C47.0662 32.6589 46.8659 32.4499 46.6195 32.3097C45.9541 32.0125 45.2272 31.8788 44.4995 31.9197C44.0941 31.8766 43.6842 31.9233 43.2988 32.0564C42.9134 32.1895 42.562 32.4057 42.2695 32.6897C41.9288 33.1345 41.7146 33.6631 41.6495 34.2197H37.3695C37.4104 32.919 37.8426 31.6609 38.6095 30.6097C39.7695 29.1397 41.7695 28.3997 44.6095 28.3997C46.3098 28.365 47.9936 28.7388 49.5195 29.4897C50.9462 30.223 51.6595 31.5963 51.6595 33.6097V41.2897C51.6595 41.8197 51.6595 42.4697 51.6595 43.2197C51.6427 43.6257 51.7323 44.029 51.9195 44.3897C52.0826 44.6146 52.3038 44.7909 52.5595 44.8997V45.5397H47.8195C47.6917 45.217 47.5979 44.8818 47.5395 44.5397C47.5395 44.2397 47.4495 43.9097 47.4195 43.5397C46.8044 44.1954 46.097 44.758 45.3195 45.2097C44.3394 45.7574 43.2322 46.0368 42.1095 46.0197C40.7358 46.0783 39.3892 45.6258 38.3295 44.7497C37.8221 44.2865 37.4249 43.7155 37.1671 43.0787C36.9092 42.4419 36.7973 41.7554 36.8395 41.0697C36.7776 40.1753 36.9689 39.2815 37.3916 38.4909C37.8144 37.7003 38.4513 37.0448 39.2295 36.5997C40.4413 36.0025 41.7537 35.6363 43.0995 35.5197L44.5995 35.3597ZM47.2795 37.3597C47.0138 37.5329 46.7285 37.6739 46.4295 37.7797C46.0497 37.9159 45.658 38.0164 45.2595 38.0797L44.2595 38.2697C43.5644 38.3581 42.8886 38.5609 42.2595 38.8697C41.9359 39.0555 41.6707 39.3282 41.494 39.6569C41.3173 39.9856 41.2361 40.3572 41.2595 40.7297C41.2326 41.0309 41.2764 41.3343 41.3875 41.6155C41.4986 41.8968 41.674 42.1482 41.8995 42.3497C42.3368 42.6875 42.8772 42.8641 43.4295 42.8497C44.3771 42.8513 45.3022 42.5615 46.0795 42.0197C46.5117 41.6553 46.8506 41.1929 47.068 40.6711C47.2854 40.1493 47.3751 39.5831 47.3295 39.0197L47.2795 37.3597Z" fill="#3D3E3E"/>
<path d="M56.0598 40.2001C56.0917 40.8021 56.3043 41.3806 56.6698 41.8601C57.0882 42.195 57.5685 42.4442 58.0833 42.5935C58.598 42.7428 59.1371 42.7892 59.6698 42.7301C60.3763 42.76 61.0805 42.6301 61.7298 42.3501C61.9579 42.2566 62.153 42.0973 62.2902 41.8925C62.4273 41.6876 62.5003 41.4466 62.4998 41.2001C62.5078 40.9733 62.4544 40.7487 62.3452 40.5498C62.2361 40.3509 62.0753 40.1851 61.8798 40.0701C60.4027 39.4935 58.8765 39.0517 57.3198 38.7501C55.869 38.4784 54.5003 37.8761 53.3198 36.9901C52.9187 36.6049 52.6063 36.1371 52.4042 35.619C52.2022 35.1009 52.1154 34.5451 52.1498 33.9901C52.1447 33.2302 52.3058 32.4784 52.622 31.7875C52.9381 31.0965 53.4015 30.483 53.9798 29.9901C55.4148 28.8006 57.2496 28.2033 59.1098 28.3201C60.9003 28.2449 62.6754 28.6783 64.2298 29.5701C64.9227 30.0618 65.4895 30.7104 65.884 31.4629C66.2785 32.2154 66.4895 33.0505 66.4998 33.9001H62.0998C62.0686 33.4172 61.9023 32.9529 61.6198 32.5601C61.3036 32.2356 60.918 31.9869 60.4919 31.8328C60.0659 31.6786 59.6104 31.623 59.1598 31.6701C58.4631 31.6165 57.7664 31.7732 57.1598 32.1201C56.9848 32.2249 56.8378 32.3707 56.7315 32.5449C56.6253 32.719 56.5629 32.9164 56.5498 33.1201C56.5366 33.3459 56.5915 33.5706 56.7073 33.7649C56.8232 33.9593 56.9948 34.1143 57.1998 34.2101C58.6585 34.7552 60.1605 35.1767 61.6898 35.4701C63.136 35.7327 64.4877 36.3707 65.6098 37.3201C66.0318 37.7268 66.3644 38.2169 66.5865 38.7592C66.8086 39.3016 66.9153 39.8842 66.8998 40.4701C66.9203 41.2453 66.7634 42.015 66.4411 42.7204C66.1187 43.4258 65.6394 44.0482 65.0398 44.5401C63.8065 45.5934 61.8965 46.1167 59.3098 46.1101C56.6698 46.1101 54.7298 45.5601 53.4698 44.4401C52.8593 43.9183 52.3729 43.267 52.0459 42.5335C51.719 41.8 51.5597 41.0029 51.5798 40.2001H56.0598Z" fill="#3D3E3E"/>
<path d="M76.0404 23.32H74.3604V26.5H71.5104V23.32H65.6904V20.75L71.1404 11.75H74.4004V21H76.0804L76.0404 23.32ZM71.5104 21.04V14.67L67.8204 21.04H71.5104Z" fill="white"/>
<path d="M76.5003 23.5903C77.1899 22.308 78.2036 21.2288 79.4403 20.4603C80.3582 19.8409 81.2274 19.1523 82.0403 18.4003C82.6119 17.8376 82.9389 17.0724 82.9503 16.2703C82.9705 15.7047 82.7859 15.1508 82.4303 14.7103C82.2449 14.5012 82.0146 14.3367 81.7565 14.2293C81.4984 14.1219 81.2194 14.0744 80.9403 14.0903C80.573 14.0551 80.2035 14.1317 79.8805 14.3102C79.5575 14.4886 79.296 14.7606 79.1303 15.0903C78.9101 15.6715 78.8016 16.289 78.8103 16.9103H75.9803C75.9849 15.8534 76.2168 14.8098 76.6603 13.8503C77.0602 13.1188 77.6649 12.5199 78.4004 12.1273C79.1359 11.7347 79.97 11.5655 80.8003 11.6403C82.1693 11.5657 83.5127 12.0327 84.5403 12.9403C85.0045 13.3831 85.3687 13.92 85.6084 14.515C85.8482 15.11 85.9579 15.7494 85.9303 16.3903C85.9384 17.449 85.5857 18.4789 84.9303 19.3103C84.3201 20.038 83.6057 20.6715 82.8103 21.1903L81.6503 22.0203C80.9203 22.5403 80.4203 22.9103 80.1503 23.1403C79.8815 23.3719 79.6518 23.6454 79.4703 23.9503H85.9303V26.5103H75.8203C75.8297 25.5021 76.0619 24.5084 76.5003 23.6003" fill="white"/>
</g>
<defs>
<clipPath id="clip0_518_4323">
<rect width="95.61" height="46.12" fill="white"/>
</clipPath>
</defs>
</svg>
