<svg width="111" height="54" viewBox="0 0 111 54" fill="none" xmlns="http://www.w3.org/2000/svg">
<g clip-path="url(#clip0_518_4208)">
<path fill-rule="evenodd" clip-rule="evenodd" d="M88.09 0C92.5658 0 96.9411 1.32723 100.663 3.81384C104.384 6.30046 107.285 9.83479 108.997 13.9699C110.71 18.105 111.158 22.6551 110.285 27.0449C109.412 31.4347 107.257 35.467 104.092 38.6318C100.927 41.7967 96.8947 43.952 92.5049 44.8252C88.1151 45.6984 83.5649 45.2502 79.4298 43.5374C75.2947 41.8246 71.7604 38.924 69.2738 35.2026C66.7872 31.4811 65.46 27.1058 65.46 22.63C65.46 16.6282 67.8442 10.8721 72.0881 6.62817C76.3321 2.38423 82.0881 0 88.09 0Z" fill="#8BBB42"/>
<path d="M88.46 27.6596C87.9229 28.0049 87.2856 28.1598 86.65 28.0996H85.96V29.6696C85.96 31.3696 85.19 32.2296 83.65 32.2296H83.1799C82.8665 32.2566 82.5511 32.2112 82.258 32.0967C81.9649 31.9823 81.7022 31.8019 81.49 31.5696C81.1007 31.0154 80.9103 30.3457 80.95 29.6696V28.0996H75.26C74.4885 28.1483 73.7243 27.9254 73.1 27.4696C72.8608 27.2782 72.6687 27.0343 72.5387 26.7569C72.4087 26.4795 72.3441 26.1759 72.35 25.8696V25.0996C72.3488 24.6977 72.4165 24.2986 72.55 23.9196C72.7423 23.4531 72.9696 23.0018 73.23 22.5696L77.6299 15.7796C77.8154 15.4224 78.0402 15.087 78.3 14.7796C78.5359 14.534 78.8225 14.3429 79.14 14.2196C79.5187 14.0765 79.9161 13.9889 80.3199 13.9596C80.8983 13.9062 81.4791 13.8828 82.0599 13.8896C83.1196 13.7997 84.1782 14.0749 85.0599 14.6696C85.4041 15.0417 85.6643 15.4833 85.8231 15.9647C85.9818 16.446 86.0353 16.9558 85.98 17.4596V24.0596H86.64C87.274 24.0018 87.9096 24.1528 88.45 24.4896C88.6419 24.6736 88.7894 24.8989 88.8812 25.1484C88.9731 25.3979 89.0068 25.6651 88.98 25.9296V26.0696C89.0099 26.3495 88.9779 26.6325 88.8864 26.8986C88.7948 27.1647 88.6458 27.4074 88.45 27.6096L88.46 27.6596ZM81.1899 17.6096L77.04 24.2096H81.1899V17.6096ZM101.87 28.0896C102.07 28.2805 102.225 28.5128 102.325 28.7702C102.425 29.0277 102.468 29.304 102.45 29.5796V29.7996C102.469 30.0887 102.429 30.3785 102.332 30.6518C102.236 30.925 102.086 31.176 101.89 31.3896C101.314 31.8141 100.602 32.0101 99.89 31.9396H91.21C90.6748 31.9488 90.1398 31.9154 89.61 31.8396C89.2517 31.7986 88.9087 31.6716 88.61 31.4696C88.3464 31.2723 88.1535 30.9953 88.0599 30.6796C87.9393 30.2299 87.8854 29.765 87.9 29.2996V28.2996C87.8867 27.5725 88.0661 26.8549 88.42 26.2196C88.774 25.606 89.219 25.0497 89.74 24.5696C90.275 24.0789 90.8656 23.6526 91.4999 23.2996C92.1399 22.9496 92.7699 22.6296 93.3699 22.3596C93.9699 22.0896 94.3699 21.8996 94.8099 21.7096C95.2499 21.5196 95.65 21.3296 95.98 21.1496C96.2655 20.9937 96.5252 20.7947 96.7499 20.5596C96.9312 20.3598 97.0311 20.0994 97.03 19.8296C97.03 18.6896 96.27 18.1196 94.74 18.1196C94.319 18.1159 93.9012 18.194 93.51 18.3496C93.1373 18.4942 92.7973 18.7118 92.51 18.9896C92.2366 19.2427 92.0128 19.5445 91.85 19.8796C91.6847 20.1949 91.5636 20.5313 91.49 20.8796C91.3074 20.9036 91.1225 20.9036 90.9399 20.8796C90.5218 20.8629 90.108 20.7889 89.71 20.6596C89.2507 20.5175 88.8323 20.2672 88.49 19.9296C88.305 19.7303 88.1625 19.4954 88.0714 19.2392C87.9803 18.983 87.9424 18.7109 87.96 18.4396C87.9579 17.7963 88.1197 17.1631 88.4299 16.5996C88.7625 16.0071 89.2324 15.5031 89.8 15.1296C90.4868 14.6692 91.248 14.3309 92.05 14.1296C93.03 13.8793 94.0386 13.7583 95.05 13.7696C96.9761 13.6372 98.8884 14.1781 100.46 15.2996C101.075 15.8172 101.563 16.4702 101.884 17.2075C102.205 17.9449 102.35 18.7465 102.31 19.5496C102.333 20.2835 102.196 21.0136 101.91 21.6896C101.665 22.2603 101.296 22.7693 100.83 23.1796C100.354 23.5825 99.8262 23.9189 99.26 24.1796C98.67 24.4596 98.07 24.7196 97.45 24.9596C96.36 25.3696 95.4499 25.7496 94.6899 26.1196C94.0123 26.4211 93.441 26.9193 93.05 27.5496H99.86C100.567 27.4806 101.276 27.6649 101.86 28.0696" fill="#8BBB42"/>
<path d="M5.13995 31.0401H-0.0400391V26.3701H5.09998L5.13995 31.0401ZM-0.0400391 33.3601H5.09998V52.7501H-0.0400391V33.3601Z" fill="#F4F5F6"/>
<path d="M17.4503 33.6696C18.3621 34.1799 19.1268 34.917 19.6703 35.8096V26.5596H24.8203V52.7496H19.8903V50.0596C19.2861 51.0868 18.4377 51.9489 17.4203 52.5696C16.3531 53.1223 15.1614 53.3909 13.9603 53.3496C12.8613 53.3602 11.7746 53.1176 10.7844 52.6407C9.79425 52.1639 8.92715 51.4654 8.25029 50.5996C6.65489 48.6236 5.82738 46.1375 5.92027 43.5996C5.76468 40.8106 6.57327 38.053 8.21028 35.7896C8.93185 34.8664 9.86153 34.127 10.9234 33.6317C11.9853 33.1363 13.1492 32.8992 14.3203 32.9396C15.4141 32.9193 16.4939 33.1884 17.4503 33.7196V33.6696ZM18.7003 47.4396C19.4896 46.2072 19.8807 44.7618 19.8203 43.2996C19.8203 40.9196 19.2203 39.2296 18.0203 38.2096C17.3092 37.5972 16.3986 37.2664 15.4603 37.2796C14.8143 37.2362 14.1688 37.3709 13.594 37.6688C13.0192 37.9668 12.5372 38.4167 12.2003 38.9696C11.5069 40.2717 11.1443 41.7243 11.1443 43.1996C11.1443 44.6748 11.5069 46.1274 12.2003 47.4296C12.5461 47.9569 13.0251 48.3835 13.5888 48.6662C14.1525 48.9489 14.7808 49.0777 15.4103 49.0396C16.048 49.0743 16.6841 48.9455 17.2581 48.6655C17.8321 48.3855 18.325 47.9635 18.6903 47.4396" fill="#F4F5F6"/>
<path d="M39.1202 33.7499C40.4867 34.3691 41.6487 35.3646 42.4702 36.6199C43.2805 37.8201 43.8102 39.1872 44.0202 40.6199C44.172 41.8973 44.2255 43.1844 44.1802 44.4699H30.0602C30.0149 45.2659 30.1751 46.0602 30.5254 46.7764C30.8756 47.4927 31.4041 48.1068 32.0602 48.5599C32.9021 49.063 33.8698 49.3162 34.8502 49.2899C35.644 49.3543 36.4385 49.1754 37.1281 48.777C37.8176 48.3787 38.3695 47.7797 38.7102 47.0599H43.9602C43.7207 48.3994 43.0625 49.6283 42.0802 50.5699C41.1354 51.5341 39.995 52.2847 38.7358 52.7711C37.4766 53.2575 36.1278 53.4685 34.7802 53.3899C32.2946 53.4236 29.8766 52.581 27.9502 51.0099C25.9502 49.4166 24.9502 46.8299 24.9502 43.2499C24.9502 39.9166 25.8402 37.3399 27.6202 35.5199C28.5326 34.6222 29.6189 33.9205 30.8123 33.4579C32.0058 32.9953 33.2811 32.7816 34.5602 32.8299C36.1277 32.8049 37.6824 33.1151 39.1202 33.7399V33.7499ZM31.5302 38.1199C30.7769 38.9537 30.3046 40.0031 30.1802 41.1199H38.9602C38.9568 40.5446 38.8351 39.9761 38.6029 39.4498C38.3707 38.9234 38.0328 38.4503 37.6102 38.0599C36.7668 37.3697 35.6991 37.0138 34.6102 37.0599C34.0607 37.0286 33.5107 37.111 32.9944 37.302C32.4782 37.493 32.007 37.7885 31.6102 38.1699" fill="#F4F5F6"/>
<path d="M51.6502 40.95C52.3327 40.8878 53.0047 40.74 53.6502 40.51C53.9604 40.4153 54.2328 40.2251 54.4285 39.9665C54.6242 39.708 54.7333 39.3942 54.7403 39.07C54.7766 38.7524 54.7227 38.4311 54.5847 38.1428C54.4468 37.8545 54.2303 37.6109 53.9602 37.44C53.1874 37.0974 52.3443 36.9431 51.5002 36.99C51.0312 36.9403 50.5571 36.9943 50.1113 37.1481C49.6655 37.3019 49.2589 37.5518 48.9203 37.88C48.5265 38.3989 48.278 39.0133 48.2002 39.66H43.3102C43.345 38.1526 43.8445 36.6928 44.7403 35.48C46.0736 33.7666 48.3836 32.91 51.6703 32.91C53.6375 32.8767 55.5845 33.312 57.3502 34.18C59.0103 35.02 59.8302 36.61 59.8302 38.94V47.84C59.8302 48.46 59.8302 49.2 59.8302 50.08C59.8211 50.5475 59.9239 51.0104 60.1302 51.43C60.326 51.6873 60.5841 51.8903 60.8802 52.02V52.77H55.3603C55.2188 52.4109 55.1117 52.0392 55.0403 51.66C54.9803 51.32 54.9402 50.93 54.9002 50.49C54.1912 51.2539 53.3722 51.9077 52.4702 52.43C51.3353 53.0672 50.0516 53.3915 48.7502 53.37C47.1546 53.4312 45.5933 52.8965 44.3702 51.87C43.7846 51.3327 43.3263 50.6714 43.0287 49.9344C42.7312 49.1974 42.6018 48.4033 42.6502 47.61C42.5776 46.5734 42.7989 45.5373 43.289 44.6209C43.779 43.7046 44.5178 42.9451 45.4203 42.43C46.8228 41.74 48.3425 41.3193 49.9002 41.19L51.6502 40.95ZM54.7502 43.32C54.4328 43.514 54.098 43.678 53.7502 43.81C53.3072 43.9613 52.8523 44.0751 52.3902 44.15L51.2303 44.37C50.4219 44.475 49.6354 44.7079 48.9002 45.06C48.5178 45.2687 48.2022 45.5813 47.9899 45.9618C47.7776 46.3422 47.6771 46.7749 47.7002 47.21C47.6677 47.5594 47.7177 47.9116 47.8462 48.2381C47.9748 48.5647 48.1782 48.8565 48.4402 49.09C48.9471 49.4863 49.5772 49.6916 50.2202 49.67C51.3189 49.66 52.3877 49.3107 53.2802 48.67C53.7891 48.2469 54.1871 47.7061 54.4397 47.0945C54.6924 46.4828 54.7921 45.8188 54.7303 45.16L54.7502 43.32Z" fill="#F4F5F6"/>
<path d="M64.9602 46.5596C64.9898 47.2565 65.2343 47.9272 65.6602 48.4796C66.2902 49.1496 67.4602 49.4796 69.1602 49.4796C69.9798 49.5136 70.7965 49.3633 71.5502 49.0396C71.7974 48.9272 72.0095 48.7498 72.1637 48.5263C72.318 48.3028 72.4087 48.0416 72.4262 47.7705C72.4436 47.4995 72.3872 47.2289 72.2629 46.9874C72.1385 46.746 71.951 46.5428 71.7202 46.3996C70.0036 45.7299 68.2296 45.2178 66.4202 44.8696C64.7312 44.5786 63.1347 43.8933 61.7602 42.8696C61.2952 42.4208 60.9337 41.8761 60.7005 41.2734C60.4674 40.6707 60.3683 40.0245 60.4102 39.3796C60.4041 38.5038 60.5898 37.6372 60.9543 36.8408C61.3188 36.0444 61.8533 35.3374 62.5202 34.7696C64.1985 33.3802 66.3466 32.6892 68.5202 32.8396C70.5915 32.7479 72.6457 33.2511 74.4402 34.2896C75.9668 35.2496 76.8435 36.9163 77.0702 39.2896H71.9602C71.9278 38.7343 71.737 38.1998 71.4102 37.7496C71.0408 37.3795 70.5928 37.0974 70.0993 36.9243C69.6059 36.7512 69.0798 36.6915 68.5602 36.7496C67.7357 36.6779 66.9089 36.8593 66.1902 37.2696C65.9828 37.398 65.8105 37.5757 65.6883 37.7868C65.5662 37.9979 65.4982 38.2358 65.4902 38.4796C65.4767 38.7402 65.5406 38.9991 65.6741 39.2233C65.8076 39.4476 66.0046 39.6273 66.2402 39.7396C67.9617 40.3546 69.731 40.8262 71.5302 41.1496C73.2065 41.4538 74.7727 42.1955 76.0702 43.2996C76.5605 43.77 76.9473 44.3377 77.2056 44.9662C77.4639 45.5947 77.5881 46.2703 77.5702 46.9496C77.5935 47.845 77.4119 48.7339 77.0393 49.5485C76.6667 50.363 76.1129 51.0817 75.4202 51.6496C73.9902 52.8696 71.7702 53.4696 68.7802 53.4696C65.7902 53.4696 63.4702 52.8296 62.0102 51.5396C61.3052 50.9343 60.7438 50.1796 60.3667 49.3303C59.9896 48.4811 59.8064 47.5585 59.8302 46.6296L64.9602 46.5596Z" fill="#F4F5F6"/>
<path d="M88.0503 27.0102H86.1103V30.7001H82.8102V27.0102H76.0303V24.0702L82.3303 13.6602H86.1103V24.3701H88.0503V27.0102ZM82.8102 24.3701V16.9902L78.5403 24.3701H82.8102Z" fill="white"/>
<path d="M88.5898 27.3303C89.3822 25.8409 90.5554 24.5883 91.9898 23.7003C93.0483 22.9799 94.0511 22.181 94.9898 21.3103C95.648 20.6591 96.025 19.776 96.0398 18.8503C96.063 18.1946 95.85 17.5523 95.4398 17.0403C95.2249 16.7969 94.9575 16.6056 94.6578 16.4808C94.358 16.3561 94.0339 16.3012 93.7098 16.3203C93.2859 16.2773 92.859 16.3643 92.4857 16.5697C92.1124 16.7751 91.8103 17.0892 91.6198 17.4703C91.3627 18.1403 91.2339 18.8526 91.2398 19.5703H87.9598C87.953 18.349 88.223 17.1421 88.7498 16.0403C89.2094 15.1904 89.9081 14.494 90.7595 14.0372C91.6109 13.5804 92.5775 13.3833 93.5398 13.4703C95.1246 13.3913 96.6777 13.9329 97.8698 14.9803C98.4081 15.4934 98.8303 16.1159 99.108 16.8059C99.3857 17.4958 99.5125 18.2372 99.4798 18.9803C99.496 20.2039 99.0938 21.3964 98.3398 22.3603C97.6546 23.1969 96.8532 23.931 95.9598 24.5403L94.6098 25.5403C93.7698 26.1303 93.1898 26.5403 92.8798 26.8403C92.567 27.1047 92.3001 27.4189 92.0898 27.7703H99.5798V30.7703H87.7998C87.8141 29.6027 88.0837 28.4525 88.5898 27.4003" fill="white"/>
</g>
<defs>
<clipPath id="clip0_518_4208">
<rect width="110.72" height="53.4" fill="white"/>
</clipPath>
</defs>
</svg>
